<mxfile host="app.diagrams.net" modified="2023-10-23T14:04:55.965Z" agent="Mozilla/5.0 (Windows NT 10.0; Win64; x64) AppleWebKit/537.36 (KHTML, like Gecko) Chrome/114.0.0.0 Safari/537.36" etag="7vwgnjmZ7Dtkprbb6Rek" version="22.0.6" type="github">
  <diagram name="第 1 页" id="lnvlbXsJIzCXpntCro-p">
    <mxGraphModel dx="2022" dy="1806" grid="1" gridSize="10" guides="1" tooltips="1" connect="1" arrows="1" fold="1" page="1" pageScale="1" pageWidth="827" pageHeight="1169" math="0" shadow="0">
      <root>
        <mxCell id="0" />
        <mxCell id="1" parent="0" />
        <mxCell id="ooKQ6jh0BGqzkcWm0sTq-7" style="edgeStyle=orthogonalEdgeStyle;rounded=0;orthogonalLoop=1;jettySize=auto;html=1;exitX=1;exitY=0.5;exitDx=0;exitDy=0;" edge="1" parent="1" source="ooKQ6jh0BGqzkcWm0sTq-1" target="ooKQ6jh0BGqzkcWm0sTq-6">
          <mxGeometry relative="1" as="geometry" />
        </mxCell>
        <mxCell id="ooKQ6jh0BGqzkcWm0sTq-1" value="&lt;b&gt;&lt;font style=&quot;font-size: 17px;&quot;&gt;ServerSocket serverSocket = new ServerSocket(8080);&lt;/font&gt;&lt;/b&gt;" style="text;html=1;strokeColor=none;fillColor=none;align=center;verticalAlign=middle;whiteSpace=wrap;rounded=0;" vertex="1" parent="1">
          <mxGeometry x="-827" y="180" width="500" height="40" as="geometry" />
        </mxCell>
        <mxCell id="ooKQ6jh0BGqzkcWm0sTq-9" style="edgeStyle=orthogonalEdgeStyle;rounded=0;orthogonalLoop=1;jettySize=auto;html=1;exitX=1;exitY=0.5;exitDx=0;exitDy=0;" edge="1" parent="1" source="ooKQ6jh0BGqzkcWm0sTq-6" target="ooKQ6jh0BGqzkcWm0sTq-8">
          <mxGeometry relative="1" as="geometry" />
        </mxCell>
        <mxCell id="ooKQ6jh0BGqzkcWm0sTq-11" style="edgeStyle=orthogonalEdgeStyle;rounded=0;orthogonalLoop=1;jettySize=auto;html=1;exitX=1;exitY=0.5;exitDx=0;exitDy=0;" edge="1" parent="1" source="ooKQ6jh0BGqzkcWm0sTq-6" target="ooKQ6jh0BGqzkcWm0sTq-10">
          <mxGeometry relative="1" as="geometry" />
        </mxCell>
        <mxCell id="ooKQ6jh0BGqzkcWm0sTq-6" value="" style="shape=image;verticalLabelPosition=bottom;labelBackgroundColor=default;verticalAlign=top;aspect=fixed;imageAspect=0;image=data:image/png,iVBORw0KGgoAAAANSUhEUgAAA6IAAAHGCAYAAABuAjbiAAAgAElEQVR4nOzdeXhV1b34//cC/QYlg9bkDEkI4P0KIXOsASvVMoTU0J9+BcGq4HWoqBdaUa/g9crQAl5/gl5FK/WntupXtNYBuPIU2oSpk0rSEjIC9rkqkOQMifchAwUUXb8/9pnPSXLOycnI5/U8PHr2WXvvtfbeZ2d/9ppUdna2po+NylrNZRMcHNv6C9qUCmudpCmbyEgo4+/lWzkd5jp9Tedls/UmE01/qOAn5Sc9y7+3YDIZu/fzhn1w5DNWBqq8Oi+bLfNHs+2F2O1DaxOPrssi7Y+VfmUJnbaIBesXktmwmVWvV8Zk/z3nbzLj5txB3CdP8EnD8X7ZZ1/Q+kp++NRdJO9dx6YdxwY6O1GL5fmwlD7G4mlO3lv+EjX9eC/ThYtYe7OJPz27jnJbePvNu30j80y72LT+A+yD5L4bKa0zKH5kBVfxO1568n0c/VCOSK77nDteYg6/40PTtUysC+93Eu72h8vvLxTz7DXcM93B1od/Tt0AX5vdHeehcH7zbt/IvKy6Xt+TwrlPRvP8Nxz0dB/ShUtYvaCA1j1rPecy5LLUuSx58Fpa31rEO1VD+/gNp/uT+zmRt+/nrSF+XgbaeaEWjspazWWp1fy9vBnznDtIcv2ATh/5D7+bTagbjPvGlGh7jdr9FQFbzsBc/CjmBFfa5ldDpOmZTryBiTNKGOXeZ8fvuw1Ydfp95Bflez9HsV+tR/PP01PQLZ/zn2Wd4LOvP7xZAajg9A8UMSfFfVxOBgVW2jKeny9JoeKF/fw5dwpPf290UFojzVgIEUCNnzWZp67Bb7sx22/E5TUCvck+6Sre2cP/WxN8TtwBrufzoXpufNPZxZH3X0drJ8+tqOMPKrzyjp812VM+AL43mS3f834MDLIBrLNLyKSO916r8Cu3Jy9hXn9d/Y58r79RWauZMNHiXWniv5M30fsx8DcXDvPsNdyTc5CXnmzme0/dRaZrv75/3Dxlcf1hyPTJ++E37/b7g2f8ISzgyDMrqStYy70zrK51bXz4zEp2NyvMs9d4lgMwYyWrZng/htp3rAz28+E1hlnLlnGN+1qtfyPoRYe2XsfSB4pJ8cn7oV//JOQfOl24iHW35Ho/h9heV+toXRvVQ6j7j++kHvIXqhzG+o6IAuO+0NXvQ9f9krWvfeyX1v0wOdXkvr94r3n3tiK57rW+kqxsOPLW+9RZC7gq5wrMvz0a/JAasF/P9gLKEk66cH6/4ZbXtxy+943epovMWGYu98ljwHlzP7gnu/fp3BkyEOjNdeAWfD4G9/l1qy7bxbSsYqbNHkPNzsag73sS3X3S//kvMI1xH8+nbc9PaUv/qWf7Wttx7vkpjnbf69R4zkzyOa5tlfdxtNH43F1FRqjgOXB7ofYZS1pnUDwrH133S7/7g6p6gf/PuoZ7pl9Hzm/Df+Hi/p1NxO53zrtaDt6g1/M5ivsfhPe8Ecl9Mtzfr2/5unt+ieR3LgZGyEAUQCV8nwlzjR93TaNy3SQeZWz7v3h+7JFQKp+xc/MDtncHE7JsET/YqfZtfLJtG+C+4XSd1n3D9L1J6fT7GJe+P6pykHwhGcBn3SRxB2VFhxuYu9EIsMbPmszTP55BWlBwdiFzfjyDGw7VM3eF0xNY3fDDS/nzs5/yqc1JRetYbsgyMb7sUz7zCcC+m3UhtB7lzzZAxXi/kZTXJ1ie6wrqxs+azNM3zeDf8N+vOzD0DVJ1XjaP5jlCBq3u77feZPIGrJ5j0HN5PyuvYG55+DWiWqeTm2OChrIuH9Ijuf6Cfkfp95FfdCdjXdff6YafUdMQ+xpRZSrl3qeNm/KaKuW6ua/gJpv3rar7hs/edazx/YOx4BVu4u6At68Wpj70ClfV/ZI1D3/sfdu78Ebqnnwfx45VrNkxMG88h8T5ULnM35DLoV//hJVVyhWoLeT+UhvPuR4EtS5iwUJ4Z/n9ntpIS+ljLL55BbPs/sGbpfQxlkw3+wWBunARCworunw76wlC3QFrpEGoK7hk3wZWuvJsKX2MJbc8z6345CMgndbplCxfxtXJzgEPQt2Cfh+FS1i94EfcVPiR9/fhfoir/xVr1hsPLObZa7j3oVe4xPWwE/F1f/m3mUg1Ww+APe0gX0wvICftfRzN3iShfpee7RN5OkMPv1+lwipv0HFxPchpfSU/fORGzD4PjOGmi4RSBcx9uiDgvnYXi2c3e467at7CpmVbAFftpKmb7YVzHURynAfx+fUrt207+xqKmZdTiGXH8YhbP0R6nwx6/ku/j/yif2ds+30Bz2FmzDNfxNT8KjVbK9B6DJZZj2KaPIc2V1DpfvHIJ09Q49rnqKzVTCh6kbEY2zvT4QCrhTjgdA9l8a08qXG9kNR6MuNmzWFUX7XIS7uCiSlwpPwjAl/q2w8e5Ivp15J1OdRVhbc5pT7mN8+ksuTBa/3Oee6doYNQd2DoG7TpwiX8MML7n2f/PTxvRHKfDPf3G8nzSzi/czFwRnT3pW/wptq34bBBYuYcRunoWvOG2l5c6rej3l5PdOINZEwwc/rIf/jd7FTjixEHoUqd5P/ubUEpE0sfn8H7C7r+63ZpyTiKaOG5zQ7Psk/L6tnaoinKNQfn06dGUKmT/LnhH54A0L1fklP4rs8LJawmJidD5V5vcNoX++2pvFqP5p9/OJbUww1+Ad5n5RVsPKQpmn4p413nV1vG89A1F9L0hwq/oFPV1PcYhDb9oSKo1jTS8oYltZBJydDqtEW3fgi+1z3HD9CmNXGJGTHbfld8/8io5i38sR4mzroRs9bGg8rCa7mk/ld+fxAcO1axpU570vnyfYOo1DHq6uyQYiWlz0sSWwN1PnyDRuNBEJJzCrG4jrNSlby1YbvfQ6FtRxmHMTGpYIxnmbZex03TTLTsXe8XdKqql3sMQlv2ro+qubnW6ZQsLCa5YbMncAaw73ycd+s1mcXXe8phLcgjmTr27TjuKlcjZZt30YqJFEvIzQ8IvzfnB/7GYa1Jto71fG/5wWwjqHj1I88y+29f4S9OzcT870S1z9z8fKj/m1HT0dRMKxYmFoz1T1NyLZe0/I73f3u0+22Fmc6tp99v2OVNSyUZOFLtTafUx7yzfot/wBNuugiFuq9dknNF0P0qmu2Fug4iOc6D+fwGcjqdkJxHbmpYm++1cO+7vi1UlDpOW7MD4o2gUusxWCaXEGd7zS/wPd3wM442a8/z6al2B2BmVJLxfdKUTeROmez6kEoccKb9mN/n9qb9nu0pVcHRXdv6rFuYpaCAS7DzhSPEl03NtILfNRgO1byFF96qRplK+d7lRmA5N0fxxd5X/GtCU+dy43QLrXvW+gdrVS/4fY70/tfd80asRfP80tPvPGKplhAvhEQ0ugxEta7mRMALrjMd3htCpGK9vXBckJ5PHDU46mNTM6Nq6pnzWAVbWzRqUjZb1k3n/bWTuc3iveA9NZWHWzzNR8EI7I61AsmjPYGZW2Wt/93os/IKblxZ712/uoVKLmRybrwnzaW5KaTSwkfVfbffcMrrDoibncG1jPtq/QNod57fK+sMPrih5OaE7KMabXnDYrGQohSt9tj00wx13QPEJViDF8aQ1gdpOOC/rMXp82DieiP7hbM5aN3a6mpIKSAnzX+57wMlGDf9tcteGPD+WpEYuPNRS13A+TAeBC10U2ETUmCg16OCezxB6HNRNMMDun1BU11T168PtLEQ6vcBcIkp1fV9Bjk5Fm9Q4aLUMRxOwJQa8QOWp9mm63ek1Mc0BARR7jRf1P2122At3HS+uvv9RlRe14Ny5oJXuKmwm2MQbroI9Hhfi8H2wPc6CP84D+bzG4rN7kQpc7+8HIrkvusbEIIRZNZue9Ho/pX0bZLi4UxH8H3oRFMNxOeTlAS02znj2fdkLrIC1stJ8vxmHZxud/1vWzNngKSiFxmb3udDpvhw4GgKP3XmgldY9dTLnn8rN6xhZqp/flXVC2yp02QueIXVCwqCmv6COwiu5o/dvOCI9P4X699ljyJ8funpdx4N99/hwL/rInJdNs0dDuISzECoV07RU+okb2zcxxt4m6TO+fEMJnuCpdGkJYNKyWbLuuyg9bXuualr8D6dfHQ4i/tdzXM/Jd4VhH3uE4TFfr/hldfQ5OgksIlJoAzThUD3AwV59zuaOa6+naG33TflNdZ10GKPYsUhqNV2lJ7Om+g/7ia3gVp8/t9kMgHd96l2U8rMNa7tGS9Xeneuw9mG7WANrdO8/c88tanUse9Ar7PQT1K5JAWU6UeseupHQd9qbTxgRfTX5fJvG83kfFaqra5m7oJSvnf5+7wTZjO8vhF+eZX6mN883Gz0HVvwCqsWhO47Fm66YWNQn98Q7HZadM5A5yIqRm1mN9dQWzNnKGFUIpB4OYm2MpwJJVw0Bk5gIQ4Hp9uMTShVwedbbVhmPYq56EXyivq+j6jBjDkN6oJjqZAC+z4agvNX++qvyHL3Cy0LbvqbYrLQ852rD+5/fWAgnl/cf6Nb9q5n1SONEXdxEcEiCkTjEszQWe150zTYGf0E+m77yv4ZP17hNPpWeoLEkzS1gm7tZgCeKC7cfbuPMm9JCt+1fsqnmJic/A+2/caB90fYN/v1Wz1keQ1p5ngCg8xLzaP9Ph9z/gMyw9uXe9ChYzOnszREX9O+LK/nLXHsWucOCikmC7Qc9Atqkq1joSrgjak1ymbNoldC9vt0DQ7k2wTI6XRCVnjbdA8O5Ch5jvkBfTmjkWwZA/jXqlotAXW6rlYFTF/O2umufLSUs2n5UBqJt5kvWkA7uxnQIsKy5Obno5Ri6kOvMDXgu4n534GqgRw4I7LyKnWM3evvYTfefl9TQ/UdCzPdcDC4z28IFgvJODk0BF+6Gk16/atYL0j0/btl43QnJCVmcAFmznT8lraOfExpU7igI/g5VqnjOHYtxoG3z6h55ouMqgzswxobdpsDpQq4xAwEBqKuJu3RBlm5d97FxJZqjpAfso9wi9MOwe/uA/T+/hfqeSPWBuL5xb7zcVbuNP5er3my/0fDH4667SPqS+sxjEoAOpq7bzfvam8fzvaSUs1gO9BnQ3qfanegVD4Xjek5baz0umloV2xOKlqN5rmX5qaQ2tpiDFLU1/sNK1+Qahod9FWG6ULwyeenjpMoZeI7+UFJu7Rvc6XR53P+FL8mwZGX1whcQ+XTj91Oi9auB+7+ZPzh7KsmolpnYDYBzmbjj1LTXznSErppivsPSF0EzYa8jD9g4TR50frbjL/+KQquv5OL+/OaDUtfnw/3oFgHqVHK81m3lLOnh6Y+RpO6XHIuD39/1a9t4I8tmsybVzDLGsWxbq7iUCskm4KPh8lkgtYaaptdfUmLc9D1b7By+f2ef6sC+r76GozXQeRNcLu/7t1NLVv3rGXNw4v8/m2p05D9bXK07nI7lh/M9hsZMvx04elNk2Oj5vNXPfa5CjddJLpqQhg74R3nwX5+Qwl6gRSVvr1PBmn7G21d7M9dUdLWZgSWpzsgLuHbJKVCW+MxTjVWcybB9XzazXOsUUP6Wt+OHeDqoxiqr2VuybVcQnXIpqQ9Mc9ew5xsOx9u/jm/2fw7vki5lht/4P9bcwfBWd38/ejN/QBCPG94hP980K0+e34Jn+1gDa3kRPR3WIQWdiB60ZWPYoqv4djH3vb7pxqrOUOeJ9ALnEahOxdk34Up3oHz0P4e00bt+G9xdGgSr/gp5kSf9uzp90XcF0BrE/+2dHxQ0HNpSTZzUhTNDU7PoEH7dh+lOXksTy2M3ZsZ92BCqVnj+GHWhX77c4vlfsMtr2dQo0nZPD/LG+SNnzWZ+zP/wbbfeAdTovrzkEGlzsvm3/JCnw+lTvJ/n61kW+uF3LDEf71IyusJXDPH+fdxDdTNA3dfcv/hxFrqd63GSu6dK7gqxTvwgFLH2FVejcr5EYtne//Yev+QRTuqpesPWPbsoP4rQcbkcZFSKJWDOSut+7T9rK/Ph3X27cYosmXuQTkajePm09dSW69jacBUKQAc2BkyqNSFi7i1i754SjVStn4Df2o1cfUDkQejSjVStqsOlX0b95eme5ZbSh9jXpaTP202ajs95cgqIC/cB5hBeh3UlhkPcvfc2fPARD1e965mm0cOBvfLqq2u9jwYegaZ8dmOMf2Ag8NO3xdx4aXri/LqwiV+9wxwD2ziX75w0/WG5Qd3c1WKuwli7IV9nIfA+Q3k+wIpWn19nwy1P/vhGlTqnUzI8r4sHpW1mgyrA2eFd5TbMx0OVOr3MWEEp7Q1cya+hLET/TvF6vT7/LYFcEF2KYk4aGvsm5HflfqYP+y1o3J+5Nd/2jx7DXNzFEfeinyuXPcgRNTvYHezQjVv4f29dpJnrPTvo31guzHg0K1r/e5VunCJX7pI7n+BAp833CJ6PuhGXz2/RKTZHjTdkohO19O3qHzGzn3R81l3/J6/b/Ufylq1b+PYJ/lM8LSrr+bY1icYNetRvwE4TjVWc2ZCSY/bC5qbiu8zYe73Af85p8JN525ucXrKJsbOfBF3uGKMyhbpqLlOnvjNeH6+bjppfm9CT7L153v85uk0mrCe5NF1WUH9F0MNvBOuT2tbaL5mrDFSbMDcnrHeb0TlralnDrD1Ju8cnYHzfRrbNPqbHlswjaU/nsEc9zYP1XPjm12fDyMYbSBtXRZzfKZmibS8+zZXkvFAEXN89h2YTqlGauucXD2thFnWipBTTYR7/UXqxMfGb8fsc61Guz1jmoNXmOv6rJ07eelh/5uzqnqBn7GE1Qu8c3ppfbDXE8bXvroO8yMr/JqohZxH9PjvsU/IxpKgGJVgJbiNUngG+/lw95mcv+F55ruWhWqqWv3aBszLl3HNg89zDe5mtRs4tHAZk3y2p1Qj5RuW4rh9I/NdaQHXtCzd/Y4aKVu/mZT1C7nmwedJcTUBDu6XOoslG2YB+A1wpKpeZgWLWHeLT5PbEPORVr+2mZz1C/3K6xZyTtQYXQeB8+JBKfc+XQp01b+qe6p5Cy883MwPn7orqJ9UqOu5u+s+Nz8fWn5nvKUPzMaBv3H41nxP803HjlVsNb3EXNd2dN0vWfNkM8WP5Ps10Q43XazLq6pe4H3rGlY95X1ZF7KPaJjpwuWe1qKn+1rQnIU+10E08xmHc5yHwvn1pa3XMS0LWvdV9bq5fCz/boVDNb5INcb0L+65S41nz1+Ebl3nqv1UVHDCdgdJqf6DHanGFzmWtZq8Od6/Ib3pIxrufcixYxU/sy1htav/tLFfG3/5z7tD/j4yfdK5ubfnnsrkEvcot67jYP/tDg5Pv8sYMMw1pYm7ubzjDu+1Be5Rl31+vxHc/8J53nDr6fkg3N9vXz2/iP6nsrOzg15LjMpazWUTHF3/sIUYxtz98jIbNkc11cVAM89ewz3THUPihnzBpEfInGDixN8e4rM+6Isj+pfnt9O6i03r/QPtvNs3GrWnIeYSletAiP5j/BbrpH+b6LWh9LwRS+6/dbx9f6/GXRARNM0V4lyhVCV79jlR2bd12dRR9J7W38ZyWQq6Yzcxmi1HDDTX3GqtdcE1LU5n6Oki5DoQov/owkXMz1YcfluCUCHEwBvW07cIES37zsd517SReTevYJY9uAZHRE/rVFJnPoQlQXHqk6c5eKh52A6BPmvu4oHOQr/SOgGA5Cvv5P+MauUfSnmWZ11pQp9q4eS4xVD1i3PqOhBiMNDW61h6szGYmNTiCNEbNlpa4eri67EcGEojwg8+EogK0QV3n71JBWMotzX2vIIIi1LN2PY8PNxmxwmpfMumgc5Cvyvfkk7J8mVc8x3/qcyNPqzepu7n0nUgxGBgLcgjeYh2ORFiMHEPAMjyZSzZMCvkeAkiPCH7iAohhBBCCCGEEH1FakRFv8k8fZqEr78G4LO4OFrPk8tPCCGEEEKIc5FEAqJP5Z86xfz/+R9K29qIC5hXcHdCAh9cfDF/jo/njDRnEEIIIYQQ4pyhsrOzdXx8PJ2dnQOdFzFM3HDiBNe2tZF5+jTJZ88C0HreeXwWF+dJM/7MGc93AIdHjeKdiy/mvy6+WIJSIYQQQgghhjkJREXMxGnN+uPHmdnR4VlWOXo0/3XRRWy76KKgtKVtbUzt7KTo5Em/gPVZszkovRBCCCGEEGL4kEBUxMyGxkZK29r4LC6ONVYrlaNHh71u0cmT/J8TJ7jhxAkA3vnWt3jGZKJj5Mi+yq4QQgghhBBigEggKmLiti++4BG7nabzz2feP/1T1AHkzI4O1jU1eQY1Aqi+4ALuGj9emuwKIYQQQggxTIw0mUw//V//63/x5ZdfDnRexBB1w4kTPGK387VS/PP48TjOPz/qbX0WF8d/XXQRF2rNP0aM4MsRI8g8fZrL//EP0r78kuSzZzkeF8fXEpQKIYQQQggxZEmNqIja+DNnWNfURP6pUwAsS09nZ1JSyLRpX31FUxQBasLXX/Pq55+Tefq0Z9kryck8azZHl2khhBBCCCHEgBsx0BkQQ1Oc1rx49Cj5p07xWVwcCy69tMsgNPP0aX7/ySc84HBEvJ+OkSNZcOml3DlunGf7vqPtCiGEEEIIIYYemUd0CNDW61j6QDEpruaouqWcTes/wB5G89S82zcyzbmB53Y2+i23lD7G4pyasLcTqOjkSdK++orqCy5gwaWXdpvWXZsZbQB5RikqR48m7auvKG1ri2obQgghhBBCiMFDakRdtC7i1ic3cn9p+kBnJYiybee5R5aycvn9vFuvw14v7/aNzMtycujg8aDvbAdraE0uZvEdk6PK01RXU+7/kmlWhBBCCCGEEBGSGtEI6MJFrLslN+R3h379E96qGjwD6OjCRczPVhz69TrKbcH5UrbtbHzbwrpbbuPWwoqI8u6eAxTgLwkJMcuzEEIIIYQQ4twggWgEVNXLrKwCrdMpWb6Mq9nl07R1EAWhuogFN+eg69/oNsBUVS/zbt5G5t18D3kHXqImzCa63+3sJPnsWXYnJEQ1AJEQQgghhBDi3DZkA1Gti1iwfiGT3P0mtYM/PRtc++cOGq9JCZ3OUvoYS6b7jMA6fTlrp3s/tuxdH9S/stt8Wa9j6QN5HHq2jJQHjPwd+vVP2GNZwZLpZr/+nd5+mnZm+JQl0n0Gss4uIZM63nutAnoILqvLdjEtq5hps8dQ08U+tZ7MuDl3kNhZxt/LtzK9vR2ADy6+OOo8CiGEEEIIIc5dQzIQdQehmQ2bWfl6pXfZ8uux+Ay+45dug5HOUvoYSx58nhRXU1r7zsdZudObNnlf8MA+0Zi0sIRDz26gZeEyrrnleTLr32DFMxaWPlDMjMs/4K0qI51KmcWSDUbT3pVVyhXILuNW+/1RNfXVOp3cHBM0lIVVw6ls29nXUMy8nEIsO46HHrhozOUkKYWOzyclYQszOzo4oxQVF14Ycf6EEEIIIYQQYmgOVpRqIRk4XFPhWaRUJW9t2O4XSPnVDLrYdrzOH1s0mXnRDdITHhPJzjLKbY04nK5a2LKKLlP79i81AkPILL4eiw5/YCKP1EImJUOr0xb2Kk6nE5LzyE3tIsHxA7RpDZ3VZDd3kvD111SOHk3HyJGR568XrnX1S/3r6NH9ul8hhBBCCCFEbA3NQLTZTisw6ZbnubUwdLDmrRk86FczqJQRHGKyRBfohck3SKa1htrm0Om0rqXugP8yIzC0YIpmxxYLKUrRag8eKbcrNrsTpcykWEJ/r1QFR7ctpnbXNu5uaQHg3W99K5rcRe0Ru53vdnbSdP75Xc5XKoQQQgghhBgahmTTXKUqeXO5zej7ecvzrL0lVB9RKynJoFJuY+3624K2obUR6Nn7Nef9Q2sHLZEUzG6nRef0mCztq6/IPH2aw6NGsbsfR8stbWvjti++4IxSLM3I4EwU854KIYQQQgghBo8hGYiCUbNZvmEp5Xj7d17j0/cTbLS0QqbzDVa5+pGG2Eh/ZjlsJpMJWmtwRrm+p3Yz3Na5FgvJODnUQ/Ca+uWXAFT2Y9PY5LNnWWUzCrJ8zBgOjxrVb/sWQgghhBBC9I2h2TQ3gFFDuplDWpNsGeNaFmkTXCNwTTZZ+zSvPdE6HbMJcNpDDxzUE7udFp/jEA6rpftGwFpPZuwNm5iSOxuAjhH9d9lsaGwk4euv2XbRRf1aCyuEEEIIIYToO0MyENWFi7i/NN1vmTEwkZNDB719I6vLdtGaXMziO3oemMgTuGaVMMvad31He5J/xzKuTvYfYCkizVUcijCgdtfAdtWPlaRU4oz/iS5PUVrX1ETRyZM0nX8+T1q66MAqhBBCCCGEGHKGZNNcVfUy75Q+xtr13vk/Q80jqmzb2bjczoL1C4P6iYaaq7P6tQ2Yly/jmgef55oQ6XThItbdkuuzxiyWbJgF+I98G1FZVC7zNzzPfHc5WsrZtPwDv9rQoLlOffYbWA6lGqmtc3L1tBJmWSuC5lUNpK3XMS0LWvdVdVkDq9q34bCVRFy23ljX1MQNJ07QMXIkSzMy+n2EXiGEEEIIIUTfUdnZ2To+Pp7Ozs6Bzss5x1L6GIunOXlv+UthzfkZLt/5U7vsH+uSd/tG5mXV9ZiHUVmruft0Ffdtf4JNKSlsMoU/pu8NJ06wrqmJbRddxIq0tG7TJnz9NatsNkrb2ugYOZI7x42TfqFCCCGEEEIMM0Oyaa7onlKV7NnnRGXf1uX0NmDU8M7PVhx+u/sgVOvJmCeY4XRdX2TXz4bGRglChRBCCCGEGOYkEB2m7Dsf5916TebNK0L2edXW61h6cw66/o0umxRrPQZz8Sby595Jou01GhsOhEwXKw84HHy3s5PDo0ZRctllEoQKIYQQQggxTA3JPqIiPO4+r5MKxlBu8+8Pay3II7mHprtKHcexazEO1+cRccaQRalffRXzvC52Orm7tZUzSrEsPV36hAohhBBCCDGMSR9REbbks2fZd+QI1RdcwIJLLw17ve76iBadPMkDDtN3dNsAACAASURBVAf5p07RMXIky9LT+XN8fKyzLoQQQgghhBhEpEZUhK31vPP4LC6O/FOnSPvqK5rOP79X20v4+mtePHqUOK2lT6gQQgghhBDnEOkjKiLyzsUXA0Z/zt5Y19TER4cPE6c1uxMSuO5//28JQoUQQgghhDhHSCAqIvLOt75F0/nnU9rWRmlbW1TbeMDh8MwRWn3BBay3Wmk9TyrnhRBCCCGEOFdIICoickYpTz/PVTYbyWfPhr1u5unTvPr559zd2krHyJFsu+gi8k+dYmpHR19lVwghhBBCCDEISSAqIlY5ejTvfOtbJHz9NYtbWnpMf8Y1R2nm6dMUnTxJ0/nn85uLL+am//kfzihFzYUX9nWWhRBCCCGEEIOIBKIiKptSUgBj1Nue7ElMZFNKCodHjaL1vPPoGDmSu1tbAVibmip9Q4UQQgghhDjHSMc8EZXW887jjFKkfvklcVp7aj0D5Z86RdHJk5S2tzP+zBnAmAam9bzzWJaeTuXo0f2ZbSGEEEIIIcQgIIGoiNqf4+OZ2dHBviNH2JmUxOG4OD6LiwNgamcnpW1tpH31lSf94VGj2HzJJTSdf74EoEIIIYQQQpzDJBAVUVuRlkZcYyPf7ezkpv/5n5Bpqi+4gL2Jifw5Pr5Pm+Dm3b6ReaZdbFr/AfYuamcjSSeEEEIIIYToO0M6ENWJNzBxRglx1HBs6y9o6yaw0Hoy4+bcQZJPmrbK+zja2LtgJO/2jUxzbuC5nY292s5Q1DFyJPeNHUvaV18xtaOD5LNnSf3qK74cMYLDcXH8JSGBpvPPH+hsCtFnLKWPsTinRl5sCCGEEEJEaEgHouFyB6GJtteo2V/h803vg9B5WU7+VHa819uKFa2v5IdP3UXy3nVs2nGsX/bZdP75vPOtb/XLvs51A3F+RddsB2tonVbM4jvsrHq9cqCzI4QQQggxZAzpQFS1b+OTbdtcH7oJBMdcTiIOnIf2E6uAURcuYn624tCv11FuGxxB6FCg9XV8PfcJtOuQfaM/47zd/w8j2+UYDgexPL868SHOzrwr5E9WVWZz3nE1oOkAlG07G9+2sO6W27i1sIK3quQ6FkIIIYQIx5AORMN1QaIZcHC6jZjEoVoXseDmHHT9G+fcg6el9DEWT3Py3vKXqImwKaI7SPna9ihxH28H4Jus7XxdXI8OeMAXfU/rIhasX0jyvtg0Le+r8xsY/LmWDp50VS/zbt5G5t18D3kHIv9dCCGEEEKci4ZkIOruGzrK9cCnO37P38u3crqfHgCts0vIpI73XqsIWRNrnr2Ge3IO8tKTzXzvqbvIdKVp3bM2qDmlu6llps92Dr95N+/4BLg6dS5LHizgyDMrqStYy70zrK51bXz4zEp2NyvMs9d4lgMwYyWrZng/htp3pPJu38j8bEXL3tejetj+5jtP8HXHrzj/ow88x03VL2dE6rucnfivjDj2NCOGwEP8cDm/SlWyZ18JS6YvZ43pjV43LQ3n/CquN4JV/GtKPUEsQ7OGvLpsF9Oyipk2eww152B/cSGEEEKISA3JQNS3SW7SlE1kJASn0en3kV+U77PEwti5L3q/jzJ41Tqd3BwTNJR1G4wpUyn3Pm0EHWuqlCvYWMFNtkWeIMRYdi3sXccaVxBhnr2Gexe8wk34BytgYepDr3BV3S9Z8/DHaJ1B8SMruGrhjdQ9+T6OHatYs6Nv+hBqnU7J8mVck6I49OufRFULrPV1aCuMOLLTP9jMWMw3iYAej45JbvvHcDm/9p2Ps8K+iHW33MaaZZaoB90J9/yOUNsZufsy9My7ODv5X1HlxsuHb74zdINQMJro7msoZl5OIZYdx2XgIiGEEEKIHowY6Az0FdX4IjVb/4Warf/CJ0fsaF3N0S33eZbV7toWXQ1qaiGTkqHVaesxqW/Nl2rewh/rYeKsGzFrbQQaC6/lkvpf+QUUjh2r2FKnPel86bpfsva1j43tqWPU1dkhxUpK5KUIm9F8cxlXJzv54zPRBaEAJF2GBlRHg2fRN1nb+fIKGFG5FxgHSTHJcr8ZDucXjKalK54ppzW5mMXr7yFPR/FKIILzq9r/k/P+upcRiXfxTQboMc/zTSqMOLJ8SAahbk6nE5LzyE0d6JwIIYQQQgx+Q7JGdEBZLKQoxSF79yPlan2QhgP+SVqcdsg2Agt72hVMTIEv6pqD1q2trmbOrQXkpL2Pw+frI9Uf+W3QsWMVa3fQ/UBNvaCt17H0gWKSW2M/7+bXV9ZxNv5XnL/laVTGzxmhxqOTgPaY7aJPDYfz60vZtrNxeRUly5cxb/0KzM/2bhCuns6vOv4TRqTV8U1RPWeBb5ofJa7hUMht6aJ6viryfu5qAKSBSudmsztRKpcUC9DzeyohhBBCiHOaBKJR0NpBiz0222q1HWWwTP0SKL+kmBSl0MkWTEBsinw9Z+c8gT4yn7iPD4FSaFwP+W0x2cGgMpjPb1eUMnN1yWTKo+ozGv75HfHRo2h3v9CGD+jqOA32wYo87HZadE7X3wshhBBCCI9h2zS3LyllNmo9IpRiskCLjRafZcnWsUHpLFZz9JmLoZrXl7Ji2RscJod561cwy9qLXpxtf0cBuugJ+Gs25/vUfumEccDnMMQD0aF2fn15m2DX8e6yn0Q+cFEU59cY3GgvIzvGc3byv/JNNE2CBxOLhWScMXtJJYQQQggxnEkgGim7nRatSbaMiWg1rTMwmwBnMw6loOmvHGmBS0zBHcqMgOYgdU3RZLCZL7rYbjSUquTN5Rv4U6uJax58nlsLowsWlNqOssE37b9ihM8YO1pPQqeOB1sZI4fwAC9D9fyCMSfuug23kdm6i01RTMsDkZ/fb7K2c9b6GedV/JiRFb9iRMJdfJ2dFYviDBirxTTQWRBCCCGEGDIkEI1UcxWHWiHZZO05rY/cO1dwVUo1W1/9CDAGo9lVXo3K+RGLZ2d40plnr2FOtp0PN79vBDQRUuoYDieQPZuZqbGpYVKqkfINS3m3XjPplue5vzQ9qu2MaDACjq++c71nmc5ez9kEd9PMoWuonl9L6WOsuyUXXf8GqzZs71U/4HDPr058iK8njgfbS4xsV6j2/2Tkkc8g813Ojhm6taImkwlaa6gN7hYshBBCCCECDMk+oqOyVjNhom/b2O8zYe73ATh95D/4pOF4n+1bqUZq65xcPa2EWdaKLgd0UaqAuU+/wlzXZ+3cyUsP+wcfquoFfsYSVi/wzgmp9UG2Pvxz6noRENS+ug7zIyuY+tArTHUti8U8ojWvL8VZ+hiLp5WStyPymjPV/p+ctxvOznyCr+Y+AcA3ei/nbfnxkKsNHQ7nV+siZkwz0bJ3Pc/FYO7LcM6vTnyIszPv4hv2cp7ffKMvoSY+gS6q5yyh+mYObtp6HdOyoHVflUzdIoQQQggRBpWdna3j4+Pp7Owc6LwMGUZ/uoVkNmwO2ZfOPHsN90x39DrgEOHLu30j80w9j+4bbrruyPkVgfJu38i8rDrei7JpsxBCCCHEuUaa5kZBqUr27HOism+Lus+kEGJ40IWLmJ+tOPy2BKFCCCGEEOGSQDRK9p2P8269JvPmXo4mK4QYsrT1OpbenIOuf4O3qiQIFUIIIYQIlwSivVD9mjGa7KSCyEbQFUIMD9aCPJK7aKIvhBBCCCG6Jn1EhRBCCCGEEEL0K6kRFUIIIYQQQgjRryQQFUIIIYQQQgjRr4ZEIBofHz/QWRBCCCGEEEIIESNDIhAVQgghhBBCCDF8SCAqhBBCCCGEEKJfSSAqhBBCCCGEEKJfSSAqhBBCCCGEEKJfSSAqhBBCCCGEEKJfSSAqhBBCCCGEEKJfnTfQGTiXjcpazWUTHBzb+gvalBro7JzztPU6lj5QTIrrXOiWcjat/wB7wLkJN91AGez5E0Ob+/pKpo73lr9EzQBcV3m3b2SacwPP7Wzs930LIYQQIjakRrSPaD2ZsTdsYkLWmIHOigiTsm3nuUeWsnL5/bxbr3udbqAM9vwNBVoXceuTG7m/NH2gs9IvhlJ5827fyLwsJ4cOHh/orAghhBCiF6RGVAx7unAR627JDfndoV//hLeqzu2aQvfx0drBn55dR7nt3D4e4QqsefY1nK8r40XHdteH/i2jLlzE/GzFoV/LdSqEEEIMdRKIimFPVb3MyirQOp2S5cu4ml0+TVXlYTY/LwddX86fTMVMKhhDuU2aO0YidNAp11WsaV3Egptz0PVvDNsgXwghhDiXSCAaY6OyVjNhosW7YOK/kzfR+/H0kf/gk4bAJmUZmIsfxZygQqbRiTcwcUY+bXt+Slv6Tz3b19qOc89PcbR7H8q0nsy4OXeQ5FNT0VZ5H0cbjc9JUzaRkVDG38u3cjqw76Nr3bhPngiRx+7LfFlqNX8vb8bss2/d/Cq1+ysC9jEGyyxvWQPL0Bf5G0ju4PeaFHd5Q9c6dlW7Fpg+VLre1L5pXUROFhx++wNqLXlcnVOIZcdxv/6kxj7zOPTsOmoLVrBkurnLsoRTDkvpYyye5vTrX6h1EQvWLySzYTOrXq/02WcZKQ8sZJJSHPr1T9hjMfYf2O81nONsKX2MxTk1bFpvZ8Z6Y5sAuv4NVr1e6UnjLh8A05ezdrr3Y8ve9RH1S/SUC6f/eexiOQTX4Pvmz7vd6MvrW4ZIyhtJ32N3+SZ1c52Gcz58WWeXkEkd771W0e81sUIIIYSIPQlEY+x0w8+oaQg/aFIqn7Fz82mrvI+aRoVOv4/8on9nbLs3eDSYMc98EVPzq9RsrfAEdKbJc2hzBW1GwFoCnzxBjWufo7JWM6HoRcZibO9MhwOsFuKA0zEst0r4PhPmElCOOxmbvt9TDvcxSbS9Rs2uCm/+Zr7IqMq+zd9A8A2uVm7wCXQefJ4Un4dy9wM++zawcmejt+Y2OUTwshDeWX6/5+HfUvoYi29ewSx7lE0VLy8wHu4PgC21htZpeeSmfoDdFpjQxDUPPs/V9W+wcnmlN48Lr6fWFYyEW45ITFpYwqFnN9CycBnX3PI8mfVvsOIZC0sfKGbG5R/wVlX4xxlApcxiyQYjKFpZpVxB323cWljBW1UK+87HWbnTu83kfb0bEEepSt581siv77HKvyN0EOoODH2DNl24iAWu/EEvy2u9jqUPLONW+/0Rl9e3SW7e7RuZZwpd5sDrwJO/W57nViI7H55t6nRyc0zQUDYggyMJIYQQIvZksKJBwLfGkuMHaNOauMSMoHS+NYxKHaet2QHxRtCm9Rgsk0uIs73mF/iebvgZR5s1iZlzGKU1p9odgJlRScb3SVM2kTtlsutDKnHAmfZjfVKOC7JLSaSGYx/v9yw7Vf8rHB2axLQpxuc+zF9/86vBcbHteJ0/tmgy8yZ70xXkkUwd+3YY502pRso276IVEyk+letKVfLWhu1+NVC2HWUcxsSkgugGxcrPy4GGg8bDfbOd1m625VtTpVQjtXVOSLbgjkfCLUf4TCQ7yyi3NeJwumr9yiqCUoV7nN38auYOHOSQ1iRb+m5QMWXbzsa361Aps5hxubefY+u+14Nqk2+aZqJl73r/YK3qZb/PvSmvsm1nXwNkFl+PRcd+ICut0ylZWExyw2a/gNa+83Herdch9xvW+UgtZFIytDqD3pAIIYQQYoiSQHSAaV3NiRAVpnEJ1qBl7U37/T6fbvgZtdteNKZ+Sfo2SfFwpiP4Qe1EUw3E55OUBLTbOePZ92QusgLWy0nyPBw6ON0e+3JoPYakVDPYDvhNVaPUcU53AAmpjNK6z/LX37w1OAf9anCUMoIqTJY+CQQi4WmWW+N+uVFJXQMk5xSGzJs7nZt95+OseuTlPq2h8ttnaw21zf7fR3qcta6l7kDwfpJNwb+3cE265XnWrn/O82/Nk48xy+p//FTVy7xbr5l0y/PGwFD1bwTVPAYG8qHEorxOp/8LhJjqJmCsrqmD5DxyU73Lwj4fFgspStFqHxpN8oUQQgjRM2maO8wYtYXdBAZtzZyhhFGJQOLlJNrKcCaUcNEYOIGFOBycbut+E9GxMioeVMKd5M25M+hbrY2a3VMDlr9Ys5KSDCrlNtauvy3oW62NQMAO2A7W0DqtmGmzx1DjbtK60Jincd8B/Moa1KfPpSWaLF5eYDQPtXsXVdfUMf+WWZ5mr5GIpByxE/5x7ivhDlZU/dpmctz9QssqgtKYTCbA2cPeBr684TACxtiecK0dtAx0wYQQQggRMxKIDjNGU1j/WoMLEn0DFxunOyEpMYMLMHOm47e0deRjSpvCBR1m6Kz21EjGlrHfxI7gAYw8lAI9UPmLNRstrZDpDD3wCuAdcMVV2+M7UIxuKWfTcv+BYEL2H3T37Ysih/l5OSiluObB57km4LvMvMlQ1UW+uxJmOWIrguM8wPLvWEhmax2HyfHrL+rmdDohq6et9L68JpMJWmt6DHl7w2haG1Dja+ldHaxSZqOJt7TOFUIIIYYFCUT7jCvwSrASGBj2iba/0dZZginE/uISzNBZRlubtymsKeHbJCVAW8UxTlHNmcmpxHUAHc1Bo9XGQmAT3K72MVD5i7XAppJdBWJap1NSnBN6pFDfkWtdTTJ1Szl7YlC76G6WG2oU2LzbNzIvq4A8XRF2s9twy9GlVEtUwXS4xzlyroDPZCUwoIqGpfQx5mU5+dOzL1HG9Sx9oJibZlf5HXub3YlSueRcDjVd1Eb3trxap2M2AU57wLoxKm9zFYdai7k6xHaMAHiX0bw60tNkt9Oic0IGuEIIIYQYmqSPaB/xBF7WUsyJfd8XUKnj2A/XoFLvZEKWd6CPUVmrybA6cFZ4p0M50+FApX4fE9W0tWE0140vYezEqEaUCduJQ2WciS/hsiundJtuoPIXa9Vlu2hNLmbxHcEDyLh5AousAvK66TPqSefTx05br2NpwBQZYXM1yz10MPglSXVNnScgCle45QBXE15yPNvvasqXcIVznCPlLU9JUH/PSLkHIaKhjHKbQtm2884+JynTl3Nroc+2D+w0Bhy6eYXfPnXhIr90vSlv/h3LuDrZf6AjiF15lWqkbFcdKvs27i9N9yz3BOKbo6wdb67iUGvv+vIKIYQQYnCRGtE+dOLjJxg161HMM1/E3Tg29DyisaEaX6QaY/oX99ylWldzbOsv/AYI8nDVLioqOGG7g6TU0IMdxSx/7ds4srWZcXPuCOonGvK4xCh/gfMywiyWbJgF+PfvC+5/6U3X7dyLXaRTtu1sXG5nwfqFQf35fNO5+w7O3/A88wPy7pu/6tc2YF6+zNOU1pg7cgOHFi5jks864eQvPy+n69qpAwc5dHNOxM1zwy2HEYjlseSW51l7izFgzXvLjbJdHfbevMI9zpEKPN5dbW+Sqxy+3OV1B9nJAfNf2naUcWjaQib5TGmiVCPlG5biuH0j8332adQy+wxMFEF5lcr1Ox/dNZXuqbxhX/dVL7OCRay7xaeJtq71mzc2Uu5Rmq+eVsIsa0V0UxUJIYQQYlBR2dnZOj4+ns7OzoHOS5cGe/6EiJZnTsjWXWwK6DNoNJGNfg7O/jRcyjGcWEofY/E0Z68CwMHEd/7ULvvHCiGEEGLIkKa5QgwkV9/I1rqqoFoqp9PpHaBlsBsu5RCDllKV7NnnRGXf5t+kWQghhBBDkgSiQgykZjutBM/dqXURM6b5DE402A2XcohBzb7zcd6tD+5HK4QQQoihR/qICjGAlKrkzeU2SpYv8/S3c/OMQDsEmlUOl3KIwc/dl3VSwRjKbTKCrhBCCDFUSR9RIYQQQgghhBD9SprmCiGEEEIIIYToVxKICiGEEEIIIYToVxKIxkB8fPxAZ0EIIYQQQgghhgwJRIUQQgghhBBC9CsJRIUQQgghhBBC9CsJRIUQQgghhBBC9CsJRIUQQgghhBBC9CsJRIUQQgghhBBC9CsJRIUQQgghhBBC9KvzBjoDQgwWWseTO2sykxIVTZW7+Au53FRkRmsHFVtqOabUQGdxUNNjcripyOy3rKlyFx8el+PWV3SiiamTc0hL9B5jOeaxIfeD3rOUPsbinBo2rf8AuxwvIYQQAaRGVIiutP2DNq2h4x+0DXReXLSOJyMrh5LiKeQk6oHOzjlvIM+HTryU78/0D0JFHxqE94OBovWV3LThJRbPzug2ne1gDa3JxSy+Y3I/5UwIIcRQIjWiQgTQupP2Lp40fWtJ/Ja3d9J8pJ76Yx209emb/wtJn2gikZM09+FeoqGO1/Hu8bouj9HwNHDn46L0FJKUMmrodtdyrN19vM+F495/ursfiO4p23Y2vm1h3S23cWthBW9VybUphBDCS2pEhXBRqpP2Tp8FbZ10dpk6YN3EeNKKpjDrO+aeEwsRA0mJowFoP/K5TxAqYqU39wPhpape5t16TebN95CnpRWHEEIIL6kRFcLHsY/3cAwAhVJOPty6x/giRC2nuy+e1vGMzc5mSmY8WMeTk+igzhUYJI25lOyJ4zzNJ3V7J83N9XzY4H2kdfetbDu8n9/XX8jUWUZzS93u4HBFLXXtiqSsKZRkxvvsPZ5JxcVMcm+juZb3PnaGXc6MK2cwJVWh2z+jvPy//Wpx3d+1Hd5PWUNnyL6focoRjsB+d+6+jO7yBZbD6AM5nrTEeO9+j9Tz4fHoQoKezke4+Yv1+Qg3f30hnOvPN53fuiHyl3HlDCZbT3J4dz1kZTMp1ThObc217P/I4XetJY3JYcpEE0khas99j38k14HRZHkciZzk8O6PPfmPRiT3g3BpnU7J8mVc7dzMqtcro96OefYa7sk5yEtPNvO9p+4i05Wn1j1r2bTjWMA+r+SHPmkADr95N+/41FDq1LksebCAI8+spK5gLffOsLrWtfHhMyvZ3awwz17jWQ7AjJWsmuH9GGrfANVlu5iWVcy02WOo2dkYsjxaT2bcnDtI7Czj7+VbOS19SoUQYtiTQFSIXlKqk6P1n5E+MYdUn+V6TA4lAQ/uKjGetMQplCTWUhYiUBn7HW+fP5VoJnMmtG+pjXmftKMNn5NpHUdiQgpjkv6btnZXnrWJdKvRHLG5sYOumnm6y3FVR98NjOMOKJJ8HkjdNc8lCUaQHNH2ojgf/Smc/IU6JkmZU5if6dpGiBcLkejq+utqYJ6urgOl4plUPMUvbVJqLlOy/+E5b6HKG0qk14G7yTLEk5qeQF0fBvEDTZlKufdpI6hcU6VcweQKbrIt8gSZxrJrYe861riCRPPsNdy74BVuwj8YBQtTH3qFq+p+yZqHP0brDIofWcFVC2+k7sn3cexYxZod3sA2ee+6kIFnUD5t29nXUMy8nEIsO46HHrhozOVGU/P4fJKStnK6PRZHSAghxGAmgagQvWTUiI4nTSm0Pkl7G2hMTL3CZHzfXEv5Rw5OkOCpOU0MqDkFSEzNJjPByf5dtRzln5g6cxypjCYxCY417OfdBiNQnDo3h9Te1va0OWnuGEdSYjyJSYD7oS/DZJSjvYXjbYDy9v30lXHlFKakxpOaZobjfRPAjc0ygo+mw/s9NW5JruAlMdVEUn34/XG1Du981IYZ8bfF+HyEnb+oth6e7q4/2qO7Dpoq9/Ph8U5PDXJi4oXgauA6Ns0or6fmvYva6EivgxONLbRNHG302+3mZcpw4VuzqZq38Mf6a5kz60bMB97HzliKF17LJfW/Yq1PwOjYsYotppc86Rw+x0/X/ZK1r31sbE8do67OzlXTraQAjl7k0+l0QlYeuakfYLeFSHD8AG1X5JHYWU2b694jhBBieJNAVIgopRUVM7/If1n7kc+N2qMxroBOO6hwNUdUeGtO01RAAIhRy8Pheo61KxSf8uHWT93fxDzvSnVSe8TJpCKzXxDhDg6aj/x32E0o+4K7ZhYgzafGzyOgJrdHGWGej4EalCbM/Knjn1Lmui4Cm1B7RFkbGs71F8l10HZ4v6fp7ImOk0A8xMeTpB09vkCIT0gAOqO6DlS79xgN92hG64M0HMCvmC1OO2QbgaM97QompsAXdcFDadVWVzPn1gJy0t7H4fP1keqP/Dbo2LGKtTvoVXNkAJvdiVK5pFiAEIGoUhUc3Vbh/tCrfQkhhBgaJBAVIgba2h00H/mcusA+a0FTPfyD9g5ISwzehtYODtd39N9D2DEnTVeYSLWayNAOjmJ2Nct10HgMz7NocH/IfpAUT/d7NGqeI44zIjgfA2IA89fT9RfpddDZ0X1t5NEmJ1NSzX5Ni418+DQL76vroJ9p63UsfaCYFN9jm3Iba9ffZnyvHfzp2XWU2/qmIK22owz4QbLbadE5A5sHIYQQg4oEokJEybf5YJcSLsS/ou1CEhO6SNvP8xMq5aTRBmmpZtIzajmKq1au2enpE6i1ieyJxuisvjVvfR6cukYoTdSdXTd5jSZgj+R8DISBzF83119fXgdt7dpTw6rbHVRU+ExF01fXQT9Ttu0898h2wGewInaxaf0HPv0lY1OOFJMFWg7S4rMs2ToWqvz7clqs/TzCt8VCMk4O2ft3t0IIIQYvmb5FiL5wzEmT1ihlJvM7ZpK0DuhL6qp1jJJS8SSm9z5COdrwOW1ak5pmZmyaCa07OdwQuidYZ4fx36Qxl5KdOjqq/flOiWE0v3T19wsKZoyaQKXiyZz8T2Qk9nLahzDPR/j5CyxXL89HH18vsRSL60DreHInGtdbc8Vu3t1i/HtvV13AVDSRXwc68VJK5sxg3pwp5PT2uhlitM7AbAKczUa/z6a/cqQFLjGlBqV1B6x1TdHsqZkvuthuV6wWU7ffaz2ZsTdsIveG1ZjPsfMmhBDnKqkRFaIPKOWk/shJ0jLjSUrNpeTGXL/vPX1JI+ZtqunbZy7a6UI8gxal5jIF/AYpCtpf0ZSgPrG+3H0Wfbn70fqO5trWfhJS44OaZPry7cOqEsczpXg8vmOwBvWL7EEk5yOc/HnF5nz03fUSK+FfB5EwRtf1TnsD+E0bE811cC6Nmhso984VAueQfgAAIABJREFUXJVSzdYnPwKlUOoYu8qrmbrgRyye3ewZ4dY8ew1zsu18+Iz/QEXhUuoYDieQPZuZqR+xu7nnbZhMJmjdRW0zoSt/k1KJA5SyYJo0Bcf+iojzJYQQYmiRQFSIPtLWsJ+yDv/BXXS7g8Oh+pKGSalOaivqYPJ4JiX2vmmsUp0cbz7p2VZ7s9NvIBmlOqktryNxlndaj7bmzzjcBJlXjCOarosn6uvZn5jNFM/8kp+xvwGmzPTfnjpexzttTr/5I3sj3PMRbv4gtuejL66XWIn1deAOMFOvMPlNywLuaWNGg6spbqTXwbk0aq5SBcx9+hXmuj5r505eetg/uFRVL/AzlrB6gXfOT60PsvXhn1PXi5cbta+uw/zICqY+9ApTXcu6mkdUW69jWha07qsKPXULoNq34bCVMDb8SlYhhBBDnMrOztbx8fF0dg7et8aSPyGEGD680944qdjt7ROqE01MnWwEu2H1wT6HmWev4Z7pjl4HlP0h7/aNzMuq473lL1HTTV5HZa1mwkQLp4/8B580HO/HHAohhBgI0kdUCCFE/3JNVwOj/WpTL0qKJz7BGDm3faCm0hExpQsXMT9bcfjt7oNQrSdjnmBGd/yeY/WDpEO0EEKIPiVNc4UQQvQv19RBaSH6iALo5s9Cj5ArhhRtvY6lN+eg69/grarQ51PrMVhmPYo5QaGbX6V2f8WQGAlZCCFE70kgKoQQol8p5eQvu+uC+n3q9k6aj9RTf6wf59MVfcZakEdyw2ZWvV7ZZRqljuPYtZjQY3ULIYQYzqSPaAwM9vwJIYQQQgghxGAifUSFEEIIIYQQQvQrCUSFEEIIIYQQQvSrIRGIDvZmr4M9f0IIIYQQQggxmAyJQFQIIYQQQgghxPAhgagQQgghhBBCiH4lgagQQgghhBBCiH4lgagQQgghhBBCiH4lgagQQgghhBBCiH4lgagQQgghhBBCiH513kBnoDd04g1MnFFCHDUc2/oL2pTqOq2ezLg5d5Dkk6at8j6ONna9Tjjybt/INOcGntvZ6Flmnr2Ge6Y72Prwz6nrJk+xpguXsOpWMx8+s5Ldzd0ci9S5LHnwWpJdedPOnbz05Ps4+jGvg5Wl9DEW59Swaf0H2OV4CCGEEEII0SeGdCAaLncQmmh7jZr9FT7f9D4InZfl5E9lx3u9rf6kmrewadkWAHLueIk5pgHO0CBiO1hD67RiFt9hZ9XrlQOdHSGEEEIIIYalId00V7Vv45Nti6nd9mK3taGMuZxEHDgP7Y/ZvnXhIuZnKw6/vY5y29AJQs9lOvEhvppTx1dz6zg7RodMo2zb2fh2HSr7Nm4tDJ1GCCGEEEII0TtDOhAN1wWJZsDB6bbYbE/rIhbcnIOuf4O3qiQI7Q+W0sdY8+Qi8nTkwaHWk/i6uI4vJ8OII5/1mF5Vvcy79ZrMm++Jan9CCCGEEEKI7g3JprnuvqGj3H0cO37P38u3crqf+vRZZ5eQSR3vvVYB3e5zLDOXr2CqyZXPul+y9rWP/VIE9tcEOPzm3bwTIsDVhUtYvaDA+znE9rpaR+uDUfVZ1fpKfvjUXWT2kL9Q5TDWt/XYZ7UnebdvZH62omXv69REcY6/+c67fNM8n7iGQ3yTNT2sdarLdjEtq5hps8dQ49P/VwghhBBCCNF7QzIQNZrkbgMgacomMhKC0+j0+8gvyvdZYmHs3Be930cZvGqdTm6OCRrKug2KlCpg7tMFHH7zbtZUKVegdheLZzezaccx17au5IcL4f2HF3kGCjLPXsM9t65lpsM/eDPPXsO9M6x+QaAuXMIPCz8KGbS6v1+9oMAbsEZaVldwyd51rHHl2Tx7DfcueIWb8MlHQDqtMyh+ZAVXpdh7FYRqnU7J8mVck6I49OufRF37PPLjHEZGuI6ybWdfQzHzcgqx7DguAxcJIYQQQggRQ0MyEA2HanyRGldF1qis1Vw2wRE8sm40wUVqIZOSobXO1mNS36BRNW/hj/XXMifnCsy/PYpDKZT6mHfW++fD/tsdHJl+FxMLxrK72RWwps7lxukWWves9Qs6VdULvNPFIEnuILR1z1pP4BsJrTMoXngtl9T/irU+6zt2rGKL6SXmzLoR8wFjpF1LQQGXUM3W3x4FpVDqGLs2/46JD17LJWagOeLdG82f1y8kEyd/fGZg+uE6nU7IyiM39QPsPZ9uIYQQQgghRJjOiT6iMWWxkKIUrfbj3SbT+iANB/yXtTjtkGIlJdJdugK9P/72aHgrFPy4V0EoAGlXMDEFvnAGR5G11dWQUkBOWnSb7om2XsfS9QvJbN3FpuUDNxiUze5EKTMplgHZvRBCCCGEEMPWsK0R7UtaO2ixx2Zb7ia3gVp9/j/FZAEcYW1PKStTXdtrtR2lt9PKhLMN+8GDfDH9Wq75wVjq3E1zF15rBM8HIs9CfkkxKUqhky2YgBgd6sjZ7bTonIHauxBCCCGEEMOWBKJR8NSS9bK5Zsh+n67BgZJ90rU47ZAd3jbdgwM5Sl5mbkBfzmgkW8dClX+tqsVqDiiI1RikaMZKVs1w5cO5k5ceft/T9zUSNa8vpdrVNHfe+hWYnx2gWlGLhWScHBqwSFgIIYQQQojhSQLRSLlqyZItY4DwR1PVOoOcHAvU76BOKc9n7dzJH3qoNbTbHChVQNblUFcV3v5qX12H+ZEVXBVi4KOwNP2VIy3XcpUpFfAPRFNMFmj5HXVNoMmgeFZ+6BF8ezHAj1KVvLncZgxW9ODzpPRisKJoWS2mft2fEEIIIYQQ5wrpIxqp5ioOtUKyKbg5bXcsP7jbGEW27CMAlDqGw4lfX0udOpclAVOlAHBgO39xaibeupaZqd55LXXhEm4qDD3PpVLH2PXkOj5ssXDVg/7rhUOpY+wqr0bl/IjFszM8y82z1zAn286Hm993DbjkKkf2t8mJ8ZybSjVSvmEp79b//+zde3SU1b0//vcWMLHmQstkLiEXPeuUhGRyQ4NWqwUMOST94gGKFAUWoKIc+FbUn4RludmAdRl0tWilfpECXaC1XsAjX0lLEPhq64VUcpsEsKdVSJhbJpZckETR/ftj7pckzySTmUzyfq3FWszMfvbez34yM89n9k1i8t3P46GSlJDm3x+1Wg3Y6tEwgMWWiIiIiIiodyI7O1vGxcWhq6sr0nVRLDZrMyZlBF5BpvvsL/FpU7Nf+oCr5g6QtmQ9Vk0D3u9lyGigPTWltRI7n/Yequrc5sS1z6g04YNf7QIWb0CGYavfQkP6ZTsxT+9xvE8vpCxYjU33aLy2TPHcB9Q5BLi3eakA/BY48tu7NMB+pIH2GnXqbU/UYNnb3Io3ynYGvZeoTH0eVwoD7x/6bcdujKt6Flf57n+qm401DxcBJ7bhOe4jSkREREQUUlEZiEaaa2uRpv3Y9PvqSFcnopxBaEbrn/wCbf2ynfbe00HsJRopuUu3Y36WYUCBLxERERER9Y1DcwdAiGocO2GFyF6Ce3oZGjtqTEyGCkCb4W9+CxO1Ws0QQmffSzSKyIIVuCtb4MyrDEKJiIiIiIYCA9EBMlc+idcbJTIXbsBM3SgORi8YYQMwQX8jNB5zRKW8GT+a7rEYU5SQutlYs1AP2bgv7IsjERERERGNFhyaOwhSpqC4bC0mG0b3PELfua6u5wOtpDvMaUvWY5X6yKgfck1ERERENJQYiBIREREREVFYcWguERERERERhRUDUSIiIiIiIgqrqAhE4+LiIl0FIiIiIiIiCpGoCESJiIiIiIho5GAgSkRERERERGHFQJSIiIiIiIjCioEoERERERERhRUDUSIiIiIiIgorBqJEREREREQUVmMjXYHhQFuyHqumWfFG2U7UCxG2cmXBCmxZqMb7v96KKlPv5UrdbKx5uAhJjrrJ1irsqHgb5jDWlYiIiIiIKFQYiEYBYTqE59YdAgDkLt2O+eoIV4iIiIiIiGgQGIjSsCNTn8eVwul+z38rj2Psgf+NMR49wVLOxjfznoIUzjSfYey7/wtjOthbTEREREQ0XDEQpWGp14AyQBD6jelxxHxk7zH+NusQvilqhKzOxthmBqNERERERMMRA1EvqZi5di1uT3LMxWzch02/r/ZK4TtfEwBO/+FneKXGP+iRBSuw9e4c9+MA+fV2jJQNA5qzKmUhFlUsxuR+6hfoPOzHW/qdszpcfPuDp/BN526M+/BtV4AqGstwVfLruJLx/+Gq88/iKq/AdSqum7sMCV1H8Peqg+jmHFsiIiIioohgIOogRA7u2paD03/4GTbWCEegthgPlZjwXGULAEeQtxh4rewh10JB2pL1WLVwA2aavYM3bcl6rJ6u8QoCZcEKLCo4GTBodb6+9e4cd8AabBDqCC5xYhs2OuqsLVmP1Xc/j3vgUQ+fdFKmoLhsLW5TWaMmCJVyNqQOuOpspVewibRV+DYBgLwe0veg1ClIFAIyLg+JiQfR3RHGChMRERERkQsDUQ+eQaMwHcKJpiLM1xdAe7gZZiEgRDVe2QavANF0+AjOTFuMyfmpqDI5AlbdbCyYpkbr8QqvoFPUvIRX0HcQ2nq8whX4BkPKFBQvLoKqaT82eRxvrnwSr6u3Y37RndCesq+0q8vPhQoGvHG4GRACQrTgyP6jmPxwEZK0AExBllvm7kX2e32AK/xeJa7Ht0WN+Nbx2G9+aOL3IQGIzibA0abfZh3C1xmfY2z1cXx743VAIgDPYLP5FNpvzEVCVx3a212HERERERFRmDEQdZCyAYZT8ApOrFYrkKWFGoA5iLx8A71+5T+ArdMHHoQCAJILMFkF2Az+UWRdvQHzF+YiJ/ltmIMIMpUQogVV29agqu9EweXZ/DOMa3Y/lnIyvp35Oq7M+79ALwsRfXOzAVfidmPcgWch0n6Dq8T1kD6BqBAnce6tkwOqExERERERhQ4D0SA5h9z6avX4v1qtBmBVlJ8QGtzuyM9mbsZgu+mU5GGqrYdtWhGmlaai3jk0d3ERVDDgxKl+Dw87IU7jqqrHMWbeU7iSdSfGOBYmsrsTV+Y+BXn2LsR8dBoQAhKOxY7aI1VjIiIiIiLqCwPRIASc9+lYHEjlkc7ek6osT+fiQJbi53CXz1zOgVBpUwF496rqtD4bj2q19kWKppdhi2OXFNlahR1lwQ+hHaqhuf1q/zsEAFn4FER1NsZ5rJAr468D8DnA4bdERERERMMSA9FeSJmCHL0aaDqCeiFcj2VrFY7102toMlshRA70U4D6GmXl1e3dBk3ZWtwWYOEjRYw1OG0rwm1qHXwDUbVaDdiOosEISKSguEgfeAXfAQSLQzE0NyDHnNCrOv7HkeUhCNNT+CZuN8adh+t6SDkZMvl6wLTTa79R+2uOVXNhgfXYE7Bwr1EiIiIiooi4KtIVGK50pUvtq8gesc8pFKIFFisAVS5yku1ppG421vhslQIAOFWJ91olMhduwEyde+1WWbAC9xT4reXqyv9IxTa8b1Pjtoe9j1NCiBYcOWqAyF6Ch0pSXM9rS9ZjfpYV7+9/27HgkuM8svKRK4MrI1JkwqO4cse9+LZzN8Y0Nrmev6ppN66Kvxdf/+BOd9rsClyJ/wxjm972zygxGTEAhNBCPfmmMNSciIiIiIgCEdnZ2TIuLg5dXV2Rrkuvhrp+gfbUDDSk1HcYqn1Y7e+BxWsx2bDNb6Gh3KXbcVe2x/E+vZCyYAW2LFR7bZniuQ+ocwhwb/NSAfgtcOS3d2mA/UgD7TXq1NueqOH0bdYhfJN5vddzojobY5v96+UMUp09on6r6/pIvGkH0pMFpHEPGj4+GfK6ExERERFR/xiIjjLOIDTTdtQv0M5dut3eexole4kORGzWZkzK0KL77C/xaVNz/wcQEREREVHIcWjuaJOshQqAzVDjt4CQ1WqFEBr7XqIjkJRToZmkgez8M843no90dYiIiIiIRq1Rv1jRzHmrIl2FsJIyHgCgunk5/jPWhi+FcD2fdbMa8nIrLl23Cqj5bSSrGVJSpkI783Fo4j2G5HIfUSIiIiKiiOHQ3FGoty1XAq6kS0REREREFGIMRImIiIiIiCisOEeUiIiIiIiIwoqBKBEREREREYVVVASiHJZLREREREQ0ckRFIEpEREREREQjBwNRIiIiIiIiCisGokRERERERBRWDESJiIiIiIgorBiIEhERERERUVgxECUiIiIiIqKwGhvpCox0UqaguGwtbk8SkLIBb5TtRL0Qka4WERERERFRxERtICrlVFw3dxliPn0KnzY1R7o6vcpbtha3qQx4fa0jAGUQSkREREREoxyH5g4hKQuhzwJsJyrZC0pEREREROTAQDQMbObh22NLREREREQUblE3NDc2azMmZWjdT2T8HLkZ7ofdZ3/pGqorE+YgY0Ye2o89gfaUJ1zHSWmG9dgTsHQIyJSVyCvM8zrOs6zvT4IrLREREREREQ1e1AWi3U2/QH1TMHNENdDc8SLUxj2oP3gSUqZCO/NxqKfORXvVQVxufgeWzFyok29AbON5dDuG0Eo5FZpJGsC0l0EoERERERFRCI2KobnSuAcNH58EAAjRjHajBYjTIsbrcR4SEz0OSp2CRCHQceHjgRecrIVqUDUnIiIiIiIaeUZFIOobTHY3/QINb72Idkfv5+XGSnRAg8SUNFea8RNzITv/DMsgpnfq8nOhggGGUwPPg4iIiIiIaKSJuqG5Q0GIk7hoWoY0x/Dcy7gJ43VAz6efuIbqBkNbsh6rp2vQerwCm9a1cMsWIiIiIiIiD6OiR1SJixfq3cNzU6cgAfWwNJ4fUF7myiexsewhvIalKH96BXKlDG1liYiIiIiIolgUB6ImdHcBMfG60GTX/A6sXRqoJ9+E8RNzAdMp19DdAdewth426KGfEpoqEhERERERjQRRG4gK0YzuTgC6EmgSBt/j6Fy0SCQvR3ryIBcpcjKaYRt8LkRERERERCNK1AaiAHDxo6dg7bJvz5I797fInftbTMpKHXB+lxsr0S4lpKzDxUEsUkRERERERES9i+rFioRohuXoKlh6e73jLXz61lsAghti2/PpO4MelktERERERESBRXWPaKhdk10yqEWKiIiIiIiIqH8MRB1kykpMytCGuDfUhFYbkFl0J7RcOZeIiIiIiAgAILKzs2VcXBy6uroiXZeIiM3ajEkZWgBAe/VKnGsJ7ZBcKVNQXLYWtycJSNmAN8p2op7DfomIiIiIaBQb9YEoERERERERhReH5hIREREREVFYMRAlIiIiIiKisIqKQDQuLi7SVSAiIiIiIqIQiYpAlIiIiIiIiEYOBqJEREREREQUVmMjXQEiIiIiCp3CS5cw8euvkfzVVwCA6muvxZnYWHSOGRPhmhERuTEQJSIiIopyhZcuYcG//oUZHR2IkdL7xdZWdI4Zg7fGj8df4+LQIwSqr702MhUlInJgIEpEREQUpa7v6cE6sxk/dOwH3zlmDI7FxeGzq692pcno7sYdnZ1Y0taGJW1truf3TZiAHUlJ7CkloohgIEpEREQUheZcvIiNRiNipMSFcePwW7Uab40fHzDtxK+/RuGlS7i1qwuqK1eQ2d2NJW1t+GFXF1amp+PCuHFhrj0RjXZj1Gr1E1dffTW+cswjGI6Ge/18aUvWo2xFJtqqPoFFiH7TS91srNm4Gj+emar4GKWkLMSiinWYPs6Aj/+no9d0uUu346fJfaeh6CALVmDLIyUY2/ge/tkVur+loaT071RpuuEu0PtNU1qORx/IwhdHTsKq5HMjeR5Wb3oEs4rTFB+jlJQ346fPbMKPxtWh+u/tYcsv1OWOdNqS9SibOx6n/3oWXSG8/v2WGcT3W6go/Vxzfp/+r+JSzJhZgun5Y8PWPuG+HvfbbPi5yYSxAH6t0eDxlBQ0XnNNr+k7x4zBmdhYVCUk4L/Hj8d/jx+Pf+/pQd7ly1jwxRf4Vgic+s53hrzeREROXDWXkLt0O+ZnWXG6tjnSVYkaUhbinqe346GSlEhXJSxG2/kOJb7fqD9S3owF23ZiVWlan+lMtfWwqYqwatnUMNVs+BOmQ3hu3RpsLHsIrzfK/g8IoXBej8zubjxssaBHCKxMT8culQo9QQa/trFjsTI9HU9rtfjqqqvwsMWCF8+d859fSkQ0RDg0dxiwf3EecjwIbw+WLFiBu7IFTv9hK6pM0dF75iQLVmDr3TkBXzv9h5/hlZrIn4/Uzcaah4uQ5HFdh0vdhorzukhpwfu/jr6/q6EUyvebMB7AjrUHHA/C2TO1GpsX5UNKEz741Ua8a+T1jRRhOoTtr2qx9e4luKfg5Ij+XIkG4bwe68xmAECMlFhnNuP6734XlYmJsI0N/rZu34QJqExMxIvnzuGHXV3Yfv481qSlBR3YEhEFi4HoKCZlIRYt1EM27ovKGxhR8xI21gBSpqC4bC1uw1HsqHgbZiEARP58nAFZ6/EKbKxscT2fu3QDZppHboCWl6uHbKzC++oiTM5PRZWppf+DRoFof7855eTlQRoq8YF6FjLy0/Gu8XykqzSqiZqX8Hrudsxf+AByT+1EPYOHiArH9VjS1obCS5dgGzsWtrFjkdndjXVmM9aZzTgTG4u/xMXhb9dei7/ExSnO0zZ2LJZfdx32fP45ftjVhY1GIzZMnBjyuhMReWIgOqRSMXPtWtyeZP8iko37sOn31a5XfXvLZGuVRyDlpi1Zj1X6euyoMGNGxWJMFoHzA9xBmbNMp9YAtdOVFiMTBryx92TAHpXYrM34fnId/l5lhGbuMiQ6yzXuQcPHJ33KTYV25uPQxDvSSDOsx56ApcP+OPGmHUiLP4K/Vx1Et09ZUk7FdXOXIebTp/BpU+iHKw6m/Xx79bQl67F6usZ9wPQybJnufth6vALPVbbY8ynSQ7ZW4bXDzV7tW//7J+EbKNvnPrrrBvTec+rbExzoPHo7RsoGvFHmvjkK1fl6noc+Czjz6tto0ObiNn0BtIeb/f6mlf6dKklnfx/l4vSvt6Ihf4OrvoF6ZPs7X8/z8Lweg00H9P9+c0vHHWUbcKvakafhd9iy9yN3mcnzsPqRWVA5y7RWYufTb/rN19OUluMBfS12Pm3Ej565F5kicH72eqehaJ27TCebT82kvBlZ2cDZV96EQZePW/Q3QvPOOb+ylefXfzr7+ebj7K82wpC/BQ/O0DmOHdoe2d7az3ZsC3Yc9g6+7XNb3WkA4MzL9+M1j/evkvPQlJa7ngcAzNiITTPcDwOVDQB1R45iWlYRppWmor4yXD/89P39BgQ3IiSUn2tKKf3cDXQe9uMDv9+VXA/n915CV+Dvxd4UXrrkGpK7Ji0Ndddcg8zubix2LDqU2d2NzO5u3G+zv4vejY/H8YQEVCYm9tvD2TlmDFamp+ONf/wDcy5exJ8SE4MKZomIgsVAdIgIkYO7tuXg9B9+ho01wvFFthgPlZhcN+6eQ3Jzl27HfHUf+SXNxOptcOdXsMJv+I/zyxIntrl64JxftCqf/KRMQY5eDTQd6fPLW8T/BybNA9qrV6K+RUCmrERe4XKkp3yMcy3Om2/HF6ppL+qP2gPU2KzNmHTHi4itXolzLQI9nRZAp0UMgO4BtOdgKWo/R1tlNu3Hxm32GyBtyXqsfuR5JDluTsyVT2JjpUe7ntjmFYj5UWmhBmDuo26Brpu2ZD1W3/087oH3TZEzMPS8WZIFK7Coj2Fgrps1542dGMLznZJvD7ZOAabketim5SIn+W2YTX2fb6C/02D+ngE1bn/kedzWuA8by6rdveSL70SD48cdJefr1y6OG2EpC7Go7E5oPX4oUprO/rzC95vIx7xn83Hm5ftRXiMcwcu9WFVqdAUgnkNy9ct2Ym5fnxvqEjz4LNz5FazG5kX3YUHBh64gyRnY4vhWlDvKcAZWfu085QZkoA4HTwHmibVom54P/cQ3YTF6XDeF+QVVLrS49dFduMXwO5Q/9pErgL1l8U9gCBCEh4pf+yXPw+pHNmCBaUWf7acpLceDi3ZhAbyD0X7P4/AmlB/2aIfjWwMGnn71NB3CiaYizO/lh59QU/L9JmUhFi0GXit7yFUfbcl6rFroPyIklJ9rSin93PVN5/psUVl7/dFJ0fVInYJEISDj8pCYeBDdCtdeW2c2I0ZKbJg4EXWOhYnOxMa6ei8zu7uR++WXKPzyS8zo6MAdnZ24o7MTWy9cQPW11+K/x4/vMyi1jR2Lp7VabGtpwdYLFzD73/+dW7sQ0ZDhYkVDyPNL1f7FBKj0BdAOcCEAr19qT9XitJRQaVNdr+cVF0FlO2rvgetPcgEmqwCb1dRv0nZHMAkAaD6FdikRk+BeROOa7BIkoB7nP/rY9dzlxt2wdEokTLzJ/rjDAkCD2ET764k37UDOTY4FHRKTEQOgp2Noh/j1135ePVYOpsO/x3utEpm5wS0+IUQLjhw1OG7Ynkf50sKA6aRMQfHiIqia9nsFeObKJ/F6o0Rm0Z2uvxepm40F09RoPV7hdXMmal7q92at9XiFX+9CKM/XKS9XDzTV2oMtoxk2qDE5P9U7jcK/06D+nuHdgyJECxoMVtcPAUAQ55ushQrAmXp3OiGq8cq2Q943lErTAUG93zx70oTxAN5rBCbob4RmgJ8bXj1zpz7BGSmh0qW7Xs8pnoUJrX/Cm++c6zevnLw8oPETGIQALhhhgxYZ+eneaRTmF0y5gHdPrhDnYTCYgSQdkhQdPXCBrkfGzJ9AI6U9kFw8CxMad3sFjJbDm3DAIF3pwnEeVqsVUOUiJ3mQGSnU3/dboPeC6fARnPH5TAj155oSwXzu6vJzoYIBJxyfQ0K04Mj+o7BBjSRt72X0ez0c36XoqkO7wgWiCy9dQmZ3N87Exva6RcuZ2Fi89r3vYW1KCm7IysKatDS8Gx8P29ixKLx0CVsvXMAb//gHJn79da/lVCYmojIxEaorV/DiuXOI/+YbZRUkIgoSA9EhImUDDKe8n7N/MbkScuD/AAAgAElEQVRvjAebHwCo1M7hXfYhkTZDjbJfw7VaJAkBm7nvm3wp63AxQJKYeGe5qUhM1gCmU2j3KFeIZnR3AohPRqyUQIcZPa48p2K8DoBuChJdN2kWxb8ID0T/7efssar16rESogUWKwC1NugfEETNS9iwtgLvtUqI7CXYUvEcyp9ej5k6j3z6CFDq6g1eNzK+N0T9yn/AdbPm24s5FOfrGpbrCMyEqIbB5+ZU6d9p0H/P8A4IAftN5aZ1L6FeiODO12iGDcDku5/HPQV9tIHSdEAQ77daNPn8nbZaBx6oBMoPACaokx2v24fathn+1m+vomtYbt2HAAAhPkKTT5CsNL9gynVylutkObwJW9a+YA+Kh0i/12PijchIAtqsRr9jG+rqgKR86H2m2Q3VeZjMVgih6TM4CpVQfr+F8nNNsSA+dweqv+shxEmce2sVGo6+pXhYbma3fTzRf/cShAbybnw81qSlYVpGBhb927/hL3FxuL6nB7s/+6zPALNcp0PdNdcg7/JlvPGPf0B15YriMomIlOLQ3FFMSgta+xozqogOsXGAiF+O3LnLA5RhH457ud2IHhQjNgFAwhQkmI7AGl+M8anARWgRAwu62xHBNYZ0SFIBImkJtlQs8XtVyv6H2AYiRAuqtq1BFdxDvG5/5HlM9rmJsgcofZ+8Wq0GYFVYrga3O+ZKBs57CM53Sj4yYcX7HgfV1Rtw190zMWPK23ilJpjMQk35+QpRjZfLTPa5pHc/jy13B54LpjSdu4xQvN8iaMoNyIAZH1jcTzXU1WHeohL8aMqbeC2i1zeybKZziPgCaWYzWqU+snXw4TfH3MFzjndoP9eCoyQPU209bNPc8z1dvakw4MSpPg4fgutxa1cXAHuv50DUXXMNVqan4+V//hN5ly9jz+efY/l11wUcets5Zgzuvf56bL1wASXt7dh+/jzuvf56rqRLRCHFQHQUc/1a2/9owT6Y0N0FJHT6L2DkURAg7ekSE9JwDTTo6XwH7Z15UE+8Cdd0aoCuOlePaWSY0GoDMq19LJAxyC9gYTqE7WU19vlFjrlDzqa3DxH2/nVfp/XuW7BarUCWsrKcAZGl+DncFWCu6VCcb16uHkII3P7I87jd57XM3KlATfBD6EInuPP1+gHBMRf0dp+5pMGks6cNxfstcnLy8iCEwK2P7sKtPq9l5P0AqPko4HEjTZJaC7TWegVTKl06UOM9tUCr8w/AhpRWCxWsOD1MfuwIOO8zwBzv0H6uBUfJ565zNIPnQm2ytQo7yvwXFvQ9LpTXo6S9HT/s6sKFceNQ/53vDCqvlenp2PP558js7u4zGO0RAhsmToTqyhUUXrqE3Z99hgpHTykRUShwaG6Y9DY0MHTsN9rOoaZOutJirxUBXcxmtPrMkRwIvyG4/aSLib8BiclAe8t5XG6pQ0+8fX4oOo2KhycNheCHpAZu76AZa3C6l3zUajVgq0eDY9SffahXDvRTlGdft3ebfQ7kwg1eQ4JDfb7OobStxyuwsewhr3+vN0ogKx+5Uvaaj//faZB/z/0Y1BBrUY2Xy/b7zSkOKt0A329SpkGv17rnZYacEW2t7qG6Ttofl3qtAOscSms7tgXlj63w+nfAIIHsG6CXUnF+ytMFT8obcP2dzyD/zuX47gDn1faedxo0agBWo31I8YW/4WyA8wDcAavhwkBKCtw+ffELoHwMbbt4f785H8vWKhwLMDTcUyg/1xRT+LnrWv28cZ/XZ9qmQPPAffR/PaYifc4O5MzZDE1C/+ewuK0NALBh4sRB90p2jhmD5dddhzOxscjs7sYmU++/jvUIgYdSU/GXuDjkXb6Ml//5TzxssSAmxH9DRDQ6MRANE13pUvsqe0d66TUcJNfiLFnFri9m+7YlVpxuDfCF0ccXcbAunj6CnrhifP/mm/pM19NpgUj+D6jhWJyh3YieuGKkZ4RhUpMCdUeOwqYqwqpl/S/U4wpsPNrbk5SFuGftbL+gR1e6FLcnCdfcR9eiRtlL8FBJiiudtmQ95mdZ8f5+j1/dT1UGvPmSBSt6naMoRAuOVGzD+zY1bnvY+7hQnq9zWO7pWv95XnX1BteNptK/06D/nhVQer6yYIXXtQCcCx15n5/SdAAG/H7T/vh+3JJkxgdHPuw/8QC4FsvJLsUdyfZ2tW9bYsEZq0c7O4blnq31X1iooa4OQuQja4ry/BSXOxCpuRgvBITQQ5MV2n0Qc5ZvwC1JdTi4xzlP9jyOVtVB6O/DqlL3Am6a0nLMzTbjg/0DW9FXiPP295tH+/TH94crP0PYLr7fb67PC4+5llI3G2t8tkoBEPLPNSWUfu66P/ecP6Qp1+/1cCzSJ4QW6sl9f3fGSIl/++or9Agx6N5QJ2cwahs7FiXt7X3OAXVu67Jh4kR0jhmD+202VDSHfqs1Ihp9ODR3CDjnlNy17Xnc5Xgu0FAe//kzM7F620wA/vszKmGufBJvqLfjLsfQSNm4DxsrTCgu0/tth+C80b9tWjFm6k4GnNOmlOh4C2cPGnHd3GV+80S7z/7Sf29QR++nwElcNC1DYjLQ0xn8eEXffec826+3ver6PA/TIWwvM2NRxWK/eYSBrkfd3m3QlK31GorqTCdENV7ePxtrKp7z2ntOSgve+9XPvOca1ryEDViBrXd7DP0KsC+ecxioZan7GgPO1WL72hKkBUcq9iPJZ9hoKM83L1cP2I7ab7p8q3KqFqcX6l3Dc5X+nQbz96yE0vMVNS/htZL12FLhfm8GnCOqMB2g7P1mrq1F2/RZmPfsLsxz5metxM7HvIMZv70mUYIHny0B0Ps+k32xHN6Eg+qdmOcYcisNv0P500YUrctztXNOXh7Q+id7757f9f0EZ+7Jcw3PVZKf0nIHpPnPME/KhjZeIDZeB6C3SKB/9u10+r4eouYF/AKrsXmRe89PKWtx8LHfDKoXu2HPVmjWbfAaCt3b9ZW62ZiWBdhO9LG4V4jaRen3m+/nhf29sQ2nF6/FZI/8Qv25pvR7Vennbt3e/dBXLPY6X6de90RVcD1Ex1uwmIqRrqDT+z//9S/Ef/MNqq+9NqRzNDvHjMFnMTFQXbmCiV9/DdvYvm8J3xo/Hn+Ji8Oezz/HHZ2dWNLWhn0TJoSsPkQ0+ojs7GwZFxeHLsck+OFouNcvWnnugziQJfCJSDm+38LnmsnrkDlJjYufPIrPWgZ2464pLccD0y2DDijDIXfpdszPMvgFUb5C0S6jies9azuKHT57A9vbPPBeokqvR2zWZkzK0Ab+wdYh7/Jl7P7sMwDAvddfH/L5mausVqxqbcW+CRPwtFbZ6KTM7m68/M9/4qurrsLsf//3fgNYIqLecGjuKCZENY6dsEJkL+l/+wkiGhS+38JDyhug/X4SZOe76Ge3nBFBFqzAXdkCZ17tO+gZbe0SEo69ggNtI2W1Bt6eRfn1mArNJA1k559xvrH3UQzbz59HjJR4WqsdkkWCXvve99AjBBZ88UWfe4t6OhMbi30TJiD+m2+wzjxMVscioqjEn7FGOXPlk3hdvR3zF27ATHPgbSeIKDT4fhs6UiYj+Y5HoY0XuPzps6g9bRz0StfDndTNxpqF9sV0epuKEMp2mTlv1WCqG3WkjAcAqG5ejv+MteFLIVzPZ92shrzcikvXrQJqfmt/XtH1SIV25uPQxAtIo2O1+V6uR97ly1BduYIzsbF47XvfG4IzBGxjx+K1730PS9racGtnp+JyfqtWo6S9HSXt7TgWH4/KxMQhqR8RjWwMRMk1l2dyfiqqTAPcIJyIFOH7bWgIYYTp2GPRujvOgOjyc6HqZ6h3KNul6sCOEOQSXaoOpNj3Cv5Bktfz9jms3u2u7Ho0w3J0FSy9pnDLuHwZAPCnIQ7y6h09rdd/9ZXiY5xbu+z5/HOsM5tRfe21HKJLREHjHFEiIiKiYWaTyYQFX3yBNWlpeDc+fsjKmXPxIrZeuIC3xo/HhonBrajsrGMwc0yJiJw4R5SIiIhoGImREjM6OgBgSOaGhsqOpCTXHNO+toAhIgqEgSgRERHRMOIM7N6Njx/yIa/OANI4blzQxzrnmMZIiftstlBXjYhGuKgIRDksl4iIiEaLxW1tAOyLAg2lGCldZR1LSBhQHr9TqVy9ovHffBPK6hHRCBcVgSgRERHRaJDZ3Y2JX3+NM7GxOBMbO2TlxEiJjUajq+d1oGXZxo5FZWIiYqTE1C+/DHEtiWgkYyBKRERENEw49/P8LCZmyMooaW/H23//O+ZcvIgL48ahQqcbVH5/jYsDANx46VIoqkdEowTX2iYiIiIaJpzDW3uGaB/c+202PGyxbyDzl7g4bJg4cdDzUOu/8x0AQCEDUSIKAgNRIiIiolHgjs5O/JfVih4hUJaaGrJtYS6MG4cL48Yhs7sbMVIOWRBNRCMLA1EiIiKiEarw0iWUdHRgRkeHa4XcX2s0Id+b9ExsLCZ+/TVyv/wS1ddeG9K8iWhkYiBKRERENIIUXrqExW1tuKOz0+v5d+PjsX/ChCEJFP927bW4o7MTt3Z1MRAlIkWiMhCVshCLKhZjshCQrVXYUfE2zCN4GEhs1mZ8f5IF5w/+Fu1Bnmfu0u2YZt2G5ypbhqh2kSeT52H1I7MwAXU4+NhvYBjBfwuRNBLaWVuyHqv09SH/zJAyBcVla3F7koCUDXijbCfqo7B9iCjyOseMAQB8ddXA1pO8vqcHez7/3Ou5umuuwYaJE4d0AaS/xMVhHYA5Fy/i1xrNkJVDRCNHVK6aK0Q1Xlm3BhvW7sMZVRFWLZsa6Sr5kXIq0ufswKSs1IjVIXfpdszPsuJ0bXPE6jBcSHkzFmzbiVWlaZGuyrAy2trFVFsP2xB8ZuQtW4vbVAa8vvZn2LTuJQahRDRg/7z6agBA8ldfDej4z2JisCMpyatXMu/yZRz6n//By//8Jx62WPDDri4UXrqEGCkHXd/4b75B4aVLUF25gs9iYqC6coWLFhGRIlHZI+okRDWOnShG5rR85MqTvPnzIAtW4K5sgdN/2Ioqk3+7OHu3VB5tdubl+/FaTfS1oTAewI61BxwPhr7+gdrOKVrbUIlwt/NQEKZD2P6qFlvvXoJ7Ck7ilRBcKykLoc8CbCcq+RlERIP2WUwMeoRwBXcDWdF2h1rt+n9Jeztmtbcj7/Jl17/7bTav9D1CuFa+7U3yV1+5tpbpT0lHh+v/HKZLRL2J6kAUAExma6SrMOxIWYhFC/WQjfsC3mjLgtXYvCgftmNbUH74vOt5/bItuMOyEe8aeTOtROCgk2033Imal/B67nbMX/gAck+FbgitzdwMXn8iCoXXvvc9LGlrw0ajEfsnTHA93zlmDM7ExgaVV2ViIioTEwHYh+0WXrqEwi+/hOrKFaiuXMH1PT2IkTKkvZgLvvgCC774AgCwIynJKzAmInKK+kA0lGTKSuQV5rkfG/eg4eOT3mkS5iBjRjFiPW5e26tX4lyL/XFs1mZMytC6D8j4OXIz3A+7z/4SnzZ5D5VVUq5dGjRFj0MTL3rNCwB0pcXIhAFv7D3p13MlZRqKZuZBWivx5jvnvF437N0EAwKkX7cBt6qF47EJH/wqcLDqDHBdjw2/w5a9H7kea0rL8cB0i9f8Qilvxk+fuRcZjbtdae09jvk4+6uNMORvwYMzdAHL9u2ZlNZK7Hz6TVg8zklTWu46HgAwYyM2zXA/tB3bgh2Hz3sF5zs8gnN3vdHreQfiOi+Yvevcy/NK2s9+fP/XQ1Najgf0tdj5tBE/euZeZDraw/PclLYLoKydfc87s4+e9t7qF+h8lQrm7xQA6o4cxbSsIkwrTUX9CJ4/TUTRaUdSEmZ0dOCOzk6/BYd8KenN9HRh3Dh8dvXV+MwxBNhpwb/+5VpVdzCqr70WF8aNg3HcOADAf3/3u4POk4hGJgaiDs4A0jOolCkrcV3Kx+7HciqumwqcP/hf6BbuwPP7Nz4BTccTsHQIdDf9AvVNjrRzlyHm06cCBovBlAsAQuQhfV4e2qtXor5FOILXnyO9Y6VXOilTkKNXA01H+u7pSdIhCYCljzbxDBLLK+wBgqa0HA8+ugsTAgQXD87QeQUdsmA1flrw4QCHqmpx66O7cIvhdyh/7CNXoHHL4p/A4AiCPIeK6pftxNwAP7haDm9C+WH3uaiOb/ULNAEApw7hrzPzcIv+RmjeOecKsqS8GT+argUadwfVUyzER/jjr5Kx+pFZXnXOWR44CFXSfsFcD6EuwYPP2oPA8hrhCCY3YIFpBV6rEcrbBVDUzoA7YMXxra6edk1pOR5ctAsL0E/9ClZj86L7sGAAfy/BtIurfNMhnGgqwnx9AbSHm0f0YmdEFH06x4zBon/7N8y5eBE5X36JhG+/db0W/803yOzudj0OtjezcJB1OxMbi84xY2AbO9YVzFZfey2MV1+NC47gk4hIiRESiKqhSQZgGtjRMmEO0iZp0H32l97BX8uLOAfPYPAkzh2FVy/i5cZKdExahsSUNFj6CDgHU66TZ7CK5lNovzEXMQlpADzKTS7AZBVgMwRuDCHO42hVHW5dlI95z+7C3D56obQ/LkUG6nBwz4eucza/swt/1W/ALXk/AGrcPZg/ma6F7dgW72Cj5gW8Noihip49ZEKch8Fgxi3T+w+gB8Kdfz70E9+Exeh4YcoNyBQCZ+o+RLDDLoXxAF54RYfNi0rwoylv4o9YjXl6AduxXd49oQrbT+n1cPIMaoXxAN5rnIW5M38CzanAvZmDIWUaihbPwoTG3djiEdBaDm/CAfXOgOV69ZSe+gRn7smDSpcO1AQOiHsTbLs4Wa1WICsXOclvwzzAzw4AQLIWKgC2fhMSESlnGzsWu1Qqxel9A9TBGsgwYCKiYER/IHqqFmcWLsbk/FRUmQY2xO6alDzEoB7nG8+HdRGWYMqVsg4XA0xBi4nXwSsQ1WqRJARO9zFfTdS8gF+ccgxl1N+HTc/c5z/sVaZBr9cCjYe9tukQ4jwsVgDqZGikhEUIaPPz7Vt6+Az1HayzPsGf5fAmbDmMIbtG5ncO4+z0e5GRn453jfZgKCfPPoz5/52CX3NmLtqFTYvcjwMNBxU1L+BA3k7MW7QLm2EPrn17HpW0XzDXw56+Fk0+dW61moHsoQnkMfFGZCQBbQaj30sNdXWYe493gB+ofgAwQZ0MQHkgGmy7eDKZrRAiB0laDPhHLADQ5edCBQNOBDgfIqJw6RwzhgsDEVFUifpA1L6VSzW0JeuxpUKD1uMVQe+ZGROvgdJbc785oA4D+Q0ymHKDIaUFrea+0whxHu9WPIB34R5Seeuju5DhmhuYjAlJgFDbA1X/MtwBTZJaOyTnEW5CfISmxnsx1zE814wfICsbaDv+t4CBjNLFihr27EaWc17oEf+eVWXtp/x6RJLNdA7hjcYG0S5mM1qlfsAla0vWY/V0+2fOpnUtUbuSMBEREVEkRH0gKnWzsebhIuDENmwsG1iPaE+nBdD1ny7gfE7nXNAhLDdYQmiC6uURxgN44bG/2edguoIwI9paAWntYwEZx423vactNHWPNM/eO7PmBvuQz0H29OYsvxcZrXU4izyv+aJOytpP+fXoTZJaC7TWojW46gcl0NBarW4oNzYfRLtotVDBitP9/GjTG3Plk9hYaQ9Iy5+24o2y0K3AS0RERDTSXRXpCgyaVmsfFnc4uPmZni53WCBEHsan9p5GylQkJmsgO/8Mi6KiTOjucg6dHXi5QTOb0SolVNrBZeo7tLHPIk0WCJGPrCkDKGhiMpTPgBkMe8BiH/rZh1OH8EGrFrcU/wA5eXlA4ydeQz6DpSktx9xsMz7Y/xv8cf+f0JY0Cz/5cbpXGiXtF8z1CETKNGjUAKxGn95dhe3Snwt/w9le8nEGwIYLgysikMG0i04bmu0ETLX1sEEP/UD+/omIiIhGqegPREOh+R1YOiUSbnwCmgT3zaxMWYn0FPtjIZrR3QkgLg+O7bjsW7nMXYbEAIGKK72uxCvPYMsNmrEGp22ASh04AJbyZiwom+d306798f24VS3QZnAPQ204Yg+cHlj+g77LPHUIf7VKZNyzBXcke5xHwWosKHA/NtfWog15roDLd1uQoeQKWLJLveoYKJ3BYIbQ34d5euGYpzowzkWI0HgY7xrtq/y+edwM1YyNXu2itP0UX48AcpZvwC1JjgV9PChtl/44F8ES+vuwqjTN9bw7EA/9AklOA20XtVoN2OrR4D+tNThGMxcqIiIiIgqSyM7OlnFxcejq6op0XQZEFqzAloUIybC4xJt2ID3ZYzVTn/08pUyFdqZ7H08pzbAe2w1MfRyJRv9tWnzTA4H3/uyv3Niszfj+JAvOH/wt2oX3kOAE016/PUe1Jeuxahrw/q+3osoUYK/HAAFgb/suBtoXEkDA/Tb1y3Zint4jzwAr8nruXyllLQ4+dgiadRtwi9V3H9FZsL2yos+tPPz2wuynfr57TfaezrnXZ53Xnqeu1/sIoJ3zRp1pJvjk4dmevnNMlbSfkusRqF363vuz73YJpp399kKVtX5tqHQ/2WAE83cKeA/pD3ZOuX/ZhVhUsRh49SG8MqCtioiIiIhGHwaiI5DzxjizaT82/b460tWJOkr21hzOAgV65C136XbMzzKE5HODgSgRERFR8KJ+aG6o5nmNJEJU49gJK0T2EtxTMPDhlqOVc1/K9945F+mq0BCQBStwV7bAmVf54xURERFRpER1ICplCnL0aqCpljeUPsyVT+L1RonMhRswU8dgVClZsBoPztCh7fgh9iaOQFI3G2sW6iEb94Ww99KEVhuQWXQntANYSIqIiIhoNIrK7VucQ+EmCwHZWoUde09yD78A6vZug6ZsLSbnp6LKNLh5cCOd5zzIwPuD0kigy8+FKsRD1oVowZGKbUDZWqzeNhNSNnCqABEREVE/on6OKBEREREREUWXqB6aS0RERERERNGHgSgRERERERGFVVQEonFxcZGuAhEREREREYVIVASiRERERERENHIwECUiIiIiIqKwYiBKREREREREYcVAlIiIiIiIiMKKgSgRERERERGFFQNRIiIiIiIiCquxka7AaCZ1s7Hm4SIkCWF/3FqFHRVvw+x4PBzlLt2OadZteK6yxet5bcl6rNLXD/v6ExERERFR5LFHNIKE6RCeW7cGG8sewuuNMtLV6Vfu0u2Yn2XF6dpmv9dMtfWwqYqwatnUCNSMiIiIiIiiCQNRUkQWrMBd2QJnXt2KKpN/j6cwHcL2Vw0Q2UtwT8HwD6qJiIiIiChyGIhSv6QsxKKFesjGfXilpvdht6LmJbzeKJG58AHkSgajREREREQUGOeIDiFZsAJb785xP27ch02/rx5YXrIQiyoWY7LH/MvTf/iZX2Dom05KC97/tX8vppQpKC5bi9uT+k4HALrSYmTCgDf2ngT6mf9Zd+QopmUVYVppKup95pG6y56K6+YuQ0LXEfy96iC6OaeUiIiIiGhUYSA6RLQl67F6usYrWJQFK7Co4GSfvYqBOBc1wolt2OgI7rQl67H67udxDzzydwShmU37sdER8EpZiEVld0LrsYiQV7pt1e78HnkeST7BrZQpyNGrgaYjqFcQMArTIZxoKsJ8fQG0h5sDL1yUOgWJQkDG5SEx8SC6O4JqDiIiIiIiinIcmjsEpG42FkxTo/V4hVdQJ2peCj4IlSkoXlwEVdN+r5VqzZVP2ofBFt0JrXMYbLIWKgBn6k+6yxTVeGXbIa+A0KuH08F0+Pd4r1UiM9dnsaHkAkxWATarSXGdrVYroMpFTnIvCZpPoV1KoKsO7e2KsyUiIiIiohGCgegQ0OXnQgUDThz2X102aH0EgnX1Bu+Az2iGDcDku5/vdcEgdw9nrVcPpxAtsFgBqLXuwBYAtFokCQGbWfm5mMxWCKFBkjbw60KcxLm3VqHh6FsclktERERENApxaO4QUKvVAKwhzdMeCPYdtAlRjZfLTPa5n3c/jy13B5r7qUOSChBJS7ClYolfHlJqoQZg9nrOglazX9Lemc1olfogDiAiIiIiotGEgegQsFqtQFZo81RpUwF4L/6j06r90gnRgqpta1AF91zQ273mfprQagMyrX0snOTTS+nq3VQ6OlerhQpWnA4meCUiIiIiolGDQ3OHgH1oag70U0KQmbEGp22ASq3ze0mtVgO2ejQYAx9q7yHdj9NSOgLZPobg9sZsRqvH8UoECpA9STkV6XN2IGfOZmgSuM0LEREREdFow0B0KJyqtC/8s3ADZurcgZYsWNHr3M3eCNGCI0cNENlL8FBJiut5bcl6zM+y4v39HqvhFqzwSgM4Fyay4nSte45n3ZGjsKmKsGqZz8JEgfQRCPemvwAZicmIASCEFurJNynOl4iIiIiIRgaRnZ0t4+Li0NXVFem69Gq41683uUu3465sj61QfPYRdW7xEkjr8QqvVXL99iSVDXijbKffliq+efa+j6j/vqSBynXmuWoaet1n1Ctfj61mfPPxlHjTDqQnC0jjHjR8fLLXdERERERENPIwEKV+ee472uu8UofcpdsxP8sQMEj2FJu1GZMytOg++0t82hSC1YWJiIiIiChqcGgu9UuIahw7YYXIXtLn0GJZsAJ3ZQucebXvIFTKqdBM0kB2/hnnG88PRZWJiIiIiGgYYyBKipgrn8Trjf7zXp2kbjbWLNRDNu5zrM7rT8pUaIp2IG/eciSY9nIfUSIiIiKiUYrbt5BidXu3QVO2FpPzU1Fl8tlKJj8Xqn6G7grRDMvRVbAMdUWJiIiIiGhY4xxRIiIiIiIiCisOzSUiIiIiIqKwYiBKREREREREYcVAlIiIiIiIiMKKgSgRERERERGFFQNRIiIiIiIiCisGokRERERERBRWDESJiIiIiIgorBiIEhERERERUVgxECUiIiIiIqKwYiAaQbFZm5EzZyUSpYx0VYiIiIiIiMKGgegQkWd6j+kAABx8SURBVHIq0ufswKSs1EhXhYiIiIiIaFhhIEpERERERERhxUCUiIiIiIiIwmpspCsw0sRmbcakDK37iYyfIzfD/bD77C/xaVOzz1Fp0BQ9Dk28CJhGJsxBxow8tB97Au0pT7jyl9IM67EnYOkQ7rRyKq6buwyJwv1ce/VKnGuxP068aQfS4o/g71UH0e2RxvPYmE+fClDHvkmZhqJ1G3CrWjgem/DBrzbiXaMIkNZeTkJX4HoQEREREdHIxkA0xLqbfoH6JuVBnRB5SJ+Xh/bqlahvEZApK5FX+HOkd7iDRzsNNHe8CLVxD+oPnoSUqdDOfBzqqXPR7gjm7AFrMfDpU6h3lBmbtRmTCl9EOuz59XRaAJ0WMQC6Q3TOUt6Mnz5zLzIad6O84iN7bUvL8eCjuzDh5fvxWo1PoJk6BYlCQMblITHxILo7QlQRIiIiIiKKChyaOwx49lii+RTapURMQppfOmncg4aPTwIAhGhGu9ECxNmDSilToZ1ajBjTXq/At7vpFzhnlEjInItYKXG5wwJAg9hE++uJN+1Azk1THQ+SEQOgp+N8UPXX/rgUGajDwT0fup4zv7MLf7VKZOT9wP8Axzmiqw7t7UEVRUREREREIwB7RCNMyjpcbAbg02kYE68D4N2T2nHhY6+E3U2/QEMTACGAhBuQGAf0GE1+ZVy8UI+0G+29j5c7zOiBxlH2VIzXAcAUJMqPcREAYAmqh1LKNOj1WqDxMAweQ2yFOA+LFYA6GRopYfF67STOvXXS+UB5YURERERENCIwEB1h7L2ZfQR37Ub0oBixCQASpiDBdATW+GKMTwUuQosYWNDd3ncW3pIxIQkQ6vuw6Zn7/F6VUockAJagz4SIiIiIiEYqBqIjjH1Ir3dP6jUJGo9HJnR3AYkJabgGGvR0voP2zjyoJ96Eazo1QFcdeoIq0Yi2VkBaf4ctez8KnIS9nkRERERE5IFzRIeMPeCzD7ENg/ZP0N5LeTHxGtd8TCGa0d0JxMTfgMRkoL3lPC631KEn3j4/FJ3GoFax9R2Cq4SUU5E+Zwdy5myGJkHZMURERERENHIwEB0izoAPupKwBFtCNMN8ph4ieTkmZaW6no/N2ow0nQXWk+5tUno6LRDJ/wE1HIsFtRvRE1eMdM9tZ4LQcORPaEuahQeWB1iYKBDHokhCaKGefNOAyiQiIiIioujFoblD6OJHTyF25uPQ3PEinINjA+8jGhqi5UXUwb79i3PvUinrcP7gb9EeqJfT0fspcBIXTcuQmAz0dPovdtRvucYDeOExI376zL1+80Rtx7Zgx2HvVXhFx1uwmIqRnhx0UURERERENAKI7OxsGRcXh66urkjXpVfDvX4UvNiszZiUoR3SwJyIiIiIiIYnDs2lsJNyKjSTNJCdf8b5xuD2LCUiIiIioujHobkUNlKmQjvzcWjiBaRxDxo+PskVdYmIiIiIRiEGohQ2QjTDcnQV9xQlIiIiIhrlODSXiIiIiIiIwoqBKBEREREREYUVA1EiIiIiIiIKq6gIRLl1CxERERER0cgRFYEoERERERERjRwMRImIiIiIiCisGIgSERERERFRWDEQJSIiIiIiorBiIEpERERERERhxUCUiIiIiIiIwmqMWq1+4uqrr8ZXX30V6booJmUhFlWsw4LiUkzPH4vTfz2LLiEiXa0hE5u1GZNvnYye09XoCfI8c5dux0+TDfj4fzqGqHajl0yeh9WbHsGs4jR8ceQkrFH4N6gtWY+yueND/h6SMgXFZVuwfE4ppheloK3qE1iisH2IiIiIaGhEZY+oENV4Zd0abFi7D2dURVi1bGqkq+RHyqlIn7MDk7JSI1aH3KXbMT/LitO1zRGrQ7SR8mYs2LYTq0rTIl2VsDDV1sM2BO+hvGVrcZvKgNfX/gyb1r2EegahRERERORhbKQrMBhCVOPYiWJkTstHrjzJm10PsmAF7soWOP2HragyCZ/XVmPzovyAx515+X68VuNOL+XN+Okz9yLTo2390iTPw+pHZkEVoP19044kwngAO9YecDyIznMUpkPY/qoWW+9egnsKTuKVEFwrKQuhzwJsJyr5niQiIiKigKI6EAUAk9ka6SoMO1IWYtFCPWTjvoCBhah5AeU1gJRpKFq3AbfgT9j59JuOoZMeAaYjYLUd24Lyw+c9ntuFVbot2OF4zilw0MlAZLgTNS/h9dztmL/wAeSe2hmy4NFmbgavPxEREREFEvWBaCjJlJXIK8xzPzbuQcPHJ73TJMxBxoxixHrcrLdXr8S5Fvvj2KzNmJShdR+Q8XPkZrgfdp/9JT5t8h4qq6RcuzRoih6HJl70mhcA6EqLkQkD3th7csA9dVKmoWhmHqThd14Bp6h5Af9HV44Hps+G/p3fwKAwf2fPagbM+OBXG/GuUfT5PODfcysNv8OWvR/513PdBtyqduZn8stHU1qOB/S12Pm0ET/y6N21HXMH05rScjw4Q+fOeMZGbJrhfuiZ1rcHWForPQL5wOfdV49yb/ULdL5KKWkXT3VHjmJaVhGmlaaivrJlQGUSERERESnFQNTBGUB6BpUyZSWuS/nY/VhOxXVTgfMH/wvdwh14fv/GJ6DpeAKWDoHupl+gvsmRdu4yxHz6VMBgMZhyAUCIPKTPy0N79UrUtwhH8PpzpHes9EonZQpy9Gqg6cjgerYm3oiMJOBs1Yfw7dUy19aibfosZE0BDDXKshPiI/zxV8lY/cgs3LL4JzA4Arec5YGDUGdg6Bm0yYLV+GnBh+7HziC2cTfKKz5yH/foLkzwCfaEugQPPmsPAstrhCOY3IAFphV4rUbAcngTyg+781Qd3+rX4+vKy2NIrn7ZTsxVBz5nZ8CK41tdPcqa0nI8uGgXFqCf+hWsxuZF92GBx/kqFUy7uMo3HcKJpiLM1xdAe7gZZg6pJSIiIqIhFJWLFflTQ5M88KNlwhykTdKg++wvvYO/lhd9gsGTOHf0LVcQCgCXGyvRAQ0SU4Jf3EZpuU6ewSqaT6FdSsQk+JSbXIDJKsBmNQVdH0/a/HxMgBltlgAvXjDCBkClSw8qT2E8gBdeqYNQl+BHU+yB5Ty9QNvxXd49ocnz8JPpWtiObfEO1mpe8Hqs/XEpMlCHg3s+dD1nfmcX/mqVyMj7gV/5nkGtMB7Ae41AxsyfQCNlUOehhJRpKFo8CxMad3sFtJbDm3DAIAOW69VTeuoTnJEy6DYGgm8XJ6vVCqhykTOI9xIAIFkL1SCzICIiIqKRLfoD0VO1OAM1JucPfHXaa1LyEIN6WBoD94ANlWDKlbIOFwN0rMbE67yf0GqRJIRjft5gWWC5oDx15qJd2PTMS65/G7eV445k72BL1LyAAwaJzEW7sHlRvt/QX8AZBNfhvXfO9VqWlGnQ67VA4ydew4OFOA+LFYA62SvQk7IWTae882i1moEkHZKUn6Jyjh7lNqvR76WGujogKR/6ie7nAtUPACaog4sKg20XTyazFUJokKQN+LJiuvxcqGCAIcD5EBEREREBI2Born0rl2poS9ZjS4UGrccr8FyQc9xi4jUAAnX9+fObA+rQHVSJwZcbDCktaDWHIicNNBMBg38sFZDSxYoa9uxGlnNe6BH/ob9Jai36b5dkTEgChPo+bHrmPr9XpbQHmKFv3eDYTOcQ3gV7BtEuZjNapX7AJWtL1mP1dPt7cNO6lqhdSZiIiIiIhl7UB6JSNxtrHi4CTmzDxrKBLbLS02kBdP2nCzif0zkXdAjLDZarV2sQo3PNJguEyMcEDQDfQHRiMlQYeJCVs/xeZLTW4SzyvOaLOrVazUB2f7kY0dYKSGsfC/r0EwglqbVAay1ag6t+UFS6dKDGp8dXpxnCEgfRLlotVLDi9AB/xDBXPomNlfaAtPxpK94oC90KvEREREQ0skT/0FytFioYcOLwwIeiXu6wQIg8jO9jdK+UqUhM1kB2/hkWRUWZ0N0VYOhskOUGzWxGq5RQaQeZqWOOYqA5hTnFszABdQGHkvZHU1qOudlmfLD/N/jj/j+hLWkWfvJj73mQziA4a0rv+SgZatoXKdOgUQOwGn1Wu7UHcsEOifVz4W8420s+zgDYEMSwZ6UG0y46bS+rLgXJVFsPG/TQ93H9iIiIiGh0i/5ANBSa34GlUyLhxiegSfCYV5iyEukp9sdCNKO7E0BcHhITHa8nzEHG3GVIDNDr40qvK/HKM9hyg2aswWkboFIPrqtViI/w/46bIfT3YUGBuy6a0nLM0wucfUX51i1OzkWI0HgY7xoFhPEA3jxuhmrGRq8ycOqQfWGde7Z4zTGVBau90jUcsQeyDyzvfQGe3uQs34BbkrwX9AE8ArnsUr/5rcEQ4jyOVtVB6O/DqlL3glLuQDzwdi+hMNB2UavVgK0eDQqHYvfKaIZtkFkQERER0cgmsrOzZVxcHLq6uiJdlwGRBSuwZSFCMgww8aYdSE/2WL3VZz9PKVOhnenex1NKM6zHdgNTH0ei0X+bFt/0QOC9P/srNzZrM74/yYLzB3+LduE9JDjBtNdvz1FtyXqsmga8/+utqDIF2NvSZ39OT77zPP328gywH6XvvpqB8nOmmYA6HHzMHcR67rPpW7Z+2U7M03uUE3AfUf99OoF+9ghFf3t/eu/BqSS/QOmAQO1X63X+zvwemG4J2C4ZjbsHtJeoknbxSu8xxD3YOdb+ZRdiUcVi4NWH8EqQW88QERER0ejAQHQEcgYCmU37sen31ZGuTsQFCvTIW+7S7ZifZQjJ+4iBKBERERH1J+qH5oZqXttIIkQ1jp2wQmQvwT0Fod8jk0YWWbACd2ULnHmVP+YQERERUXhEdSAqZQpy9GqgqZY30D7MlU/i9UaJzIUbMFPHYJQCk7rZWLNQD9m4L4S9lya02oDMojuhHcBCUkREREQ08kXl9i3OoX+ThYBsrcKOvSe5Z2EAdXu3QVO2FpP///buNTbP8rwD+P+ZkJJKTlypjv06y6GfcrBzpEvYNKmia8gWJiqo6AoNCNqODoFWumlNRSmkLT1ITqUN0DK0bgNU2lVrNVBRYU0YRKu2lUSDxDlA6SdI6lNSCSeWmnx69sEOtuND7DZ+nNf5/b4973u/93PZ3/66r/u+NyzN3u7fbt8fc1PrhnVpusQt3EVxIns6diU7Pp97d12XsjysdR4AgFHqfo8oAAAA9aWuW3MBAACoP4IoAAAAlaqLINrQ0DDbJQAAAHCJ1EUQBQAAYO4QRAEAAKiUIAoAAEClBFEAAAAqJYgCAABQKUEUAACASl012wVcycrWG3Lf57ZkUVEMPp/cm90dP0rP0PPlaN0dj+Tavl159IUToz6vbXsg96zpvOzrBwAAZp8V0VlUdD+XR79wXx7c8dn84Gg52+Vc1Lo7HsnNbX15/eDxMd91H+zMqaYtuefOzbNQGQAAUE8EUaak3HhXPtZe5I3vfy17u8eueBbdz+WR7x9J0X57PrHx8g/VAADA7BFEuaiy3JTtt6xJefQ7+d5rE7fdFq99Oz84WmbVLZ/JulIYBQAAxmeP6AwqN96Vr926dvj56Hfy0FMHfrO5yk3Z3nFbVo/Yf/n6v/7lmGB44biy7M1P/27sKmZZLsnWHZ/PBxdNPi5JWq/fmlU5kh8+uT+5yP7PQ3tezLVtW3Lt9UvTecE+0uF3b877b7ozCwf25Bd7n8lZe0oBAOCKIojOkNq2B3Lvh1pGhcVy413ZvnH/pKuK4zl/qFH27cqDQ+Gutu2B3HvrY/lERsw/FEJXHXs6Dw4F3rLclO07PpLaiEOERo3bdWB4vr96LIsuCLdluSRr1zQnx/akcwqBseh+LvuObcnNazam9vzx8Q8uWnp1GosiZcP6NDY+k7Onp/XvAAAA6pzW3BlQtt6QP7u2OSdf7hgV6orXvj39EFouydbbtqTp2NOjTqrteeHrg22wWz6S2vk22MW1NCV5o3P/8DuLA/nerudGBcJRK5xDup9/Kv91ssyqdRccNrR4Y1Y3Jaf6uqdcc19fX9K0LmsXTzDg+KvpL8tk4FD6+6c8LQAAMEcIojOgdcO6NOVI9j0/9nTZaZskCB7qPDI68HX15FSS1bc+NuGBQcMrnAdHrXAWxYn09iVprg0H2ySp1bKoKHKqZ+p/S3dPX4qiJYtq439fFPvz1rP35PCLz2rLBQCAK5DW3BnQ3NycpO+SzjkYBCcPbUVxIN/d0T249/PWx/LwrePt/WzNoqakWHR7Hu64fcwcZVlLc5KeUZ/15mTPmKET6+nJyXLNNH4AAABcSQTRGdDX15e0Xdo5m2pLk4w+/Ke11jxmXFGcyN5d92VvhveCfnDU3s/unDyVrOqb5OCkC1Yp313dnGp3bq2WpvTl9emEVwAA4IqhNXcGDLamrs2aqy/BZF2v5fVTSVNz65ivmpubk1OdOdw1/k8HV0ifzutlORRkJ2nBnUhPT06O+P1UjBeQRyrLzVl+4+6svXFnWha65gUAAK40guhMePWFwYN/bvlSrmsdDlrlxrsm3Ls5kaI4kT0vHknRfns+u23Ju5/Xtj2Qm9v68tOnR5yGu/GuUWOS8wcT9eX1g8N7PA/teTGnmrbknjsvOJhoPJME4YlcLCCncXHmJSmKWppXXzPleQEAgLmhaG9vLxsaGjIwMDDbtUzocq9vIuvueCQfax9xFcoF94iev+JlPCdf7hh1Su6YO0nLw/nhjn8cc6XKhXNOfI/o2HtJx3vv+TnvuTYT3jM6at4RV81cOM9IjdfszvLFRcquJ3L4lf0TjgMAAOYeQZSLGnnv6IT7Soesu+OR3Nx2ZNyQPNL8tp1ZsbKWsz//Rt48dglOFwYAAOqG1lwuqigO5KV9fSnab5+0tbjceFc+1l7kje9PHkLLcnNaVrSkPPOTvH307ZkoGQAAuIwJokxJzwtfzw+Ojt33el7ZekPuu2VNyqPfGTqdd6yyXJqWLbuz/qOfzMLuJ90jCgAAVyjXtzBlh57clZYdn8/qDUuzt/uCq2Q2rEvTRVp3i+J4el+8J70zXSgAAHBZs0cUAACASmnNBQAAoFKCKAAAAJUSRAEAAKiUIAoAAEClBFEAAAAqJYgCAABQKUEUAACASgmiAAAAVEoQBQAAoFKC6Cya37Yza2+8O41lOdulAAAAVEYQnSFluTnLb9ydFW1LZ7sUAACAy4ogCgAAQKUEUQAAACp11WwXMNfMb9uZFStrwx+s/GLWrRx+PPvzb+TNY8cv+NWytGy5Py0LinHHlAtvzMo/Wp/+l76c/iVffnf+suxJ30tfTu/pYnhsuTnvv+nONBbDn/UfuDtvnRh8brxmd5Yt2JNf7H0mZ0eMGfnbeW9+c5waJ1eWy7LlC1/KHzYXQ8/d+Z+/fTD/2VWMM3bwPQsHxq8DAACY2wTRS+zssa+k89jUQ11RrM/yj65P/4G703miSLnk7qzf9MUsPz0cHge1pOXDj6e564l0PrM/Zbk0tevuT/Pmm9I/FOYGA+vW5M1vpnPonfPbdmbFpsezPIPznTvTm7TWMi/J2Uv0N5fl7+fj3/pUVh79l3y142eD1V7/1fzFX/9T3vfdP8+/vXZB0Fx6dRqLImXD+jQ2PpOzpy9RIQAAQF3QmnsZGLlimeOvpr8sM2/hsjHjyq4ncviV/UmSojie/q7epGEwVJbl0tQ2b8287idHBd+zx76St7rKLFx1U+aXZX59ujdJS+Y3Dn7feM3urL1m89DD4sxLcu7029Oqv/an12dlDuWZJ/733c96fvxP+e++MivX/8HYHwz9jRk4lP7+ab0KAACYA6yIzrKyPJR3jie5YNFw3oLWJKNXUk//8pVRA88e+0oOH0tSFMnCD6SxITnX1T3mHe/8sjPLfm9w9fHXp3tyLi1D796c97YmydVpLF/JO0mS3mmtUJblsqxZU0uOPp8jI1psi+Lt9PYlaV6clrJM76jv9uetZ/eff5j6ywAAgDlBEJ1jBlczJwl3/V05l62ZvzDJwquzsHtP+hZszXuXJu+klnnpzdn+yacYbXHetygpmj+dh7716THflmVrFiXpnfZfAgAAzFWC6Bwz2NI7eiX1PQtbRjx15+xA0rhwWd6Tlpw78+P0n1mf5t+9Ju8505IMHMq5ab2xK786mZR9/5yHn/zZ+EOsegIAACPYIzpjBgPfYIttBfr/L/0TvG/egpZ392MWxfGcPZPMW/CBNC5O+k+8nV+fOJRzCwb3h+ZM17ROsb2wBXcqynJzlt+4O2tv3JmWhVP7DQAAMHcIojPkfOBL67ZKwlZRHE/PG50pFn8yK9qWvvv5/LadWdbam779w9eknDvTm2LxH6c5Q4cF9XflXMPWLB957cw0HN7zH/nVoj/JZz45zsFE4xk6FKkoamlefc1v9E4AAKB+ac2dQe/87JuZf939afnw4znfHDv+PaKXRnHi8RzK4PUv5+8uLctDefuZf0j/eKucQ6ufRfbnne4707g4OXdm7GFHF31v17/n7/+mKx//1qfG7BM99dLD2f386FN4i9PPprd7a5YvnvarAACAOaBob28vGxoaMjAwMNu1TOhyr4/pm9+2MytW1mY0mAMAAJcnrblUriw3p2VFS8ozP8nbR6d3ZykAAFD/tOZSmbJcmtp196dlQZGy64kcfmW/E3UBAOAKJIhSmaI4nt4X73GnKAAAXOG05gIAAFApQRQAAIBKCaIAAABUqi6CqKtbAAAA5o66CKIAAADMHYIoAAAAlRJEAQAAqJQgCgAAQKUEUQAAAColiAIAAFCpq2a7gN9EWW7K9o7bsrooUp7cm90dP0pPUcx2WQAAAExB0d7eXjY0NNTlXZ3nA+mqY0/noacOzHY5AAAATEFdt+YWxYG8tK8vaduQdWU52+UAAAAwBXUdRJOku6dvtksAAABgGuo+iAIAAFBfBFEAAAAqNUeCaHNaFs92DQAAAExF/QfRVw/mjTRn9Yals10JAAAAU1DX17eMVNv2QO79UEtOvtyRR184MdvlAAAAMIGrZruA31bZekPu+9yWZN+uPLhDAAUAALjc1X9rbq2WphzJvuePz3YlAAAATEH9B1EAAADqiiAKAABApQRRAAAAKlX3QbS11jzbJQAAADANdR1Ey3JJ1q5pTo4dTGdRzHY5AAAATEFdXt9SlpuyveO2rC6KlCf3ZveT+xNBFAAAoC4U7e3tZUNDQwYGBma7FgAAAK4Add2aCwAAQP0RRAEAAKjU7yTRlgsAAEBlrIgCAABQKUEUAACASgmiAAAAVEoQBQAAoFKCKAAAAJUSRAEAAKjUVeN9WJabsr3jtqwuipQn92Z3x4/SUxRV1wYAAMAcVLS3t5cTfXk+kK469nQeeupAlXUBAAAwR03amlsUB/LSvr6kbUPWlRPmVQAAAJiyi+4R7e7pq6IOAAAArhAOKwIAAKBSgigAAACVmmIQbU7L4pktBAAAgCvDxYPoqwfzRpqzesPSCsoBAABgrpv0+paRatseyL0fasnJlzvy6AsnZrouAAAA5qirLjagbL0h931uS7JvVx7cIYACAADw27l4a26tlqYcyb7nj1dQDgAAAHOdU3MBAAColCAKAABApQRRAAAAKnXRINpaa66iDgAAAK4QkwbRslyStWuak2MH01kUVdUEAADAHDbu9S1luSnbO27L6qJIeXJvdj+5PxFEAQAAuASK9vb2craLAAAA4MrhsCIAAAAqJYgCAABQKUEUAACASgmiAAAAVEoQBQAAoFKCKAAAAJUSRAEAAKjU/wO1OM26134YZwAAAABJRU5ErkJggg==;" vertex="1" parent="1">
          <mxGeometry x="-250" y="31.5" width="690.33" height="337" as="geometry" />
        </mxCell>
        <mxCell id="ooKQ6jh0BGqzkcWm0sTq-8" value="" style="shape=image;verticalLabelPosition=bottom;labelBackgroundColor=default;verticalAlign=top;aspect=fixed;imageAspect=0;image=data:image/png,iVBORw0KGgoAAAANSUhEUgAAAy0AAAFECAYAAAAqdNG9AAAgAElEQVR4nOzde3hb1Z0v/O+at6dJp7qE1pYl3wK0Nr7FudqBM02wE9sQaG6c0AYSDqE0PZ0wNGEeksJJAm2BdmrPtITMMLzl0MKEW0tm4oRCIA6JW9pniJPYxHas1GmhsWVLll2ILpwmned51/vHlqzblrQlS5bsfD/Pkz8sLe211tYl67fX+q0tKisrJYiIiIiIiLLUpzLdgGDSsAbXLWvCDHRj4MC/wiVEpps0pSRz/qSsxdVrN2FG/w/Q3zc4Ca2cuqT5GvzzfbNR4DuvcvSPePDJD/ChhvNcffce1Dlb8NRhW8jj5hU7saWqG083H4IjhZ93KQvRtGM7luYKSNmD/Tt+gm5+n4iIiGiK+qtMNyDTpKzF7DVPo7SiKNNNIQBSmvDQY3XY2/jZTDclgnB8iPt3t+O2Xcexx6p9grL67j1YV+GE9f3IoND+fjfGchqwZVNtKpuKuZu2Y0lOL17bfj8e+fazDFiIiIhoSsuqmRbhbkV/a6vvDw6yEnWlnD9ZXYkDXzGpPtfxi2P4h+7s6bucvxm3VwpYX3kcbfbIdgn769jzqhmP33EX7pzfgZe7Jt52KWtQVQGMtR9msEJERETTQlYFLURaiO6zuK37LKT8LP7nthqswYWgZVrZM0iXsgYb1ldBnt0XMxgRXc/iteo9WLf+G6juTN0yrjHHILLpfBARERElK6mgZWbFoyjJP4PzbcPIW7sJRt8g69Lvvh+SF6HkWMyF69h34Cr8DkqvMyuPSwecx76DEbcIKteEmf5cAc/bON92AJeCBm/+MlDJvZhZ8ShKShHzmADgOvlNXLCJ8df42wMAuO5/o/q6wJ8RfZFFMDc+jDy9UO2DVgn3w5dzYozSD7W+qp2/aP0Y729CvQg+ngkPP16BWn/d8hO0/ssJ7HOIsHJKgLE2V73cNY21+Kcbg5aE3ViL/7gx8OfQrzpwf9sn2ttlvgb/fF8uOv7ljyi4T2lfxy+O4ed5i/FPN342JB/lmsZa/GPFKB588hN8NagvidYZznJLE8rQi/3Pd8Sd+Tpz5CjqKhpQd0sRusPyXoiIiIiudEnPtAj9TSi9TRlAd9uEb+D8MGa7/zZkQA3kIW/5MzAN/wzdBzrGB82m2rVw+QbWwcuajIufRrFepULXabi8TTDlL8TMswPjA3Ipi2DMzwO8R+ByARC+gX4tMHDgb8fLzax4FCWLvoM8txIQXOr7Lrr7tCWi+8sY7M+j+2jH+PFKlz+DmWEBRFyJ9CMowOn2tW1mxaMorXkGsxGoV9P5g/rxxvuvvQdB50UJWGrO9eG2l5yBx7Zdi2uCEtRDyu1Ryl3TWIt/+rtlKPAt5/qwrQO3tQXKFvz65IQCBr/ar16Njn85iQNfrcHaryxDjfUs1v7zZ/HP983GV+d+gH/oVsqJ3KvxT08oy8tu6xa+oKcGD40cT2q5mZSFmFNlAvqOaJo5EfbX0d7XgHVV82F+czClSflEREREU92EEvGDr/gLdytG7IChbC1mytAkZTn8M/ScUAb7QgzCNTwC6MwJDZSFGITjXDegmwujMegJ40IYdYD7XGBmQYgOXDjaGjLT8Oezh+FGHoyFxQn38zOVK2BANwbeOxF0vJ9ixCNhKFic0LG09kPKIphrmzDD/nxIMHWp77u4MCxVz3M8s8qbMMN7BANnBxJ6XVSWz6IAwMmekfGHhHDiH/Z8GLKj1rVNV6MGo3jqxUC5D46cxYFRiZo5ealpi6q/Rv7YH7HP8QkGxnyzO++MRC0dnA8jHB9i/zmgpv5aXJPgeQYA5M9HeQ4w5rRrfonT6QRyqjEnP/HqQus2I2eChyAiIiLKJkkHLVKewcWwiYnLHvVgxD10IuTvS33fRU/rM4lvaTzYGRF4fKZwLmagO6ItqTI+A2LvDGmvEIO45AGgz084eNDUD18Qc9kTOei9OKQS9MTtRy1mWYDLw6dVl40lxf4JhgDUfmUZHqpWPwdSfhZfqvhr4NwofhVy/pRAAjmfTS4o0Cg4oMLYKH4TJYaQ0on/PBP62IDz/wI5f43Ew1wAZjNyhfDllWhjdzghRB5yzfHLxmKZV40c9KK3c2LHISIiIsoWUyoRX4gOXLRvQrFvadWfUewLKA5HBEAROSs+ieduWDBTBwj9Pahee0/Es1IqQVoix02kH5fdA8jWZGohnPjBrk+UXJWvLMN/fEUtp+WzKMgBRG4l/uPxyohjSKkEBR9Oassnh5QjGHUk8AKHA6OyKun6zCt24r76PIweb8Yj37ZN6x3kiIiI6MqS0qBlhj4P8J7B5VQeNMxF6xHkLZsLo/EA/oyFMOpG4Ow4geCBvT9gCV6+lnzuhh2XvIDBE1jiFiGJwaGWfgDADEMxgNCr9Z8xpHNJVWKE+AT79rRjHwL5KGuDclWATzA0Bsixs/gfvrwXlYNMZpM1Kzb9NTA2imQX043PmmhdIWY2IwdOWBMJdII4Dj+B3YeV4OV7P3TyhpJEREQ0baTs5pJSFmGmHoBnOHXLj9S4TsPlVZZWfaZwLmZ4zyiJ60HtMObnQXrexoimlTlKUDJDb1F9dkLLwGKJ0w/lefV2+YPDkPJxqffzM5UrQnYmmwhl5qUPHVKiIE/neyzRZWBKkJNvyuzNJaX8LIpzAIx9oumO9xEcDoxKiRyz9puWWszq955JlP39boyhClULUnI4IiIiooxLWdAy6/qHYdKFJqungz+Rf0b+rcjLz4vI0RgPMoJyPqRhDa4L2zY4orxlBfIM6oPqi9YjuKxrQsn1iSXdT7QfjnPdEPn3oLQiMPCdWfEoii0jcHaob2kcr77gfipbV4/A5UkuGJPVlRF3rleS7v8vOnq844+1v3MBwzmz8Y8b488QjQc5ZVfjLnP6cl3iqdtYgzU5oZsHJGS4C9YxIMekHgyrMZlMwFg3eoaTqzJQtwNjEzwEERERUTZJfstjMRezb3tm/G/peRvnDyQ2kPaLzD+5CaW33QQg8n4pAPBn2xlcLm1SdvQ6OxCxvOjiez/AzMaHkbf8GeTBf0+VH8BV+zDUctfDy4fXK9yt+N2BYVy9dlNEXota+7SK1w9hewZn8E3MrQncQ0bKMxg48K8huS9az9+lvu9iQP80ZvvPy/DP0N1mh7mxOqktj0X3WfyosRb/8XggcFG7T4twfIi/2/UJHn68IiKvRe1eKO0vnkTxthqs/btlWKtSTlZX4sBXgmclrsY/PXE1gNAdwBLqizBh6xPLsNXfj9E/4sFdH4TMskTcSyao3vB+CGFDT68TS+qa0GjpQJs9dpukZSXqKoCx9i5ud0xEREQURlRWViZ8OVu5CeJIxOCZaCq6prEW/7j0Ezy1qzdkh7OJkrIGG5o3oqzvRTzywsmYZavv3oN1Fb0pyUPx14tXv4WXu/j9JCIioqkvZcvDiCiUECdxrN0JUXkX7pwf/dqAnL8Zt1cKnHuVifNEREREahi0EKWR4/ATeO2sRNn6XWi0RAYu0rISW9dXQZ7dl8JZETtGx4CyhlUwp/EeOERERESThUELUZqdeb4F746ZUD4vcicxy7xq5GhYPpYIIWw40tyCd9GA+1r24ns/3IxqBi9EREQ0hSWV00JERERERDRZONNCRERERERZjUELERERERFlNU1Bi06nS3c7iIiIiIiIVHGmhYiIiIiIshqDFiIiIiIiymoMWoiIiIiIKKsxaCEiIiIioqzGoIWIiIiIiLIagxYiIiIiIspqn8p0A9JJGtbgumVNmIFuDBz4V7iEiF5W1uLqtZtgDCrjOvlNXLBFf40W1XfvQZ2zBU8dtsUsZ1z0EG6emxdoz4UX8YujpydU93QnZQ02NG9E2dhRPN18CI4Y72828n8+Z/raLT1v43zbAVwK64fWcgBgXrETW6q6U34+pCxE047tWJorIGUP9u/4Cbqn2PkmIiKiqWtaBy1a+QMWg/15dJ/oCHpm4gHLugon3j0yGPNYxQ0/wvXFTvQd2IaejyZnIFjc8CNcb3wHb+//ZcxgLrvZMToGlGW6GUkS7lb0t7YCAIyLn0axfmLlAMD+fjfG6hqwZZMDj7xwMmVtnbtpO5bk9OK17b5gZcp+ZoiIiGgqmtbLw5TB3hb0tD4Te2BetAAGjMBpPZGyuuX8zbi9UuDcq4+jzR5jhudzt6KiGHB3/9ukBSxS5sNoBOByTOGAhdQI++vY82ovROVduHO+TMkxpaxBVQUw1n6YsytERESUEdM6aNHqM4Y8ACO45ErN8aSswYb1VZBn9+HlrtiDvFnXzoEBTgx9MJSayjWxwGAE3Bftk1hnGjkdU25pWDqJrmfx2lmJsvXfQLVMTeACAGOOwZQdi4iIiCgR03J5WCI5AOlguaUJZejF/uc74i6jMc4yAa53MPAnRF1BJr/wNayvmxPxuK19G377h9AXFTf8CDfMDsrLOdOCt04Nqz6Hudvx1bnRjxder5Q9eO+55zAQ1Kfihh/heryEn7fZUb3uQVTM8p3zi0fHl54ZFz2Em6oBa+sPQmaT/MdX60c2mlnxKEryz+B82zDygvKf5PDP0BO0rHBmxaMoKR0JyaMKXoLYE7IEMT3OHDmKuooG1N1ShO44+VRERERE2W5aBi1acgBk4TcxtyZoxA4zZt/2TOD5JAMdKQsxp8oE9B2Ju5RGyzIttXwXfxDg/jjoWJ+7FSvWLIfB9Q7e+j9KsCBlPqrX3Yzik0qgMXD07zEQ9PrwICI4agqvVznWg7h+3Zfh2h84vtEIAI1Yca8Jnl89gJ//QYy35YaaLrx1ahgXP+iBu3o5DFcB+ChQ26yrTJByJKQf2U7ob0LpbcomDd024fsc3YPZhScmvGlDKgn762jva8C6qvkwvznImSgiIiKa0qZl0KKFsD2Dbt8FaLUr40qhJAZ6+fNRngOM9aovvfIP/v0zEgCAWRvx1Xs3jv/pnx2RX/gabpgtYGsPDS7CZ2ekzEd1/XIYBl5SdhzztVuIYfT8+08j+mGcZQLQC1eU2R3joodwfbEzJKgRYhjd7/ei/MY5KP78L9HzEeBfZiZEHjyxZkv+5IAHgP6qAgDDUfuRSsG7Xak+P9qW9A5bIbvKDXbCtagaMwzFALJr+ZTT6QQqqjEn/xAcE1kJmG9GDoCxVDWMiIiIKEFXbNCSNmYzcoWA1aG+Y5gSSPw9ehB7eZSU+aieVwV58Sh6fx84lOrszBdvRrnRCevxU6p1hh/XaAQwcCZkmVfw88WzTcDAS/E3Bvi8GXoo2zMHt1989Abe+ukbQQXtcLuAglkW+IOWwAYEXWnZDEAIG9patqItdqGEjyvlGVxUeWtn6C3ItqDF7nBCiDnINQOYQNBimVeNHPSivRMpDy6JiIiItGDQkgZSjmDUEb9c7OVRvmT58EH95+ejwAi4LwRGobOvqUKsmRPV416IMor1HX/o/cgAaNZVptCyV+XBKARsH8YOloQYhssFwGiGUUq4hPBtQNCL904OJb19rhA2jDiTeumVweHAqKxK+uXmFTtxX30eRo8345Fv27jNMREREWUMg5Y0ECJP09XtmMu0fLMYno+HQp6cvWC5EiiEPQ7XCDRtfhbluON8gYgn7OHxGZig5VxK0NWDwd+rHyrYhQ97cf2NeTACuPi5W3FDtQlDv/qB6mxPKqRzediUYTYjB05YNQTQahyHn8Duw0rw8r0fOnlDSSIiIsoYBi2p5ru6nWMuAhB916Z4y7RUX+NbUqU6O2NUAoK4gctVecoWy9GS3z8egUvt6vwXb0bFLAFbe+BmlEpOSo+2YOnjEbgxB8bPK4GXYeAlvJWCHcO6X9iKbpXH07U8LGnGfMyYvNoAABazKX4hDfw3rKxaAHR3peSQRERERAnhfVpSbbgL1jEgx2SJUzDOvVJ8yesF1ywCENgdzDPQC8CpzM74XPiwF0LMQUVNwfhj8nO34m8W5Uce9+MRuGFCwbUFkc8F1zvvyzD67vEhP3crVtxYFZK7kvANKv/kgAcmFNQ/jOuLe/Fe26n4r4lDyhrc+cM9+N4PN6f0fiQT9WfbGVxGNWYVKX+Hb8E9WUwmEzDWjZ7h+GVjGnYwCZ+IiIgyalrOtMyseBSl15mDHrkJpbfdBAC49Lvvo78vfQnTQtjQ0+vEkromNFo60GaPMlCNs0xLiNP4za/mYn2dsrOYlCOwtj6AgWsfRkFxaCKH+MNP8Sq+hvV1gfuuKPdJicwXER+9gf/snoOb54aXVWZQhDiN3zwHfOneDbj56w3K87663wpJzI+TGxNBScYvnJUHW3v6loVlA+FuxUD/XJTWPIPqGiV5f+DADzCz8WEEz31o/Zwm83mWlpWoqwDG2rum9xI4IiIiuiKIysrKuJeodTodvF7vZLRnWpCyBhuaN6Ks70U88sJJ9TJf+Bq+eqNJ5V4p05OUC/GlezegwL8tM6VV9d17sK6iNyV5KP7PM179Fl7umv6fVSIiIso+XB6WBkKcxLF2J0TlXbhzvnpMOPuaKsDVoyS1XwFmN25AAVKzLIxik/M34/ZKgXOvMnGeiIiIpgcGLWniOPwEXjsrUbZ+FxotoYGLcdFDuGG2wND7v0zLPUqyTeBmlc9N62Vh2UBaVmLr+irIs/tSOCtix+gYUNawCuYsyh0iIiKiKweXh6WRf9vd8t4W7Hnz/0P1ugdRMUsZSKrdUHI68S8HKxQCUvbgvecYsEwG84qd2GI6EnVZYrKCt5CWsofbHxMREdGkYtBCRERERERZjcvDiIiIiIgoqzFoISIiIiKirDYtghadTpfpJhARERERUZpMi6CFiIiIiIimLwYtRERERESU1Ri0EBERERFRVmPQQkREREREWY1BCxERERERZTUGLURERERElNU+lekGXMnk527FijXLYUAv3nvuOQwIMSn1GX31yItH8fb+X8KV5nonwrjoIdw8N2/8b3nhRfzi6OkMtoiudHL+Zjy23oR3n3wcbfbs/e6kirSsxNZtDcj1/26MtuHp5kNwaPjdqL57D+qcLXjqsC3kcfOKndhS1a35OERERAxariDiozfw1k/fAAAUN/wI1xsz3KA4iht+hOuLneg7sA09H03OwEY5L+9kfTA3VUlZgw3NG5HTHjmQvZJl83kR9tfx1LdfB6AEIetM2l5XffcerKtw4t0jgwBCv0v297sxVteALZsceOSFkyluMRERTUcMWjIoOIgAB8gh5OduRUUx4O7+t0kLWKTMh9EIwOVgwDJFhM8CAID1lfvxctf0e//k/M14/I45qs9lW5/l/M24vVLA+or6bJSwv449r5rx+B134c75HVnVdiIiyk4MWigrzbp2DgxwwvrBEMKv0qaPBQYj4L5gn6T6aCL8g/jR483YHTQ7UX33LjQ6pt/SLdH1LHZ3AVIWomnHdizB0aDlVdnTVylrsGF9FeTZfTGDEdH1LF6r3oN167+B6s6foJsXCoiIKAYGLRmgJbdEKTMHQ61tMKzZgEIhYGvfht6rHsbNc/NCXmNc9BBumt2Dt/c7UHWvUhYAXGda8Nap4Yz0caKMs0yA6x0M/AlRx2PyC1/D+rrIK8+29m347R9CX1Tc8CPcMDvwWPC5CX8Oc7fjq3OjHy+8Xil7InKSiht+hOvxEn7eZkf1ugdRMSvyvTYuegg3VQPW1h+EzCb5j6/WDy3Cr8jLs/tCluAosxPVsD75OHrm7cJ99Xm+foxE5Gn4B8hLc0XUMoFjRp/xMK/YOV4PAKB+Bx6rD/w5erw5ZFlUvHqlLERTQxXkaBt+8eZgyExl9wtPIPxD419+Va5hRibe+VPjf42UPdi/IzAAj9ePRM9LPIH39ghytyn9tb5yP46Zlfc5OB8lkFfiwLKgc5NoneEstzShDL3Y/3xH3BnkM0eOoq6iAXW3FKE7Sp1S1uLqtZtg8B7B+bYDuMTghojoisSgJQMSyS0pqG/EUOs/oq/+QVTUPYmCCy/i1QNmrFizHFVf/CV++wffMWc14OavKwPsn/9B+IKeB/E3Hz+Q1MA3k7Qs01LLd/EHAe6Pg47l3+zA9Q7e+j9KsCBlPqrX3Yzik0qgMXD07zEQ9PrwICJ4ABxer3KsB3H9ui/DtT9wfKMRABqx4l4TPL96IOg9WY4barrw1qlhXPygB+7q5TBcBeCjQG2zrjJBypGQfmjlHwQHD8jl/M3YELEEx4SlD+zFkrP7sHvHycDV+42r0OMb1PoH+mV9L2J3y8nA8R/Yi9zg48sabNgI/GLHt8aTqs0rdmLL+sCMh+PwE9h9WFvuhtZ6AQA5ZpgAOGKcE39AhfaW8RkZ84qduO+OvbgTocfTfv6Cju8PWPzBjQg6L3H6kch5SUT5xiZYn2zB6MbtWHrHXpSd3YddPzZj67YGLFtwCC93KeVEbiPua1ECuN1dwneutuNOx7eSWrIlZSHmVJmAviOaZk6E/XW09zVgXdV8mN8cVE/KL1oAoxCQurkwGg/gkjvhZhER0TTAoCWrmWBwvYS3PhpGsQuQxhFYO08B+LJq6eAr8+KjN9A3sBzXz/syjL9PfVJ5+BXkiOcT2GFIOV5+yIwEAGDWRnz13o3jf/pnR+QXvoYbZgvY2kODi/DZGSnzUV2/HIaBl5Qdx3xtEWIYPf/+04irwMZZJgC9cEWZ3TEuegjXFztDghohhtH9fi/Kb5yD4s//Ej0fAf5lZkLkwRNrtuRPDngA6K8qABCYEdMyy6RGWlbiK3UmjB5vDhlwiq5n8bLKgYJnEISwoafXiSV1gSBA7Yq5/c0X8Ouq7VhSXQt0+V97Ei+3IOR82t88gnN1G1E+rwht9sQG4VrqFcKGI0d7sfSOObi9ZS/WRZkNkbIQTRsbkNP3Ih4JCgYch5/Aa6Y9WNewCuZOX5CW4PkDQpeohQcbWs9f6pmQ43wRbXYbqp2AzBnBu0c6AKxSLR0coI0HEUHnJSH581GeA4z1al9i6XQ6gYpqzMk/BIfaywY74VpUDYP3DFwuZNNKOCIimkQMWrLc0IenMP6/tKtHGch+PrKclD0Y/D1C/kN3XXQCxXkwAnCluF1C2NDWshVtsQslcLxh9Pz736MHsZdHSZmP6nlVkBePojeov6qzM1+8GeVGJ6zHg85hFOOvHzijuvW0lPkonm0CBl6KvzHA583QQ9meObj9IRsvAADscLuAglkW+IOWwAYEXQkHmpZ51chBL/aHLZeK5lx3B4LPi+PwE3jkMAAhol4xF8KGEScAkxlmKVO+XW0i9YquZ7Gr0xc8V96Fx5rvily+FmMQfaa7F+vWBwbLiZ4/zPsGHq9XD1gydf78Qt7bsW70DAPIjywnZQ96OxHy9VCCiPgzWKrMZuQKAasjcsewaOwOJ4SYg1wzAJWgRYgOXGjt8P+RaIuIiGiaYNBCWSf28ihfsnz4oP7z81EQlkQ/+5oqxJo5UT1utCR83/GH3o8MgGZdFbYH7FV5MAoB24exgyUhhpUrx0YzjFLCJYRvA4JevHdyKOEBmslkAuBM6DXRWZCbA4hcJRgIJ2XooDYiN8NnNM31BgfP/mVgSx/Yi/KwQGJMwyA6kfMnRB6W+vqrfuzE+jGdSDmC0UQ65nBgVFalrT1ERDQ9MGiZxpRlRj0pn2UBUr88LFjMZVq+WQzPx6G7is1eoGxsYAt7HK4Rbf2PctxxvkDEE/bw+AxM0HIuJeiKnPlSc+HDXlx/ozIbdvFzt+KGahOGfvWDpG40qlwhT/hlUdgxOgaUOWMkoQflr0TkgfhzNNJYb8TD9texZ0eXkpvjy5Hwh6A55iIAYcu3zKHBZiLnzz+jM9L0FG5XyY2ZSD8yzWQyAWPdSYe/QuRFnTVRZTYjB05Yp2MER0REKcOgZZpK9z1HUr08zC/eMi3V1/iWVKnOzhg1Lo+7Kg8GODEULfn94xG41K4Gf/FmVMwSsLUH8oYSChY/HoEbc2D8vBJ4GQZewltRcmD8Mwk56A3ZocrPv8ymagHQ3aWl8ui0LmPyL4OSo204FrbMSJ1vMG+yIDyISKRezYa7YB1rwBKV+pTB+VFl6ZRI7vydeb4FeTu2Y8n60G2WE+9H7PMyWaQsRJ4JgNOR3Ln3zZqoBYnRhAePkW3y7R6GETiPfQcj7uwM9oiIKL3+KtMNoPSY3fggyo29eK/tVKabkiDfMq2LUS7T+pLXC65ZBCCwO5hnoBeAU5md8bnwYS+EmIOKmoLxx+TnbsXfLFJZ3P/xCNwwoeDagsjnguud92UYpQzUfWNVSO5KwsHinxzwwISC+odxfXHs98syrxq5QowPrCN0HsavRyXK1u9Co0UG+jx/M+6cL1VeENuZI0cxltOALZtqo5YZH5znVGOO77RKy0psDdteOKJ8RVNIGxOtV8oa3Ll9Jcwy9BiWW+7G0lyBsd4uJe/Fl7AvKu/Ct1YUjpczr9ip3K39xaDZwCTOnxA2HGluwbtjJizZFvo6Lf0IPk688zIZ5m7ajiU5vs0DkjHcBesYkGOyaH6Jf2anJ9ru7MZ8zAAghBmm8sXJtYuIiKY8zrRkgHHRQ7h5bvD6/wbc/PUGAMnfW0WIObjh60/iBt/f8uJRvP1c6K5h6ag35eIs0xLiNH7zq7lYX6fsLCblCKytD2Dg2odRUBy6oEX84ad4FV/D+rrAfVeU+6RE5ouIj97Af3bPwc1zw8sq51CI0/jNc8CX7t0wfs78db8Vkpif6A0qlWT8wll5sLXHXhZmf78bo3XKTEt48rRybpTZr5G79+D2B/Ziqe9xZZewxK9OK8utHNjQvDEiLyM4+dw/27DUV6eydKoF1o3bUa5y3PDy4cfTUq8QJ/HSiyuxtfmpkHvDSDmCX//4/pD7yIiuZ7ELm/H4HYF7oITfT2Ui508JXF5EbvNGLA3azljr+dN6XsLvHwM04r6WRgDR7zkTjxDK7mu3+/s62oand4Qu64zMVwrUG96PwC50TWi0dMS9wae0rERdBTDW3hV1Zke4WzFib8JslWsNRER05QieOi0AACAASURBVBCVlZVxL+vpdDp4vd7JaE9Ssr196abcX8QZcYPDqUh+4Wv46o0mlXulTE9SLsSX7t2AAv+2zESTxLxiJ7bUOVWXGk5E8P1p4t2Us/ruPVhXob7cMdjMikdRep0Zl373ffT3DaasrURENHVweRhlldnXVAW2dr4CzG7cgAJMxWV8ROqEOIlj7U6IyrtiLkuU8zfj9kqBc6/GDlikrEVeaR6k520MnB1IR5OJiGgKYNBCWcO46CHcMFtg6P3U3wwzGwVuVjn1Z8iIgjkOP4HXzkbmB/lJy0psXV8FeXZf1GVtUhYhr+FpzL3tHhjsz6PnaCsu8XtCRHTFYk4LZZSU+ahe9yAqZimDEbUbSk4n/uVghUJAyp5psaSPSI0/R6d8XhHa7GHbTc+rRk6c5WNCDGLk6BaMpLuhREQ0JTCnhYiIiIiIshqXhxERERERUVZj0EJERERERFmNQQsREREREWU1Bi1ERERERJTVGLQQEREREVFWY9BCRERERERZjUELERERERFlNQYtRERERESU1Ri0EBERERFRVvtUphtA0ZlX7MSWOif27/gJuoWYtHrl/M14bL0J7z75ONrsE69XWlZi67YG5Pr6IEfb8HTzITg09EnKGmxo3oic9hY8ddg24bZMxET6UX33HtQ5I/tgXrETW6q6NR+HiIiI6ErEmRZKO2F/HU99eyt27/gWXjsrM92cpCXbj+q792BdhRPW9wcjnrO/342xnAZs2VSbyqYSERERTSucaaEJ8c+ElAfNElhfuR8vd6Vv1kDO34zH75ij+ly6606UnL8Zt1cKWF9Rn7US9tex51UzHr/jLtw5vyOr2k5ERESULRi0UNL8wcPo8Wbs9i17Uh7bi2+Zm9O2nEt0PYvdXYCUhWjasR1LcDRoeVX2DPqlrMGG9VWQZ/fFDEZE17N4rXoP1q3/Bqo7J3cpIBEREdFUwKAlg8JnDOTZfXjkhZMqJYvQuH07luYqg9nR45EBgX8A7y8j5UjUnBTt9Ua+Rsoe7N/xE5xBEZoalAF5cFtE17P4F/NObKlbgeo3Ex+Ah/fDbzSho/jzT6phffIIcrcpM0HWV+7HMfMu3FefF5KPEsgrcWBZ0KyR2nlOhOWWJpShF/uf7wDinIczR46irqIBdbcUoTtKnVLW4uq1m2DwHsH5tgO4xOCGiIiIrhAMWjLEvGIn7qvPC1nOJOdvxoawJUJCzMHtLXNgfeV+7O4SvuBhB+50BL3Ot0SrrO9F7G45GTj+A3uRG7ZcSmu9wcYDFn9wIwRgmY/yHODc0Q6Ez27Y3+/GWF0DqhYA3V3az4k/0R3tLYGZG38ivvbDhCjf2ATrky0Y3bgdS+/Yi7Kz+7Drx2Zs3daAZQsO4WVf+0RuI+5rQeA8W1Zi67btuNPxraSWbElZiDlVJqDviKbATdhfR3tfA9ZVzYf5zUH1pPyiBTAKAambC6PxAC65E24WERER0ZTERPwMkJaV+EqdCaPHm0MDlK5nVQfIIXkane/DKiVyzEXjz4dc0fexv/kCfj0qUVYdSPBOtF4gdAlY8GyMZV41cuDEqEPlRcMOjAEhbdRiblMDcsaO4hdvRiasJ8eEHOcRtNltGHH6Zp+OdEQtHXyelSACKGtYBbNMYvOAfCWoG3PaNb/E6XQCOdWYkx+lwGAnXFIC3jNwuRJvEhEREdFUxaAlA5QBfy/aNQzOpexBb2fk4zkmi+95/xX990Ou6AuhDNRhMo8PuhOpFwAw7xvjAYv6MiknRoa1HSoeKWtQVQGM9XaldOvfc91BQcpYN3qitFftPCtBhBmmZCo2m5ErBMYc2gMwu8MJIfKQa1Z/XogOXGjdgp6jrVwaRkRERFcULg/LAJPJBMCZoqNZkJsDiNy78FjzXRHPSqkMuh0J1itEHpbW5wGAb+CtNkg2IS8fgPbJhCuKlCPqM1HROBwYlVVpaw8RERHRVMWgJQOcTidQkaqj2TE6BpQ5YyTT+67KJ1KvP5F/pOkp3H7HXtyJ0NwYZVZgjjIrEB605JuRg1jBztRgMpmAse6kw8vxWROtQZ3ZjBw4YU0k0CEiIiK6AnB5WAb4B/xVCyZ+LLVlYKms98zzLUpuzPpdaLQEHd+XWxOcM+M3t6kBOehVXdYWo3UYHQsse/Oz3NIUcg+YySJlIfJMAJyO5JarORwYDcs9isdijr0QTcpazF7zNOaseRR5hql7k04iIiKiRDFoyYTOw6qBgJy/GXfOT3wweubIUW13VU+iXiFsONLcgnfHTFiyLfA6IU7iWLsTovKukNeaV+zE7ZUC515NbLtjIWzo6XUCFU3jdShbETthHZ38AfrcTduxJCd0c4OEDHfBqhKExeKf2YmWdwNjPmYAEMIMU/ni5NpFRERENAVxeVgGCGFDW8tWjNy9B7c/sBdLfY8rWwonflVf2F/Hnh0ObGjeGJHXEpxEn2y9SuDyInKbN2Jp0DbKjsNPYJdDuZnkY3f4jiVH8Osf3x9yfxj/NssBjbivpTGifY7DT2C/KdA2eXYfdjfb0bSjKmTL4/D7zAQfzxq2xbNWytbSe3G7v47RNjy941DILIvWfvjPWU+vE0vqmtBo6VC9X04waVmJugpgrD36RgTC3YoRexNmR9tdjIiIiGiaEpWVlXEvY+t0Oni93sloT1KyvX2U3cwrdmJLnRP7d6T2bvTB98+Jd/PO6rv3YF1Fb9w2zKx4FKXXmXHpd99Hf1+qtoYmIiIiym5cHkaUJtGW0IWT8zdrWlInZS3ySvMgPW9j4OxAOppMRERElJUYtBClkePwE3jtrMpGBj7SshJb11dBnt0X/Qafsgh5DU9j7m33wGB/nvdpISIioisOc1qI0uzM8y3I27Ed5fOK0GYPvUmnZV41cuIsHxNiECNHt2Ak3Q0lIiIiylLMaSEiIiIioqzG5WFERERERJTVGLQQEREREVFWmxY5LVwaFt+s0ms1lbvY/0GaW0JERERElBjOtBARERERUVZj0EJERERERFmNQQsREREREWU1Bi1ERERERJTVGLQQEREREVFWY9BCRERERERZbVpseRxOyhpsaN6IciEgR9vwdPMhOIRIf72GNbhuWRNm+uqSnrdxvu0ALk1C3YmSRR787f/6Ezbm/xcgdXjsa2a8nYXtJCIiIiKalkGLECfx8rdPjgcvWzY58MgLJ9Nfr7sV/a2tAADj4qdRrE97lUmR8i/42/9lx8Z8BilERERElP2m9fIwIU7iWLsTqJiHaikz3ZzsUezBEgsAqcOLj34RX7rXwlkWIiIiIspa0zpoAQC7w5npJmSf/L9gthBApw7PDDJYISIiIqLsNi2Xh6WDlEUwNz6MPL0vX0U64Dz2HYy4kxv0S1mLq9duglHEPl6q6yUiIiIimmoYtGjgDzAM9ufRfbQDADCz4lGULn8GM09+ExdsiQUQIcc70RF4rHEtZgYl7qe6XiIiIiKiqWjaLw9TmJCXn/yrP1O5AgZ0Y+C9E+OP/fnsTzHikTAULE78gMZ8zADgHgocT4gOXDjaGrLTWMrrhZKEf/MiDwDggn1GUscgIiIiIppM0z9o6Xwf52BC+byipF4uZRGM+XmAvROuoIBCiEFc8gDQ52Nmokn+rmFcBmCseQazC9Vfm456b7qvH7/92QXsXiiAYR3+7d//W2LtJiIiIiLKgGm/PMy//bF5xU481pyH0ePNeOqwLYEjWDBTBwj9Pahee0/Es1KaMQPApYTa1IE/HrAruSo1z6C6Ri1XJfX1EhERERFNRdM+aJGWldi6rQFob8HuHYkEK352XPICBs/P0OPLP4mQxHbBQgxi5OgWjCCQu5IXkquS+nrf/pdSvCX/gr/9uz9i40Iv/uf/+C+8/R+fTrjtRERERESTafovDzObkYNetL85mNTLJ7QMTHMdHfjjgefhkhIzDMVprVeIT+NfTyl3vZxtuZyy4xIRERERpcv0D1pS4KL1CC7rmlByfXLJ7+Fk4TdRWhGaY6Mk3Y/AZRtIW71ERERERFPRtF8elgrC3YrfHRjG1Ws3ReSXXPrd99Hfp8zizKx4FKXXmYOevQmlt90UUU7YnsFAxaOoXhsoq3b/Fa31EhERERFNZwxaNBKiAxdao+SW+Fzq+y66+7QdT71sZI6KlnqJiIiIiKazab88zGI2ZboJ2Wf407ggJbDAi28WpSdPh4iIiIgoVaZ10CJlIeZUmYC+99GdxA5f09aAHu/aAQgvNn739/jNc3bclKZNBoiIiIiIJmpaLg+TsgYbmjeiXAjI0TY8/XxHUtsST1dCfBr/+v9agFV/wsaF/5Xp5hARERERxSQqKyvjXmLX6XTwer2T0R5Kk1ml12oqd7H/gzS3hIiIiIgoMdN6eRgREREREU19DFqIiIiIiCirTYucFi5fi4/LvoiIiIhoquJMCxERERERZTUGLURERERElNUYtBARERERUVZj0EJERERERFmNQQsREREREWU1Bi1ERERERJTV/h+TyfSdeIU+/elP4y9/+ctktCcp2d4+LaShHMtv+u/I/eQchtxiwuVInZSFWLy6Dtf9lR0fjl3OdHOSNl36ocZQvgw3/fdcfHLOBreYvM+4LKzF6rrr8Ff2DzB2eeL1+r+r1WVlKCsrw3UFfwX7B6O4rKFP2fT+TqQfhbWrsMgQ2QdD+TLcVD1T83FiydTn5UqT6u9Hpvk/13OuM6bks+P/zi5M0fEoe2XT7/OVhjMtWcJYYIHOex7nBlNTjtJDykLUrlqFZeWGTDeFspxwW3Hs0CEcPHgQp+0y081JWrL9KKxdhQVmL+xDrojnXEN2eHUlqFtclMqmEqUUf++zy3R5P6ZLPzJhWtxccqqTshBlJTp4zw/FvDqjtVy01y5evQAWIWA/3YoOW+D1hvJlqCvxovPgCdh4dYgoruDvk1/49yrldRbWYs1Ci+pz6a47UbKwFgstAvbT78CqMiMs3Fa806nHmoULUVs4mFVtpyuDEoxbfX+k4vPnhscLmOGBOwVHI6JIDFqyQVE+zPDi/JALQIwfT63lYpAeD3SlFTAM9nH6migJ/uDB038cB63uoMfWYJn+OI5Z0zNkEbYOHLQBUhpQsbwOJTiP9nf83+Ps+S5LWYjFC8yQ9tMxgxFh68Dp/FVYsGAxCgd5wYSIiGJj0JJhUhpQUWoGHJ2qVyQTLReX1w67zoICYx/cMcZWqbySbChfhjqLHe3veFAWdExpP41DHbawepUBWaneV0Z6cL498mptsuX8PEn0ob5UH3igtB6rS4OO1x86WE31lXit/Uh5vYZyLK8rgT6FMwrhMwZqnwOFEeXLAn0OP8eA9s9BYvVGvkZKOzoPnsAgjKgoVQbkwW0Rtg4c1y9DXUkZCvsSH4Cn6nOqvF8W2Nv7oa8LzKye0y9Hfake0tM/HuhE+16qnedEGCtKYYYDnScG417BHjx3HqXmEpRWGGGbcLCXms9L4By+g6GC5ePfe9WyCXz+UqGwdhUW6IKD1eC+Kd993fn28X6nu33h3w9bjM+V+u997N+rRPurqc1hv2nB3wm/RH/vAUAIN6zHDsGq/KFed1h/J/p+aPl9TuT90EJtZYa/X2ZH5/gxU/n7MmX+/43zfiTej8n9fZkKGLRkmrEAFh3g6B9EzKulWsvF5UFfvx6ry4pgjfKD5f/i4Xz7+JVkQ/ky1C9cg1ok98UX+lLUr1G+wAdtwvefXejSkOAfvoPHAj989fVroA/64msuF9yPY+6Q1+oSbL/begwHrdr+o0z1+dPaj5TXKwuxeBFw6uDB8f/QDeXLULdgOcrdyf1w+n+0g3/IZWEtFoctERLCgoVrLGGfl3rUehL/HCRSb0j//QMy/3/uQgCG6N9D15Ad3pIS5BcBtgTGAqn8nPpZFpXC3t4Oz6I6lC5cA7P9NFqP67G8rgRlRX3wf/UjvpeGciyvq0Ot52BS33MpDShQTpCmwE24reh3lGCBpQCGPlfSs7+p/rwAOpTWr0GJ/TQOHrQFZrcWVWDIN8BN7Hip4fZ4AbMeBiDuEqR0t0/1++Gj6fdew+9VIv3VKnhZmBIURZZJ5Pdeq5D3w/cFlLIQi5dXwKASlGk6nsbfZy3vRzqk6vdlSvz/q+H9SKgfGfh9mQqYiJ9hGUnAHxyGw1yKckNkUq2UBlQsKoHO0RnyZXJbj+G0XcJcWgGDTC6pOORKx+Aw7FJCpzeOPx9yhdbH1XcK/R4Jc35RwuWKykqg857Hqb7IROB0Scf509KPdNQrhA0dx6wh/5m6+vrhgA6WAmOMV0Zpo6Eci0p08PQfDw1QbB2qP8Cp+rwkWi8QugQs+GqkscACHbzwqP0/4/LAC4S0UYvUf0510Hn7YXUra+yl9OB8jB+O4POsBBFI/nvuu7jiVT1B6tweL6CzIImPVIhUfV78gq9EC+HGkN0L6JQBdDLHSwWXxwtAB3+3CmtXYVVtoa9BeugAeD2utLcv2vcjWKz3Q+vvVSL9zXq+9jqGA++H2m+sVon+Psf7fqRLSn9f4sjU/79A6v+/zMTvy1TAoCWDxhPr7RoT8OOU00oIG86dh/oXKcagY3DYkfTgQko7hlXGTTq9wfe8/wrtcMgVWiGUgRd0ehikTKBcIfLNSNk50yzF509zP9L0vqWSMuB3oF/D4DxVn5dE6wUAFCweH5CpXwXzIlXjpHR9ToMHRvDaobKBl6/+yPOsBBGBwXlCDHrohUhoIOnyeCGEHvoJbKSTys+LnyPsgG7rMRw61AGbEEkdLyXcSmCs9En57MCcj8LxupSAOq3ti/v9iP9+aP690tjfKcF3UcOycA1qCyd3N8G478ck1juh35d4MvX/b4pl7PdlCuDysEwqylci6T5X7LXfWsslwDVkB+qU9feqwzJP8sn+yTFArwOEfiFWr14Y8ayUyo+cS3O5zJr885eeeiPW4PokmmsBAAa9DhgfgkyUts+BO8F6hdCj1Nff6OfSd+V3qgyWJpmUnsQGkm4PPNKctvYotH9eMnM8jVweeFGiBHiGfJgd53FepyxJHIRemQV0pa992r4f2sU9htb+ToGVMkLYcOKgW8lRWLgGqxdOPEchlb/P00mm/v9N3fuRod+XKYBBS4YEJ9bHWvuttVyilGnaVSitMOKUyvM6lVGZUZ/sCnstfNtFemMkBwoBSK3l0tdSLSb//KW+XtU8kAnkWijr05NqitrRtH0OEqzXP4jwlK3GQpU10MqsgEUZRIX/jxGyXGUKjKKiMOh1gNee9H+I47MmWg9gUAaf9rT+D6z985KZ4yVWr0VvhBE6eD3nMOSxoC6/CEZP8PuWnvbF+34kKv7vldb+Tg3Byfr+39LSJHMUUv37PFkm+vuiRSb+/03t+5Gp35fsx+VhmeJPrFebs02mXBIGlTViodO0riEoS7cjJ2/9PzbRlppMhNZpT+3To0q58H4YK0pDdhRJnPpxx6X8/GnsR4rr9U9PS09/ym5k6h/wp2I5biLT5MnUO3iiXVk7vGB5aO6Xby242priorIS6OBQXYYRXbo+p8mRUrnCB68nueUQbg88Ca6Vn4xgPtXLKpI5nv+GcqtW1QYtb0quXp2+AAUWwD7k8t2o07fcxve+pXsZSdTvh1Yaf6+09jd94vzeT4Ay89KZVG5JOn6fJ8R3wSaeCf++ZOn/v4m/H7H7wWVg0TFoyRB/cle8D7jWcklxDcEOC/KDZjOFcKOv3wFhWRhyt1ZD+TIsMHtx/lT67u8yeO68prtkayk3njgbtOGAsgWjF3ZP8j8C4z8mUTYySPX509qPdNSr/GgG1gBLQzmWh20jmZDBc6oDHVlYm9Qab62fl2TqFcKNvnfacd6rQ0ld4HVKPpgXwrIw5LWG8mVYaBFwdCa23XG6PqfJKlpchxJdaPJnQmIMGqJJ58WQYJo/L+k6XlE+LEJACAtKK5JPMHN7vBCWUpTAd85cHnh1JVgYtiwl1f0NFu37kdDrNf5eae1vOsT7vU+ELKyNuAO6kmzthT3BD39afp81cg3Z4YV5/CKQ2ja/0Uz09yWb//9N5P3Q8rlK5/d3KuPysAwYT+6Kc2d7reWSpXzBvb599gNr/oWtA61Qtgz17yEevA9/ugi3Fe8c9GDx6gUR6ziDkz61lnNbj6FTvwoL69egFMpuQAffcaNiuXlC0+eDJ9qhX16HUt9xI9qX4vOntR+prje8n8rSkHbYF9VB/b7ssfmXRnhqA30B/Ls0JbF7jtbPS5L1KgOzTujDlnC4rcfQ6lFuJumvVkoP+o+3hqxNj1zfXIr6NaUR7dP6/obfZyb4eMneg0DZKngN/GdPevrRfjDOPSui9MN/zobsXpSUlKLcMBh3rb40lKM0jb9xwbR+XtJ2vMFz6C81o1QvfEHdBBfI+GdVYMOwYwEsltAE5FT3N1y074fm1yf6exWnv1ol8nkG4v/eayVsHThVvgyrVwfqnkhOS6p/n7USbitOnbegfjwvx47Og0pbSsLLavh9SVS2/v+b6PsRtx9p/v5OVaKysjLu5QOdTgevN1UJtKmX7e0LJwtrsXoB4n6JtJYjIkqU2k3iUkHtRnPRFNauwgKz44r5jVNb9040HaXr94WubFweNskCifXDGhPwY5cjIsom0ZbQhZOFtUktqZuq/FvXZ00eAhHRFMPlYZMsePeQVJQjIso2busxnNavwgKVu3MDvvXeC8yQ9tPTfsZBSoOyza1eKDdjtLqv2J1/iIgmgkELERGlnH/NtqXACKs7bPvRAgt0GpaPTQe8AEVElBrMaSEiIiIioqzGnBYiIiIiIspqDFqIiIiIiCirMWghIiIiIqKsxqCFiIiIiIiyGoMWIiIiIiLKagxaiIiIiIgoqzFoISIiIiKirMaghYiIiIiIshqDFiIiIiIiymqfynQDSCEN5VheVwJv50F02MSEy2UTWViL1Qt0ON/+DqzuqdHmifC/R3qh9FV6+tH+Th/cQr3vUhZi8eoFMHvPxyxHREREdKXiTEuWMBZYoPOex7nB1JSb7qQsRO2qVVhWbsh0UyIItxXHDh3CwYMHcdouNbzCDY837c0iIiIimrI405IFpCxEWYkO3vNDMa+yay0Xs66wWQAAsJ9unTKzNomQhbVYs9Ci+tx07TMRERHRdMSgJRsU5cMML84PuQDEGEhrLReFfxDv6T+Og1b3+OOFtctR7p5+S7eErQMHbYCUBlQsr0MJgpdfZWFfvR4uDSMiIiJSwaAlw6Q0oKLUDDg6YwYNWsvFe7309ONUnwsIGhzbOo4hfBDvz7OwaJiRCZ/RkPbTONRhi90e32uktKPz4AnY/PkfvgCjVO//2xOSC2MoX4b6Un3gQKX1WF0a+NPTfxzHggKyeJSZJwvs7f3Q1yn9tZ9uxTn9ctSX6kPyUQzly1BnsaP9HQ/Kgs5NonUSERERUWIYtGSasQAWHeDoH0TMq/9ay8Wj08MAINYQ27+EDOfbx2dkDOXLUL9wDWoRGrj4g4jggEYW1mJx4WDU5VfjAYs/uBkPWHwJ6Y5OHDxmCxy/fg30vuO7rcdw0BooqzvfnpKAwbKoFPb2dngW1aF04RqY7afRelyP5XUlKCvqgz8GE/pS1K9RAriDNuE7V3Wo9UydjRGIiIiIphom4mfYZCXgC+FGX78DQliwcM0arKotVC0npQEVi0qgc3SGBANu6zGctkuYSytgkEpyuTSUY1GJDp7+4yEDdmHriBuwePqPR8zGGCtKYYYDnScCnXT1nUK/R8KcX5RcxzXRQefth9WtJMRL6cH5GCc6OEATbiv6HQg5L0RERESUWgxaMmg8sd6uMQE/Trl4hK0Dra3H0e+REJaFWL16NVatWoZyQ9Bg2zej4/VEzl4MDjsAnQUFRn9RC3RwoL/Ppa0BBYvHA5bw2REpDSiw6ADH8PhSMUAJtjxeKDNEaQwKHMNBQYrXjqEoXZLSjuGweMbt8Y7PYBERERFR6nF5WCYV5SszC2E5JkmX00AIN6zHDsGKwDKw0vo1sIQFEl5P/GR/g14HQNtevULoUerLRVE/tgF6HSD0C7F69cKI10sZf1nbVDUemBERERGRKgYtGRKcWG+LOcuirVwyhNuKdw4OKTtrWQpg6HPBP8Gg0xsRHiIY9bqQv90eL2DWVpc/od5TthoLVXJj/PcqMXtjJPFn6c5aBr0O8NqnZUBFRERElA24PCxT/In14WuNki2XKq4h2L2ATh+52Mk/OPcvnXJ5vBDCgkTSTQZPtCs5KguWhyxLS3wZmFJerZ2TSUplhmii2xXbOg7F3XGNiIiI6ErFoCVDispKNCXWay0Xj5SFqF1WHhEQGCsWoVQvxvNlxhP2LQtD7jZvKF+GBWYvzp/qCwzOB8+pBiCysBa1heqBhxBu9L3TjvNeHUrqQl83eO48vLoS1C2OHwWNBznm0tCcnElWtLgOJbrQzQMSJWUhaletwqpVtShkMj8RERFRBC4PywApC5FvRtw722stp4UQNpw4VY7lq1dDH3QsKT3oP94acu8XYetAK2qxZmHgHijh91NRjqnkx3hqV2Fh/Rr4b5eibGUcvb1K4NIJ/eoFKA3azlhZrubB4tULIvJa1JL3B0+0Q7+8DqVBdQeXC79/DFCK+jVKyWj3nInHv/uav3XS04/2g30h70/EvWSC6uU9XYiIiIgSJyorK+Ne2tXpdPB6szdTONvbF04W1mL1AkQEAcmWo8lhKF+GuhIv3w8iIiKiScblYZMskFg/rDEBP3Y5IiIiIqLpjsvDJlnwlsOpKEdERERENN1xpoWIiIiIiLIaZ1qINHJbj+GQFVl7vxgiIiKi6YozLURERERElNUYtBARERERUVZj0EJERERERFmNQQsREREREWU1Bi1ERERERJTVGLQQEREREVFWY9BCRERERERZjUELERERERFlNQYtRERERESU1T6V6QZcyeTnbsWKNcthQC/ee+45DKT5Tuv++oy+euTFRtGQTAAAH0VJREFUo3h7/y/h4h3es5qcvxmPrTfh3ScfR5t96r5X06UfWknLSmzd1oBc//dttA1PNx+CQ8P3rfruPahztuCpw7aQx80rdmJLVbfm4xAREU0XnGm5goiP3sBbP/17/Py5B/CfF2Smm0M0YVLW4M4f7sG3VhRmuikRhP11PPXtrdi941t47az271v13XuwrsIJ6/uDEc/Z3+/GWE4DtmyqTWVTiYiIsh5nWjJICSLe8P3Bq6ZTQfjVcwCwvnI/Xu6aWu/fdOmHFnL+Zjx+xxzV57Ktz3L+ZtxeKWB9RX02Sthfx55XzXj8jrtw5/yOrGo7ERFROjFoIdLIP/gdPd6M3UHLdqrv3oVGx9RZ8jRd+qGV6HoWu7sAKQvRtGM7luBo0PKq7OmrlDXYsL4K8uy+mMGI6HoWr1Xvwbr130B150/QzQseRER0BWDQkgFackuUMnMw1NoGw5oNKBQCtvZt6L3qYdw8Ny/kNcZFD+Gm2T14e78DVfcqZQHAdaYFb50azkgfkzGz4lGU5J/B+bZh5K3dFDg/wz9Dz4mOkLJSFsHc+DDy9L4y0gHnse9gxK38bVz8NIr1R3C+7QAuhQ3qpKzF1Ws3YUb/D9DfF7kER42UhWhqqIIcbcMv3hwMmRnrfuEJhA9+pazBhuaNKNcwkxE+EyDP7sMjL5yM3R7fa6Tswf4dgYFreL1SjoTkkEydfigBxtJc9X6YV+zEffV5gQPV78Bj9YE/R483R+SDxGyHZSW2bquG9ckjyN2m9Nf6yv04Zt6F++rzQvJRAnklDiwLOjeJ1hnOcksTytCL/c93xJ15PXPkKOoqGlB3SxG6o9Tp/5wbvOrfAyIioqmEQUsGBC8LK274Ea43Ri9bUN+IodZ/RF/9g6ioexIFF17EqwfMWLFmOaq++Ev89g++Y85qwM1fB2zt2/DzPwhf0PMg/ubjB/DbP0ydwYrQ34TS2wDXyW+i2yYgC7+JuTX3YHbhCVyw+QewvsGY/Xl0H1WCmZkVj6J0+TOYefKbuGATuOwZASxmzABwKZUNzDHDBMARo4h/6RXaW8ZnMswrduK+O/biToQO+P2D7+BAQM7fjA0xlv6MD/T9QUFYwFLW9yJ2+4IFKWuwYccqmMMTt6dKP1pOBo7/wF7k+o7vOPwEdh8OlM1pj0xaT0b5xiZYn2zB6MbtWHrHXpSd3YddPzZj67YGLFtwCC93KeVEbiPua1ECuN1dwneutuNOx7eSWrIlZSHmVJmAviOaZk6E/XW09zVgXdV8mN8cVE/KL1oAoxCQurkwGg/gkjvhZhEREWUNJuJnNRMMrjb0fDQMl0u52mztPBW1tK1923iAIj56A30DQMG8L8MoU590L2UhGrfvwWPNT6n++972lTAnWa/LF3gAAAY74ZISMwzF489/pnIFDOjGwHsnxh/789mfYsQjYShYrPztHgGQh5m+gNC4+GnMWexLXjbmYwaAy+4BzW0SwoYjR3shxBzc3rIX37u7RrWclIVo2tiAnL4XQwbRjsNP4LWzEmUNq8bPi7SsxFfqTBg93hwy0BVdz8Yd6I8eb46cxcg3IwfAue7ArJQQJ/Fyy+vjg9qp0I+QGQcf+5sv4NejEmXV6UxANyHHeQRtdhtGnL7ZnSMdUUsHB2hKEIGQ85KQ/PkozwHGnHbNL3E6nUBONebkRyng++7AewYuV+JNIiIiyiacaclyQx+ewviSHVcPBv4E4POR5aTsweDvEbK6x3XRCRTnwQgg1WMWIWxoa9mKttiFEj6ulGdwcRARqQYz9BYAg5CyCMb8PMB+OGQ5nRCDuOQBoM/HTCnxZ7cDl5HnO2YtZlkAYAGM8gQuAgBGEr7yLLqexa5O37KlyrvwWPNdEcuWxgefvZGDzzPdvVi3vhpz8g/BYQcs86qRg17sD1umFdW8b+Dx+jnRlyENOzAGoFxlJmSq9CPajIMQSiABkxlmKdO23a8S8PmOPdaNnmEAKkGBlD3o7UTI59TpdAIV8WewVJnNyBUCVofKhz8Ku8MJIeYg1wxAJdYRogMXWjv8fyTaIiIioqzCoIWmGAtm6gChvwfVa++JeFZKZUnYn13DuIwmzDQAMCyAwX4ETn0TZhUBF2HGDIzgkgsJ52EHB2v+5VNLH9iL8rAB+JiGwafJZALg1FhvHpb6cjiiHVuIk3hph10JRu7Yi8fuiMwFyf5+WJCbA4hcJZgKJ2WSQcEUIOUIRhPpmMOBUVmVtvYQERFlEwYt05hxlglw9aR8lgWITJSOeD6BG+klxo5LXsDgiUzOHycEIJVyRkMxPoM8XPa8AZdnLkwFi/EZTx7gPYPLE2yJsL+OPTu6lB2pfLkF/gveOeYiAKGzCBazKeRv5cq8trr8wcdI01O4PcZMSkgw4sv3WBqUC5L9/bBjdAwoc8ZI4s/SWQOTyQSMdWsM3yIJkRd11kSV2YwcOGGdjhEcERFRGAYt05SU+TAaAbgcabnjfbqWh8WvN3QZWLQdkfzlTPqFMOoBV8cA/owzuFybjxkeAJ7h9OymNNwF61gDlpgsCB/sK4Pao8qSIxFY3lO1AOju0nb4M8+3IG/HdixZH397YmXmBUqiukrwkY39SHwZmC/IUWnnZJKyEHkmAE5HcoG6b9YkkfcpPHiMbJNvwwqMhOysR0RENBUxEX+amt34IMqNvXivLXri/lR10XoEl3VNKLl+ccxylz0jEPk3wQRfIrJrGJd1TZh9nTnhOqWswZ0qmwtYbrkbS3MFxnq74BAikOheeVfIXdrNK3ZiXYUT774YNPvUeVhJLl+/C42WwHHl/M24c756MrcQNhxpbsG7YyYs2Rb5uvA7wytJ7YG7q0+Ffpw5clTzXd/Hg5yKppBjTLa5m7ZjSU7o5gEJGe6CdQzIMVk0v8Q/s9MTbVdz34YTQphhKo/9XSEiIsp2nGnJAOOih3Dz3KB7TKABN3+9AUDy91YRYg5u+PqTuMH3t7x4FG8/F3rvl3TUmwnC3YrfHRjG1Ws3ReS1XPrd9yPvveKbVRHowEX7Jhjzgcse7bs0Ab5ZixdXYmvzUyF3kZdyBL/+8f0hMx6i61nswmY8fkfg3iHh9yFRjqnMVo3cvQe3P7AXS/3HPLsPj7wQawbFhiPNLyI3bOmX6HoWv1ixE481B97j8JyWKdEP++vYs8OBDc0bI/Ja1JL3/bM2S4PqDi4Xfv8YoBH3tTQCiH7PmXj8u6/d7u/raBue3hG6HDLiXjJB9Yb3QwgbenqdWFLXhEZLR9wbfErLStRVAGPtXVFndoS7FSP2JsyOtrsYERHRFCIqKyvjXp7U6XTwer2T0Z6kZHv70s246KH/v737D466PPA4/nnmUHAGsh4Nmw0Q6N20QH6wJJTYOioTNfyILR304I6fh1bpeTgVuFEOi0rPH+0QOj2ROY6pg8WTWlu5gfEXQjKa8cecEsuPJCRKtS1JYDebSAkwU9A/nvtjs8luskk2m93sN5v36y+zPN/neb6768zz2ed5vo8WeAP6cM8eNTp0vT+QLjxlW7SuJNAjvA1W+Pk0/R3K6V2zQ0vy6vrtw5i8rZo23RM9zAMAMIywPAwAHMCYar1dFZDJX93rsjopOHO0NN/ok5f7DizW3qCsaVmylw6r8VTsZxIBAOBEhBYAcIjOwzu77Q8KsdmLtH5ZgeypF3s/uNPmKKt0l2bddY8yfHtVW3kwOQ+dAABgCLGnBQAcJLRHJ7cwRxW+bo+bLvQqs5/lY8Y0qaVynVqS3VEAAIYQe1oAAAAAOBrLwwAAAAA4GqEFAAAAgKONGj16dEwFYy2XCl999VVn/66bOimma/565mwyuwQAAAAgQZhpAQAAAOBohBYAAAAAjjYiQ8tP1j2obdu2pbobAAAAAGIwIkMLAAAAgOGD0AIAAADA0QgtAAAAABxtVKo7kAzWXtK253262Rid+f14/c+r43W4yaS6WwAAAADikPYzLVO/dV6P/ct5TbM21V0BAAAAEIe0DC3GjNPme6fppq3j9b61UvYl3TYl1b0CAAAAEI+0DC0hpulreueYJPOVvj4x1b0BAAAAEI+0Di0AAAAAhj9CCwAAAABHS/vQ8ifftZKkm+dcZjM+AAAAMAylfWj59H+/pvfPWelbfj3/q8/0/gOXUt0lAAAAAAOQ9qEFAAAAwPCW9qFl+j98oZsnGun3Hv3gnm/o5v8al+ouAQAAABiAtA8tf5f9pSTp/Y/H6rQxKe4NAAAAgIFK+9ACAAAAYHgjtAAAAABwNEILAAAAAEdL69Bic77QP8+WZK/Rn8+lujcAAAAA4jEq1R1IBmsvadvzPt1sjCQjnRuntxuD/wkAAABgeEnrmRZJOvP78frBlvE8OQwAAAAYptJypsWYcdp8b9h5LOQVAAAAYNgys2fPtv0Vuuaaa/TVV18NRX8G7bqpk2Iq99czZ5PcEwAAAACJkPbLwwAAAAAMb6OuXr3ab6FrrrlGsZRzgqun/5jqLgAAAABIIGZaAAAAADgaoQUAAACAoxFaAAAAADgaoQUAAACAoxFaAAAAADgaoQUAAACAo41KdQeSyWYs1vTb5mu0atR44L/VbkzvZe0N+vqdd8sVVqa9+n6dae79mlh41+xQSWC7nj3U3LPN8d9V2eLblaE6fbhnjxr76F8ihNoL3aO9UKnD+1/v832JqV5brJXlqzSjrVK7yl+VP8n3kWih78mY0Pty6bD+UHFAV7rdR6zlJMlTtkXrCmqG5fsBAADgNGkdWmIVCiwZvr2q+eho2L8MPrAsyQvovSNNg64rEcz5N/TW829IkqaU/kLfcSWqZp9a26QZiapuiJmLB3X64EFJkuvbuzRl3ODKSZLvRI3aSkq17m6/Hn+hOtFdBgAAGFHSOrSEDzLV16/dObOVoRYFGj5SosKFLVqrpflGDb95ShW+6HWGh4g++4dhx/he046XPXpq+WqtKDqql47z+QIAAMSLPS2SrsvIktSiK+2Jqc/aYq1cViB76sWRNVgN+FkKFcYcf06vnLKaseyH8lqb6u4AAAAMW2k50zKQvQfJkH3HfM1QnfbvPRp1BiWWvSXBMjN19mCFMhav1GRj1Fy1QXV/+4gWzsqKuMY1Z7MWTK3V4f1+FdwbLCtJ7Se3662Pzw3JPQ+lMXlb9c2JJ/WHinPKCtuHZM/9SrVhy/vG5G3VN6e1ROxnCl8KWBuxFDA5Th6pVEleqUruyFFNlH1NAAAA6F9ahpZY9h7YyfdrVvGssFc8mnrX7q5/jzPoWDtZMwvcUv0R1fRy7UD2lky6dZ7OHvy56m99SHklz2jSmX16+YBHZYtvV8E3XtcHn3fUeX2pFt4nNVdt0G8/Nx2h5yHd9JeN+uDz9Jv9MOMWaNpdwYcl1DSbjs/zHk2d/NGgH56QSMb3mqrqS7WkoEieN5uYiQIAAIhDWoaWWJjm3arp+OE72i/ywUJxDDAnFik3U2qr8yWgl25ltP9ab50/pyntknW1qOHYx5K+F7V0c9WGzoBizr+h+sbb9Z3C78n12eCfEBYvaydr/qaHNXdC9PZta0XcT9iKeLpb0zG1z/FqdMYUSU2D6HHiBQIBKc+rmRNflT8RXwsAAIARZsSGlqTxeDTBGDX4E/PEsLN/+rirnvZaNX4h6Ws9y1lbq6bPIptsvxCQpmTJJSlB23UGzJhmVWxfr4q+Cw24XmtP6kKUt3j0uGw5LbT4/AEZM1MTPJIILQAAAAPGRvwksLZFrf5U92LoGNOslkCqe+Fgfr9a2YgPAAAQN2ZaksCYLEf8qu663i2116ZslkVK7vKwYcPjUaYCahhBQRYAACCRCC2J5ver1RYo05MjKXVPi7J2olwuSe3+IdnPUvPCetVEeT1Zy8Pi5pqo0UPXmiQp2+Me4hYBAADSC8vDEu3ccTW0SZnu7JR2Y+q8h5TrqtOHFR8nvS1ri7Vi2w49sW2to84j+WvzSV2VV9fnBP/u/ijsoeJ2u6W2GtWm39OnAQAAhkRazrSMyduqadM9Ya8s0LS7FkiSrnz6U52uT95GbWOaVVsX0C0l8zUv+6gqfD0HyK45m7VwVlbYK6VaeF+ppPjPVjFmpm687xnd2PG3vVCpw3sinxqWjHadzFw8qMbTszSteLe8xcHN+40HfqYx8x5R+NxHrN+XeL5XNnuRSvKktqrj6b0EDgAAIIlMfn5+vz+Njx07VpcvXx6K/qQFa4u1snyVZtTv0+MvVCe9PdeczVrgDejDPXvUyMDYUbxrdmhJXp32b/plr+f2AAAAoG8sD0sCY6r1dlVAJn+1VhQ5Z7kUhpYtWqul+UafvExgAQAAGAxCS5L4Dz2tV05ZzVj2qOZlE1xGGpu9SOuXFcieelEvHSewAAAADAahJYlO7t2u99rcyi3MSXVXMMSyC73KHKLlgQAAAOmOPS0AAAAAHI2ZFgAAAACORmgBAAAA4GhpEVrGjh2b6i4AAAAASJK0CC0AAAAA0hehBQAAAICjEVoAAAAAOBqhBQAAAICjEVoAAAAAOBqhBQAAAICj/Y3b7f5Jf4WuvfZaffnll0PRn7g4vX+9seO/q7Ll/6rZRZN06dgxtRszJO19a/ZCFcxeqPy/H6Xm+tO6muR2MTzZorV6cmOZRp16V3+8nNrviHfNDv3TxDp99NnFAV87Jm+rcm/K1dWG6pi+6zZjsaaXPaiJM3JivqY3nrIt2nTn9Wr44FNd5v8zAADixkzLCGLOv6G3nv83/XbPRv3fGZvq7kRlbbFWbNuhB8smp7orSIJ4Pl/vmh1akhdQw4mmKPXdoKmLd2laXk4iu5kwvhM1asss1bq7b0h1VwAAGNZGpboDI1kwRLzR8Qe/wg6EzV6k9RtKNSHsfWv4zY/00vH0fB9H2v2G2KK1Wppv1PCbp1ThG5p7NRcP6vTBgx1/DK5N43tNO1726Knlq7Wi6Gjaf14AACQLoQXDji1aq6eWz1TrO+V67FBz5+veNY9qnn/oBrdDZaTdb4i1xVq5rED21IvDerBvjj+nV7w7tGTZD+U99kvV8AMFAAADRmhJATv+uypbfLtcHYMXe6FSh/e/HrGnJVhmps4erFDG4pWabIyaqzao7m8f0cJZWRHXuOZs1oKptTq836+Ce4NlJan95Ha99fG55N6LLdbK8lXKDd2LbdF7z/QcSFs7WfM3Pay5E6KX85Rt0QO3ZnVdcOsmPXlr15+t75Tr2UPNwXpKC2RbK/S7N5sifgmveeFpSQNrVwrNYnjV8MxTqi18tLMf4WVDMx2q2q5nw4JDqO/rShRRb8LaHfD9Rn4eUu8zMqEw1Pn3qRf1+AvVPcpFu8baWu3f1DUAT9TnGy77jvmaoTrt33u0x4zHmLytmjbd0/XC9B/LO73rzyuf/lSn67svJ5uirNJHlDXORC1jMxZr+m3zNSZ0T5cO6w8VB3QlSsiw9gZ9/c67u/4ftn4F3v6JWi5GDyQnj1SqJK9UJXfkqKbbfXavM+PykV7bBQBgpCK0pED4srAppb/Qd1y9l5106zydPfhz1d/6kPJKntGkM/v08gGPyhbfroJvvK4PPu+o8/pSLbxPaq7aoN9+bjpCz0O66S8b9cHnyRn8hAbIM+r36bGOwa61xVq56fvylL8qf+eALqzc9mA5T9kWPbBxpyZ0DKj9h57WY4e6ymZGCQcRMj1yS/LH2r9e2u3i1tyNO3XLqRf12KbqzkH4Lau+r9ryV+U7d1wNbaW6paBInjebwu5tsmYWuKW2StWek2QS3O5A7jcsWIVmZDxlW/TA8p1aoch2QyEiPNDYorVa2ccSps7AEgo3Sfx8O9/X+iNRZyau1P+Hauq7BvqjT/8sSkjpYswsTb1rltqr71dNs5GdfL9mFf9YUy/erzPNwfrDl4W5vr1LU8b11reOcOHbq5qPjna9Nu9OjeklbBjfa6qqL9WSbt+fCDmz5TJGduwsuVwHdGXgzxwAACBtsRHf0dzKaK9Q7flzam8P/nrdcOzjXks3V23oDCjm/Buqb5QmFX5PLpukTfcTPcqU9EnN0c6XjKnWS9tfixiURfxi3sH35gt6t9VqhndgG5SNadaRyjoZM1NLt+/UE2uKey070HbDZxqMaVZtXaAzLITaVaZXMyeGvwdFys2UPqnsCmnJaLe/+7V2suavKlVm/b6IMOA/9LReOWU1o/T78nR8D2z2Iv1jiVut75RHBBRz/Ll+A0vrO+U9ZmMS+fl26nhf2wK+/svGqL26K6Co6ZjardXojCkDr8g1UaMlXTz7UedLxhzVmcqDfc6OBAKBnt+fcB190uWTam8feLcAAEhnhBaHO/unsJDSXqvGL6KXs7ZWTZ9FvtZ+ISC5stTHRM7gnPOrTVLu8p1aURQ9GHX9Yn4i4hdzY5rVEpDk9nQOpmNljj+nRx8u17utViZ/tZ4sf1ZPbNuiedld9cTTbnj4koID/sf//bmu64+d0CdyK7ew60lV2YVeZapOdceS124s99vXIP9kTWTYCvW56s3eZyYiFP6wM7B0nx1JxucrSfJ4NMEYtflj7GM/rD2pC1GqGj0ue+CVtZ/TVUmu4t2aOjn2e/P5AzImSxM80f/dmKM6c3CdavsJPwAAjEQsD0PcjKnWrzf5gnsZlu/Uk8uj7d3I1oRMyUxYrSfLV/eow9r+lz1Fb7tZFdvXq0Jdy6Lmbtyp3M6BdeLbNaZadfWrOpf4+JQTZQlTqu43KDjI73vA63a7JQVibDdLczv2okSvOzn3G7y2Ra3xXJhkxhzVnw/45Jn3iLKKd8tb3P+eFkmS369WWzB0HQUAII0QWtKY63q31F6rZK40iRhMd+xXmBuxd8On1jZpRqCPTd6JeKzspuPBvSCdgSI57Z48UqmSDV7NnPiqfCpSbmZA7+07qq7BfKruNyjTkyOp24Z2jzvi70AgIOXF1lYohLbMf1ZLo+yNSeb9ds5KJG6FWMIY06SWynVqUdcel6zbd2tM+BK07jweZSqgBgcGMQAAnI7lYWnK2olyuSS1+yOeSjagOrIX6cFtO/TEtrXyxrDEJzjzsk8N1nYMnuNZJhQcBGe641i2E9GXQS5P6s2542poCy4Ryy70KrOtJrgBP9ntxtSv6O+b2+2WwvoZXKY0UwWzY6/+5N7twT0qyx6NWJaWtM/X71dr2Peor/quXI5zmVeCBGde9va7R6Z7eOwudFDmzMVblZXhzMNfAQBIFUJLmpo67yHluur0YUXvG/f7k13o1QRjeh3g2qK1PU42D27Kjjy9/OSRyphPBe8cBOfNj9yzEWrTFmvFw4t6DJCz71ijuROM2uqOd26IH0i7sQptlM8sKNNtBe6I9kIS2W6s99u5YT9/dcRn4inboiV5Ab23r+tBATp2KGoAsUVre92bZEyzjpRv13ttbt2yIfK6RH6+nfoIYZH1NenKJUnZZUM20LeT79e0vMgwdV1+mTLUovbmxl6v6x4ee+jY4G+MR+7cbyeuwwAApAGWh6WAa85mLZwVdmaFSrXwvlJJ8Z+tYsxM3XjfM7qx4297oVKH90Se/TLQdn0natRaUtq10bzbhI05/px+V7ZFT5Z31RntPJLgcia/Vpav6rHvIdrm7pN7tytr08Oau3Gn5nYrZ0y1fr1vkdaXPxtxOry1LXr3P380qHZj5TtRo7aS0uATs7qdnZLodgd0v8ef06Naq6eWd52B0v08lWCdwSV9LWt2aGnYexx8ilnvs3LB4LJPE7otAUzk5xveVm1dQLeUzNe87KN9HqB54cOfacy8R5R1+26FvonRz2npW4+zX7RA0+5a0KM+07xbjXlb5b2zq2x/e1ps9iKV5EltVT1Dboi5eFAtvvma2tvTxQAAGMFMfn5+vz9Pjh07VpcvXx6K/sTF6f1LNteczVrgDejDPXvUyFOHkCbCz3/p79BLp/Ou2aEleXU9AmR3oeAUT+gCACCdsTwMgCMZU623qwIy+at7XbY2HNiitVqab/TJy30HFmtvUNa0LNlLh9V4qvdlZgAAjESEFgCO1Xk4Zrf9N8OFzV6k9csKZE+92PvBnTZHWaW7NOuue5Th28s5LQAARMGeFgCOFtoDk1uYowpffPuQUiW70KvMfpa3hT8+GQAARMeeFgAAAACOxvIwAAAAAI5GaAEAAADgaDGFFqcvvXJ6/wAAAADEj5kWAAAAAI5GaAEAAADgaIQWAAAAAI5GaAEAAADgaIQWAAAAAI5GaAEAAADgaKPiucjaYq0sX6VcY2RbK7Sr/FX5jUl03wAAAABAJj8/38Z7cSi8zKjfp8dfqE5kvwAAAABA0iCXhxlTrberAlJeobw27uwDAAAAAL0a9J4Wnz+QiH4AAAAAQFRsxAcAAADgaIQWAAAAAI6WoNDiVtbExNQEAAAAAOEGH1qOndAnciu3MCcB3QEAAACASIN65HE4T9kWPXBrllrfKdezh5oTUSUAAAAAxHe4ZDibvUjrN5RKVdv12CbCCgAAAIDEGvzyMI9HmapT1ZtNCegOAAAAAETi6WEAAAAAHI3QAgAAAMDRCC0AAAAAHG3QoSXb405EPwAAAAAgqkGFFmsna2aBW6o/oRpjEtUnAAAAAOgU1yOPrS3WyvJVyjVGtrVCu/YelQgtAAAAAJIgYYdLAgAAAEAysBEfAAAAgKMRWgAAAAA4GqEFAAAAgKMRWgAAAAA4GqEFAAAAgKMRWgAAAAA4GqEFAAAAgKMRWgAAAAA42v8DdoLxmc1LuFcAAAAASUVORK5CYII=;" vertex="1" parent="1">
          <mxGeometry x="590" y="-30" width="526.95" height="210" as="geometry" />
        </mxCell>
        <mxCell id="ooKQ6jh0BGqzkcWm0sTq-10" value="" style="shape=image;verticalLabelPosition=bottom;labelBackgroundColor=default;verticalAlign=top;aspect=fixed;imageAspect=0;image=data:image/png,iVBORw0KGgoAAAANSUhEUgAAA/AAAAHDCAYAAACDLvEkAAAgAElEQVR4nOzdfXRU1b34//eg+FCT0BSqCQMyEwIhmdSGYtpyWUImJjZaMEkj3qZLvrV4IwYMIhKIutrlqksEAopBkkIu1H51lV4hJhEqqcRMwMVVG6l82zwQSJhBGBIt/GIeLLVY5vfHmZmcmcwkM8lMHuDzWou1nMk+e/Y5c5xzPmfv/dmamFlRNoQQQgghhBBCCDGqjRvpBgghhBBCCCGEGJ0qyw9RWX5opJsh7CSAF0IIIYQQQgghxgAJ4IUYboYsSoqzMIx0O4QQQginePKLS8kc6WYIIUZYPPnF1ZxoaqVEfhBGJQnghRhWWZRsTuPd5WU0jHRThBBCCKd6CpdXcc9BCeKFuJYZ8rfyCCVkxU4nt3ykWyM8GYMB/ATimEC67Qes9iv9nrJdHFNZbfsB+21Tg9XAa5jj+MaRPug6riMs+jqm5NxMbGoAmxYM0dcRFn09sb++gSk+bRBP/sFcTq/JYTT/HoYb4gnPLGV+fvxINyWwDPGEG7JIKC5AF4zyIrDCLqMPu8RDiV0sGOm2iFHqMvqwyyyIvcBDvv0IB50+7DL6KRdYF3vZj62U/dCHXeKh2AsUJV4KWvsGVkbuTlh2sGBUjBKLYwJxft/vCSEGL577kmHXduloGs2uH+kG+CvONouNtkimAbUaf7cLBUKYBqA57+OWU1l9ZQ4P08Nr46p5ye8WjzWD3d+pFF2JIYkQoI1f+vHdqIXl3MCcxdcRArQXDqaG64n97U1Ea6/QsvwfNLUMrh2+fE7iszcQoR0H/JtPfNgis7iSu2vSSfP4ixiPrngr8UY9ofZ3ui01nNtZRVg0HCksC1jL+2Uo4Dubc9DqoHv3K8PzmX7JYn7TJrSmtexZ7s8xyWL+5ly0Oj1QwwcBLy8C6xLr5nRyZ8g/gRBeHcF2PGT8nPSQG6k8HMEbXSPWkGEytq53+thOnoz+kkhsfPzJpJFuDoR18eCcDu4MsdHWMsHnzfSxnTwZ8TXwFZEhNmi/JXht9EV5DjtSW9mSf4C0wvqRa4ftB4O637u2xJNwsJJYb0+ZLaVU3buBDvf3DeprHGCpoWlNDsfV9yeZpWSvTx7g82v4IDYHy6DafrXJIuHgJmJ1ZpoeSHE9lmOOmZYx3f6r35jrgW/UfMSicceoHdR21SwaV+FncHnV37G5Gez+nmXluGru0LQN7dNLL2G655+0D7qG4XpM/zV1v/gH+wv/7VtxQwHLjDXs8HgzpFyA480lHI2dzp7Y6eyJTae+Rk/s+k1ok2cQHtC296NhA0fuTadp2K7GWcwvzvK9uGEGYQDGND97xcs4cm8Ke56pCVJ5EVg3s9EUweJPQka4HcF+xn2JdSPa2+ou2Ne7qRQFcPSbuWkSK/ffyseMkuiuK4yNpslU9vjXHnPTJFaaIlhpmsar7aNjX8q3l8LSreQHtRt+gPNhkPd715Z6jt/be9/QZEEJ2h33Eh6D9wIW7ttEmLnEWa5qJ0zZ18p89dyJ8hz2xK7FCnTvTrd/Ru+/qmdq6CaZ26/a+RZ+3p/QHLSWCOFuzAXww6+Tl8ZVcMcY6I0IjLG+v/+m6Rc97L8nmL3v/stckQO7X/E4dD48fyuxlHK0sEx1oa3HUphC1W7z8DVyJDgCch+F35dC1+5SutHzzdEwvlNc5cbzhmkai/cHqfc97DLaIFQ7eMH+/Q9FH5R6RcA1bGCHSc8jK/wJYPwl58Pwiydhcw6hprUcWN57z9FRnsPR3Wa060t9fjjeUZ7DgWdqCEsN5jkygvy8P+l9mDLWe9/FWCABvBDBZihgmdHMe+94Hoo4Qa+nu+ZA36fkQEfhKpqYju+DMceW8PtSnFMGBhbPtGQznxYe4JxFz5T7rrI5+uKao9f+g8iRbsQwirNNVqawiTGh/FANGNOCltBOzocRkPkEsTqwHuo7Ba2jsAQrycT7k/+mPId6M8M3SnAY+Xd/IsTwGjUBfJztBxR5HP08gdW2OOKGu0FubUi3Xa0hlCdjfH+jr2NK6nUj3Qonw30p6AaYTxSqj/Hyl3qOr3nlqpxfFp5ZwLyl/vS/xBBmrsJCPV+Y+ztmQgRQ2GUWTPEnIZlv9FO6eDL6q4DXO3TB+f2Ps8Wx0TbSUyKEX8qrMJHMPUGI4OV8GBm61GSghk89ZtJtpssCockLfQjI4wk3KIG+xWX04NXB//sTO0M8ukzpXBDBF4QJfnEU2ULBFgqaalZq4ii6MpMkAHo4o2lmneYsjY7ith/wV5vSB+GapGQCq68YeRiAk1R5nRamTp4GZzQnWadp7K1/sHthS+EPNjjjTHp3jEo6B9hqKqttMTzsvCj1UKupY6VmoO36bQn7r8xUPaU+yU/HKfuntNHxWW38ctxHVLpt23vslTKvaU7wkof2DHZ/i67McdZ/RnOMdf7u3kCi1cnioOfDf3HsV//qM1MzLOcbLFgMPdZxhGiBD//JuUOe64v9P+MJmaqB3/+DOvP1xP6fG4j+Yf/197blJiLsY157Pvwnx94feBdm6vVgqeakl793ms2wdBML85s54GmOfIOXJEKGAubbE84BShKana9wvNxb+SwSVuQSa3RclMxYd6/iiA9JisLzq0lTXcy6d6f3bat7/V7a414Xxk1kN21yvrQ+M50jnm4uMtMIMyuJ9SyHapi7Pg0dZd4fbhiymL95k/P4dJvWctTTOeFPeUMWCSvSCAPC9HpCqbYnCFKSEM416vF6XH08Pr3l3b5fzFhNZsLMVRzwlNTQ3/L+CrvEQzGdpEf8U3ndE0LlqQm8cW68W5kv0YZ8Daci2Njluk1b+7d4uS4MjxNDwi6xbs7n3Blis5e9jZfdU2qEdbEu5l/grL+LdfakYXATbe0TeLnuZi/1q8t6ab+dPradTdHQ1uNIKnYbhz2UG8z+KnX/s/eNiM/Yu6j35cef6Nh4ztMOBI/vv/9TWW2bjM55fXe95nm6/rpepwDbHP5qm+N8WaupYGWgpn2HqZMf9ne+XWZB4kWyIr4i0pE3pecmPj41kY2evmd73S7nPzfxcctENjZ5Ka/i/p23tWhZ6cN2/fLjfAbQT7nAkzO+VM5noK3nW5QdG88P53zOnV6TNDZz2gKPpGZBeWASqQ7tfBjofs9+fgJ6WyjTOG+/X5pAui2R520heL8vG+h+SX1PCmc0Jv4bI8/bel8vYpbzflZ9r+a5/h5qNd3oOc8izdn+DlkAZXG7EbC0erm7Ux6OY0xhmmEDHf0OA4/hOyvgyPL+r+/KvUKMknzW5b0Bro8D3Z/4cj01FDB/xXTQ62FnCkdOqq+RZrpNJRxd7vrwYTD3J8o20G3RE6oDTGuxeLuuq9s20P2b437D2X7Xfe42lXJ0uYccB0MWQ5QORtEsVOFBEAJ4K+8xi/8iBDNxFNngvXEVrAQcGW7/YAvt/WHTfMQdGiUQdKXMxauy31h4Fsf+K6H897hqt/px++H0X6OmmjvsF5F0WwbPD7iFEmijOcZPxzkeUMSx/4qR/ZhYNOggvpFF46z2C4frBaFRU80d/IC/cp6fqh+KgP3BSCi1GhN32D87zvYDNtqM6Oh7gfR7f20/YL8tErOz/gnOFQJgaInsnHQ3YPzZdZx64R/UtaAE38/exILfwuFfuAbZXaX/YH+p8t9Tfh3CbG91ttjofv/fROTfQI/uBhJ/dh09L3zF/l/9WwnQi29iwa+vsP9XX7tul3ozxvzr6Cm8xP5D/wauUzLm/+w6oL9EdvFE6wHzKa/LcXQUruID/VbmLq0kO9mMdecqjgz0459ZSvZ6PdZn0tljLxueWcq89ZWE4SEANhSwcF8OmNZSFWu/YBkKWLivkoV4uJj2aWMKVVSTpi+harmHp+2O+nevdf7dW3s6ClPYY19hQFfcylx8yygfHq3nnGMawslWuklR5sF7OrCZpSxcn0yX8/jEE57/BPMeVXofBl2+oZkvDsEXwO2PbrIPr4sn4eBW2LmKPctRMgIvfQJdoSozrx/Hp7d8CueeSXeeC+GZBcxbn0MoVX3b7295f4V1UbSgA1puZe3+CMzYA4LZ59EyrTfg7Lqes2038P3ZX2IN7WLdjH9hPTaRxXXjleBqwedsShzP4rqbXeufcoGi2V9i/WQyi8+NBy4rmblnfAmoM3LfzIc9/yIr4iul/kj48Ng0NnahBFhzPmeTMZy1JregbcoF9s7+mo+d9Xtpv525KYLFTcp/L0g8w+Pejssg9rdv3bf2PR7DzPff/y5aCcVIpHJ9vxKKZVyd/RqgXMf/QDd3qAKSvnUfc/l7wIR2UTTjX5Qdi3A7H3A7Hy6xbtHn3Nl+K2v39z7s0U/p4snZ51nn4Xxwnv/tvee/8t55ipg8YDBubopgLe1sCpnAWm8PmPzh5/nMlAtsmv01lZ9Mtgf4l1mQeJ7HF9zCq4dvxRpzmbMen1rX0xLgNCyDPx8c93t1rEQ531b3Od+6aAVagbuZY+/4mMDqK4mgqeOOcSj3UrZZpGtUHR4+3S918tI4E1wx8rDmmP2ergJQ9kF5/RF3aOLYb+t27agijv1XJmNyqT+OjbaZTPN5RaQAMp/yGvR1ms1gHLiK8Mw0tB6uLR2FKex5R7nehZrW2u8t6jkS20zCwSf4Yk0OFvdrtr/3Jz5fTw/wqfkJ4o16uqILmJ8Kn66ZzpEGlOB48ybSDs5wydI/mPuTvtsMwNf7t4Zmvjg0gynrk5X2PzqdrjWr2LO8Xulw2LeJtOJTfq7IM5B4MvNz0ZtKRvVyx2IQQ+hv/ba2zz9XnVRqzmMGkmzwG02jqlf4LC+NO8kZZvJYAJKFJ9lC+W+XXuezvKRpgwDV77sJrL4yk2mcdPvRtmICptm0Q5wC0Gnfr1BmuP0ljlBecw/emUqRLZJaTbXLU+ZGzUcs0rSRZEth9ZDao9Q/TXNMVX+ns/5AifiP6zj1i0ucczwGbPmapt//G7Q3EDPoNeL/zblDV+gBIv4Dmn9xiaaWfzvrb957BaaOc0tccj2J+dcR8uE/qTv0b2c9XaWXMP3exyz0/arHsjyFqmdKsaJHu76S7KZq5udneRnGlsX89clYn0lxCfQdCWW066tJcEnwZk9aYyl1fdrccIBzvg6XMxTwHW/Bu71+dqdzoHBoSXG8U+a/f+G48Df0Nw9eOT6hprWq41NPR2EOB3Z6yirvT/l6LOVlWMrL+FuNcmc7rfgJWJNif3Jez5maGqzPqKc9+H98dCtyYPcql6fxHeUbOPBAKd36vqsS+FveP5d5aE4HtExmZVNv8GE+N4mXW27kztkXVOu0j+fwufFYgTsj4E3TJN7osgc3XTfzZsuNEHLZLXHVJdbN/pLI9ltVvZ/jlczcp9yW0+oaz+GmW3rrrwvjsCPw6LqZN46F0xbSwYMua4Ir9X/8SYRL76r53CRWfnILd85u5yH/MhWpDGZ/x7JOKjXdvdf3cR/xkrMv7yy/0fSALXREprzdGfEvykyTXM+HU7dAyP/nej5M+ZI7uZHKZtdA2nzuZv7cA9pQ9+kSyvkf2RPuOrqjSykfGXFp4O83rIsHAxW8+30+X+ahGV/S1jJR1Ts/nsN1t/IxX/LDsJt5oy6Mw0NuV3Al2WDduI9UI0POUtXnfOukUnOWSo39XATSbLNgXLW9J72TKk0btZoTqvtGf+6XOpXPVKmkzbUNtlDMuN6TpdtmgqbOZfRjo6aRReNOcmY4/3/xOSmbnrCZru+ELq0ku6nV+S+tv+XlGjZwdLcZjLnOe5Hw/K2E7fQQvPt9f+LH9bShHkthFV2ANhn+tnxD7+c3lHF8TSnduhy+M6xZ9P25f6vHUn6qt/335nDcMSKzoYy/7TbDkK/vrm0radrKPZTwVEAfCohgGNQc+M//bnX5502tx6HsSlCbxNCXkjnj8iNspzlPLaAfzrRftlk8jKf97aRV08ZrGuuQh/Qr+xXJ3S4PJqbyGOf7PAONs8WQRBvveRqGpjnBa4RgHMocR9tkkujhtSAP++r533/RZyTpocu0AyG6oc9xb/9936HyXRYbaK9zvciljieCK7T8X7de+QDrKN/AkXuns+eBtVgtoF26ibSDfYO78PxctN7msJW/QpN7YOtIWrPTfahVPV/U1NC003MCPSdDAQs3w988Bu+AYSFTdObe3nH1Pr1THaBlZhzz31Vt9zYPPjMNLWaatvt4AfK3vJouh7BDrmvndhTmuI6gGMTx6TSbPe9bwwaO7jzV521/y/sl7BLfD7mRP1v79jKard+gjS/54ZS+m318qu/QZXP39RDyL25Xv6kKqPzhqX5HUHVnZO/SbPrYTu7kFj70NCz93AQqe77i+9qhz3H3eX+vEp6u74104+lB83Boa5/QNwg9dwsfo3ENys9N4NVPJnDU11UFpnSSHmLz8P2O52z7LVSeGiAoD+uiaA68GZDgfTDn89doQ8Da7f7/7/VYPT6wGJ0Gd77NRMdHLisqNGo+cgnU/b1faqQbbJNJt79OJxKYTJrzNX3qOkUP0zyGzo2s03R7bf1o4r6M3EAr5HQUrqLJoid2RRbh9g4Az1Pj/Lw/GeT9Rt/6cT4k0A5jFn2/79/sPLW/o8UMukAmOS4jNzaFV8lli1/L54nh9oc9ZSORxK6TVg0BeUpv9jiLpwsLePmxDI44QsHLBaBS85HHOef+O8t7GrcHH7bJ6HF/ODCBNFsIaM73fbgBOI7/UEYFKPvbTesgt/dVj8VT77aNHivKHPZhEqbTADa6BzUhyD4EUT8Dn1c9a1DWIK96ppRuXTJzDxaonrDGMy1ZD6YqL3O/7YGt6ql1eLQeb0lrLIU53udgg3OoWmg/Q+6UTK2q3nGXfVGeHodFDzGpS2YaWuMmlx6AuUY8rgev7K+X9njgb3kXllL+NsA4s8Ecn47CEqz6TfaRGAXoVCdPR3nfByn+lveHkin9es9DbLuU3uehBAH60K/BW/1+G8/ZHlS93peZF/EVtN/ipYdRKe9TL6oY1foGqOAIUiND1A9fx3P43M2YuYx+ShfrEtspMp5h7yIr6SF9h+4p52eIx4D5cNMkr3POAefQ+8ie8QEJ3gd3PnsL1L0F9mr2KWBj1kl+0++twiDulzTnqSWU6fbtp9sAQtDZAKZyN924PzJt1DRTa5vDX6+kUGSLcwb/yt/cR1AGkf16MzAzXd6S9tgpGev7U6/0cBs3kbZ5Op966dH19/4ksPcb9jn/Ae3F7o//928joaGwBHMQV58QgRGEOfAiWCpp43lbDKs1Z3kJSCcUU0AeDohgOmk2g3E6M/E8XdubjvINHDgJC/fl8J3MDZ6fXgeT/gkWbob63TXMXbqJ+Zll/bQhmblN3ud+DbWPITxaT9MD013XVrXPI/M6D35U8ff4lHHk3mbCMxfynUdzmLs0h7mW/vIj+FveXz08vqjH61zwwE2cESL49LEXeDL6S+i5hT+fmsibXeMxd13mIeN5vh+oDwnppGgOlLXcwuPRn7FuyvAnJ1SM541Tt5A++yIPdU/snQMf28mdPeGs7bdNSjIr004ZTturC4u9V/4ljRYjJ3lNM5OHmWrvVDnhISA/y8pxXcTZtDxmm8nztpk8H5Akx/5Sssxr7QGrpwe7E/TKA22f6hqoWMMG6k05ysP2gAru/YZo5rQlbeBiYkRJAD+WaM5Ta5vjvHD8F80sGngrMcIa3qnGsjSFaI+BZjwJxQs54y2TaMMBzllymBIdDwQiEPNdqL61N7mLvpW560vRled4eXJcwwex3v42VPb574Vub5dXYV2/iSn3xffOCxu1BnN86ukor+dI+QZlaZoVW4lfX8nC1LUc8Nib4W95f4Tw6v5Jo36erBADcWSE//gTrfeM8wEQGXJDb/K8kC95fPYFFpwbof+Hum7h4/Yv0c44z97ZjlUevsWrx7ysCOGQmYYRM7sG6I29tijz4B8mjDjbZNDUUcVkHrZNZrUm1MvIUGW7Rk0nKzWNYM+K/182I/s5NoxZ6B1Z5pVh157y2XxTD1iqOTPgQ/F6jrtfk91llhJvXkuTfhNzi7OwBGxedTDvN4QY/X6anTUSQ+jtQ4403UEaNhSGDjjj40ChQHDMw5rutcRU0gOSVE8ZRj/NpmW1bTJmPP3od3pI7KKmHP8zQ5iXP/D+BpOGEC30nB2+LIVdFhugITR6kBU0HOA9i567PSZcq+cLUpjm8/j6es7U9Je4RLkAd9f0zhvrUMbwKz3VHmWh8zBWSl2HZflarCQz18O8qIHrHyLDQqaYPQ05s69Z6zb329/2BLv9/tefxXz349ygJDo88ECpS2KgwZX3j7n7euBrpgZpVlJg67/M1BDAOWR5PEfb+0skp5Rvaw/M/GQx2ijDxNt6HH0VjiHot/kcvA98fl5igYccEOpzypEw7vHES30L+mUw5/NlHprTCW2T2GiaxuL9Ohbv17FSnQDSi8zUZDCVUDjqRzgN1uDulxzz4B8DTJpOGjXnOUMkD9u6PUylnEqRzT3nUyeVmmoWjTsJtpghJhX2j+VQDXjNSxNDmM712u+L8PxSD9eYLOantnK0sMw5lH6+h8/09/4ksNdr+wOLfqYIBpb/929CeBPUAN5jIjlHwjcPwWff8vb5SX7VryRYG9ah5Zrz1PaTGC7ONpnpAZqyXYmSZd/zhUKhXEy8ZOK3zeLhoR4fr/s7gdXONVCHzmOiOntCuXZTILK/++jQZdoZR4TRvT3XEfszX5Lp1VO4swbd0ic8zinqNEPs5gIvP+gxhLklbOl4p9p75tTMJ4h1T/BSXoUVbxnbITw/jW8O2MNSxpFnasDTRbifxCtK/Z4u7t6F5xe4zmufOR3MzR5K2i+G7vPgve5vPAmPesic6295f/l9fJrp0nsJuj3OYfS3vJ8GSPSmj70whCzu2BONeapfyZ7tjcd5946EY22qZdus3/CQmV5d3nOCvpGij+1SZfUHDFmUNLVy4mAp+cF6SDaC4tzmBA+W5/NBSZDY+/0qAf3ALqN3nNNez0+FPvZLpg74P9nNbPzkFoj4jHWezkM/+H8+K/Pi75xtYe8iC0XGdooSL7AutosFU/rLXZHFPUYzuwaT3HMIAnU++GpQ90v2pMJJNkcS4W77A5O+89+hC4vXIL17+B8clr9CkwW0j/a953AkWKsfYFlZV1l8J7m1T4+9rjiNru32EXz2rPSePtPv+5NB3m94nBfvSKB3yPdzvM/9iZ/8vn8Twovg9sDbZlFkm+p8shlni2O/LZIzmmNu65A7epZnqX64J7DaNgudpgeYycY+P+o9YEukSBVE9tZf55J1NPjOslLTxjSbkf2q/VWGSaWwkROBa489y773pCugZDbtIcmW4vH41A75+ChLtEyzJbLaWb8yJEynaQMi+S/bD4b4VPkK/MeNJKb2BshhqTcoa7Hv/YqmQSWUGyxlebmQxTcS62zPdUz59Y2EnFXWhJ/x65uJ7a+HvjyHp03JLMvvexFRMonmKBnnDaq/G7KYf3ATYbtXuc79dlwM11czP7O3fHhmAQvXJ2N9xq28PfgOXVrJQpel6eLRFVczj1fcynvfhw9MKMu0uFwglWQ1DKJ+y6EaMKb1XnANBXxHf8qlt12XOlAQncztmerjqiyvErp0KwnO9+PRFW8lzKz0PsQXqy/y/pb312COj57YfdWq9tjL5+ei9Ti80d/y/hjPG8fCIfo8RbHq5FiXWZDYzpNM4I0hPSVQlluLjL7IQ86A4jILEi+i7bkF6CEr0cNDgohO1qnao5/SRdHsL2lrv811rnFXmH25u3bWqQIWR/mPP5k4xPYP3uG2WyDiy959C+viwZDxrsOsZ6YpyzLrknlkxdjODKwsuTVZdW2I4zG6+7mW+epGiLjo8ftta1F/vzfzYTv2QFpVNuwS64wX+T6OhHdfM88ZsCvBd2S0dWjn/7lJvNquUZZdHMoDr0Gcz5/2XM/HLbfx6ie3UXZqAn8GiPgHWbPPs3eR52UUM4s3YQxy73vwzgd/DOZ+SUmW3DuSVHntfWRjCA9fSVHdL4FyzxRDkoeVhIKrnuP3rsWqy2Fece/1KDyzlLSlYH3G96Hp4ZkFLGzahNatBzs8v5q5VLmtzlLS5zMV/t6fDPJ+I/kJl6V5HfdL3aa1XnP7+HJ/4je/79+E8EwTMyvKr7HIt35b2+/ScYqpFF2ZA5oKfsMP2GiLZBpAv0k7JrDalsjDzh73Nn457iNO2VLYyHn+m25OObN1TqXIBis1XaTbZvFfPtSfbsvgeW97qjnGHW5zkOJsKfzBS+//GY2JRR73YSpFV2JIwrFdcJKUpNtSuJtqt4cgfcXZ4njMNpMk5zttvKY54TEr/mD2N87m+t2+pqnjJWax3wYmzXmqBp1d9XoSfw11v7IxJecGZiy+Tjmi1iu0//4r1VrsvcJyvsGCxZ6fR/XsvYSp1L5N6s0sylf1mn/4T/b/SslQPOXXIcz+Ye+f2gt7qDuk+ozUm5nzs+sI0Sptafn9VzRxA8afQfvvL2M1f01Xvw8WsihpyuX0AymuN0WZBSxMhXoz3J6cglZnv0UcIAlZeGYB33k0B63jcbClhqadr3jPKm/IYv7m3N76MWPdvYoj6qftjqzzjteWUuc8+PD8atKW9t6+Wp+Z7nrhM2SRsCKXWKOq/mcGTqKmK65mrn2bblMpR535AOJJOFhJrGP/TGvZo5pD596e7t3pHFDtS3hmKfMeTSZUB1jMNO1cxXGeYOGjcG5nFWdOltGh+h58Ko/b8VFza18fPh+feBKKtxKGGfR6l++r21StOj6DLT9IYZd4KKaT9Ih/2t+4iY8/meg6FHnKBfbOVq2T3H4bi+uU3vAFiWd4PKL3R/jjT1yTeumnXODJGV8SGWKDnpuoPDWRN+ikaAb8+dQtHO26GXMXwCXWLfocPpnGm1zgydlfEonNc3tQ19/FgzM6uNORabwnhMpTEzxmEXfMk/akrUXLyqbxQ95fhwWJ7VmWyE4AACAASURBVDxuP6Zt7d/i5bq+85INmQVsWa+sfZzmV++Yb3z+/bf9gL+qR1mprp3u19haTYXHa1S6LYXn7Z91RnOSdR6Xm/XHJdYlwsa661kQ20lWtP186LmJj095Oh8uu5ZDOe5lzWEcDrtA0ewviey5hVdNbvPVwy6xbk4nd4aozv+WiWxsUtXvyDqP4xz7lnMevPs5pT4f3M8VF6pzSs3X81kf286mkAke63B+Nre6/j2zlKpHW3nq3g1Bzw/a7/ng9/kWx/4rM+33JG483Oep+XO/pJRP4THVfZj7617Kva2ObrCFutwfntGcD8D573addKe6hvfZrnhr7/XIUsMHa9zWac8sJbu/9d7tnPcCbvcPzmuy+32FpznsvtyfuJX37XqaxfymTfDMdP5GKfPWJ9vbMdT7k17u9yJq7vclzm18uX9zP/6qewxdcatLcsA+92NDEk/+wa2wxvVetbJcuSFOz0wN1AeJIQh6AD9QkCnENcWQRcnmNN69N4fhTiovxNWhN4AfmazeIyGe/IOVRO2cTq78cAg/eAzQ3f6e1TO596EUWZQclGuUuFr0BvDDvpLPGGbIr6ZMX0LW8jLnQzwJ4EeXICex8zwnXIhrVkMZuWtauac4y/d14YUQfQ1h7fmxxpD5BHeb10rwLvx2uO0W2iI+dxv+D8pIhHYej1DPmY8nvziNd9dI8C6uMj6vDS8AGgpXsYtcyppaKZEF4UelwPfAuw95sg+FH945TUIIIa467kPWr4Hl7Qz5pWzRV/GUqidECL/Yp798P+Kr3uH93ERb+zeUqQMjlANCiKDqMwVAlp8bCumBH12CNIReCCGEEEIIIYQQgTQC68ALIYQQQgghhBDCXxLAXw0MWZTInGrhVTz5xaUe16AXQgghhBBCjB0SwI959qzmMj9SeFVP4fIq7jkoQbwQQgghhBBjmQTwY1o8+QdzOe2SMTYSQ1QkmUuyyU/qZ9NhZIiKxJCUTcmSyIELOyn7YYhKIH9JNlUFCUFr33DTFVeTMOzDJcrI3QnLDhbISA0hhBBCCCHGqOtHugGj31RWX5nDw/Tw2rhqXvJ1G1sMD9tC7K97qNXUsVLTGdCWZRZXcndNOmmqrnfDkiS2ZMSgA0zbAvpxgxOVyuOr5mHUgqWi1ufNDEuS2JI4CZiITgvUNQWticNJV1xNvHkVB0ZiuER5DjtSW9mSf4C0wvoRaIAQQgghhBBiKKQHfkD+rq8Sx/4rc9BRxx3jKrhjXAU/1UCSzUiRX/n+B2AoYJmxhh1ugVjD63tIy6rAFMCPGpLTh8hduYNdfi5c0PD6HtJWbiNt5XM8XRecpg03Z/AeyOA5PIu0+dW8mN3Ki9nVpIX3X7x8eyks3Uq+dMMLIYQQQggx5kgP/IA6eWlchY8975Bum8k0zTEWqXrbGzXnqQV+owlcqzJX5MDudNXQeTGahecHMniPZ7LuCbLjk5kU6uemDRvYYcrhxRVZFC4vC0BbhBBCCCGEEMNFeuCD4EyfXvtGVmoaaQzUBxgKWGY08947Mgx6LAjPr2YeAex51z1B3lx78N5dw96qtX6dW+WHasCYJgnthBBCCCGEGGMkgPfJBNJtE3wqNz2Qw+S9MNyXgg4zLZJ2ftQLePAOYKmisbuGwx+k8/SBHP7S4ef25VWYSOYeieCFEEIIIYQYU2QIvRdxthT+YIMzhDANQHOMSjwnoUu3ZfC8OnC3Gfmr6vUZjcllSP1QzdTrwVLNSV8KRyVQsuoujNqJAFjqjvLUhkMelpyLJLPgAZYlTkTneMt6EdNb+8itbfNad/6Dd/FI4kT7GxcxVewj93Uv5VUMS/Ioy5jofG2p2EGaD9v1KyqVEnvCPKX9zex6q5ZCL+03JGWz5ScxSpI8wGI9yo6tf+eeVRkYtRfZlb+NwtODb054fjXz9CUcWB7okRJlvH5gKMPfmzltgUdSs6BchtELIYQQQggxVkgA70Wjppo77HPW020ZPN9P2UpNBZUagAmsvmLEGOCA3VU80XrAfGrgdd+nplL1k0ns2LqN3NMoAfeqDMqKIGulOohPoKQsA2NdBVlZx53vG5JS2ZK3jBKeI9c9gXxUKlWF80C9TVQqVYXLqGLgYLzh9W1kkUeZ9n2yNhwf+hr2SdmcyJuEadsOZtkDdkNSNlvylhHlqf1J2ZTlTWLXth32AD+SzIJlvFjYzNP5FZx+8Nu0BCR4H40Bcj0t5pFugxBCCCGEEMJfMoT+KmZMnMSOlXsodwSip49T+FYzaOfxuHqN+KRYjFxk15uugXRDbT3vWUE/1X399kjyV81DZz3KU+rg+7RSXpcYP/Ba41GpPB6o4J0ESvJiMG3b5jJaoKF2D2nbmjHm5ZEf5db+n8Rgqdin6p1vo3xDBSZiuOf24xRuODT4BIGZpaQlV3N0VAbvQgghhBBCiLFKAvirmKWutm8QWtuECbegvLaWp7e9zzu+9jgnJfGIFkxvuQ/Fb6Olrpldb9X3H5RHpVK1Cl4NSPAOhiV3YaSZdz0tM19byy7rRO6ep34IcRtRWjCfdR8l8BmnPT6w8FN5DlU1KcwrzhpaPUIIIYQQQgihIkPoxxz78Gf9DAzQbwDcN0AFR5Bq1N4GqHqf7cPIDUnxPP7DWegnT+ydG+62Drth6iTwEjCXv76n/+bbh97r6ioCErxDJPclToS69730mLfRch4eSYzH8Hqb/TOVY3D31Eh6jwE4A/u3hjgXH+goTOFofjULixmFw+gd0zBGuh1CCCGEEEIIf0gP/Bh00mwG3XRmBrBOw5JsqsqWseUnkzj94T6e2vocs7J2sMsawA/RJlG1ahI7KpohMYOSpIE3CY42Ct9qRpfxAPlJjt72SDKX3IXRepRXPfXkD0JHYQpHzbkszI8PTIUBE0OUDkyHRtuDBSGEEEIIIUR/pAd+DGp4pxrL0hSiB+qC95EjI7xp2w7vGecDQDf5Qm/yPO1zvJiXTWbtnsHPNR+KT5sw1cUS9ZNlnMhT3rLUHeXprZ4y9A+esyc+P8BLyQ1FZhpGzOzyaRkDIYQQQgghxGghPfBjUcMB3rPoufu+wfTsKsPELdbP7K8dQ9ArfA7eG85eACYRHeWtRAKZHnrXLXW9c+MdCeNeLEjwr/l9tPFO3UWY/G0vifMiiZ7s+tlKEr674MM95K58jllZyr+0DYd6E/4FUEdhCkfZOmp64jNTk8FUQmEgn1QIIYQQQgghgk4C+DGpnsKdNeiWPkFmP6U8JmOzZ5x/76gjWFcC+oFFYnAE7LVNmHBPDNfLsCSW6E8Hqu84udsCM5S+4egJLO6Z9R2SknhEq95fcMyLN+Y9x4my56gqyqOqIJuSJalkJg0xgZ0XHYUp1OtHQxCfxT1GM7u2y/B5IYQQQgghxhoJ4INgGmHB/5DyHJ42JbPMa0B4ERIfoEQVkBqSUqnKsy+f5uxpPs67ddgDaVXZqARKih7gbkCnvQ24jfucAbsSfOsyllG1JEHV8x1JZkEeW6hV1d+P2j08XQfGvGwyvfbm++D0IZ6quIgxL8/j/pq27evTnpPWC5gqKnh6WwU73nqf9wASZ7EsbxknytyXnQsMy/JABfFZLMlu5UXnv03EAaBnQZrq/fl9s+BnFm/CKL3vQgghhBBCjEmamFlRNn82uPXbWj7/eyAzm41OcbYU/mAL8fi3MxoTizSd6tLsvzKTaZ4Ka45xh+ZsMJoIZFHSlMvpB1LcArIESgogd8NnZC5JYllGDDoA60VMb+3zMFQ+0rUcynzwHW8eovz2bKryYtBZm3l6pdt89agESlbdhVE70f7GRUwV+8h9XVW/I+u847X1qHMevGPuvYNp23Pk2hPIZRY8x4uJXna7roJZG473eduQlMrjP5mH0TGiwNrMrrdqVWu928styaNM+77HOpyfjefPCARdcTXf3J7C8UEH0VkscQbt/bCu5ekjqp72zFKqHm3lqXs3BHSevxBCCCGEEGJ4SAA/1hmyKNmcxrv35oxMMrgxaKAAPbPgOZZZd5D2evAS+g2/LEoOynkihBBCCCHEWCZD6Me6hjJy17RyT3GWlyRuwl35h81YEjPchv+DMhIhjxcT3efMj3Xx5Ben8e4aCd6FEEIIIYQYy6QHXlybohLIf/Au7k6c2Du8n4tY6k4oUweCkI1eCCGEEEIIIYZCAnghhBBCCCGEEGIMkCH0QgghhBBCCCHEGCABvBBCCCGEEEIIMQZIAC+EEEIIIYQQQowBEsALIYQQQgghhBBjgATwQgghhBBCCCHEGCABvBBCCCGEEEIIMQZIAD/sIjFERZK5JJv8pJFui8IQFYkhKZuSJZF+bKXshyEqgfwl2VQVJAStfUIIIYQQQggh4PqRbsC1xrAkiS0ZMegA07aRbg0Qlcrjq+Zh1IKlotbnzQxLktiSOAmYiE4L1DUFrYlCCCGEEEIIISSAH3YNr+8h7fUESsoyRropitOHyF1ZT37RMu72YzNlP5T/zix4jheD0rix63vzW1ms7aeAdS1PHynr+354PN/7zlaMWj2T7G9d6K7BdDSHv3QEo6VCCCGEEEKIsUKG0AsxWoQX8FRaJYtVwTvApNBkFqdVs0Q3Yi0TQgghhBBCjALSAy9EEDV+MJ3XLb6UjCdtXo4SuHeXsvfoBnuPezzfm7+VxVo9cXNL+Z4lh78Es8FCCCGEEEKIUUt64IUYDXRPsCAUoIa9BzaohsvX85cjqzjcDZCMMSF+pFoohBBCCCGEGGHSAz/SohIoWXUXRu1EACx1R3lqwyEa+hSMJLPgAZYlTsQ5ktp6EdNb+8itbfNad/6Dd/FI4kT7GxcxVewj93Uv5VUMS/Ioy5jofG2p2EGaD9v1KyqVEnvCPKX9zex6q5ZCL+03JGWz5ScxSpI8wGI9yo6tf+eeVRkYtRfZlb+NwtN+tiGzlOz1yT4UNNP0QArH+34RQfG925U2XWh6pW8Pe/hCDKHKf04KiwHq+1ZgKKBqXw46ang6NofyYDZWCCGEEEIIMSIkgB9JU1Op+skkdmzdRu5plIB7VQZlRZC1Uh3EK0nvjHUVZGUdd75vSEplS94ySniOXPcE8lGpVBXOA/U2UalUFS6jioGD8YbXt5FFHmXa98nacNzDAwU/JWVzIm8Spm07mGUP2A1J2WzJW0aUp/YnZVOWN4ld23bYA/xIMguW8WJhM0/nV3D6wW/T4m/wDlCew55RF93Gc2sYgJmGM67B+eSEavJi9b1vhM1gMnB+OJsnhBBCCCGEGBVkCP0IMiZOYsfKPZQ7AtHTxyl8qxm083hcvUZ8UixGLrLrTddAuqG2nvesoJ/qvn57JPmr5qGzHuUpdfB9WimvS4zHMFDjolJ5PFDBOwmU5MVg2rbNZbRAQ+0e0rY1Y8zLIz/Krf0/icFSsU/VO99G+YYKTMRwz+3HKdxwaEz0MsfNbeXFbPu/hdU8Nb+A74W7l4rh26Hu78XzvfmO4N3M4Q9KuQAQOp0ITx/UsIG02OnMkt53IYQQQgghrloSwI8gS11t32CrtgkTbkF5bS1Pb3ufd3ztcU5K4hEtmN5yH4rfRktdM7vequ8/KI9KpWoVvBqQ4B0MS+7CSDPvelpmvraWXdaJ3D1P/RDiNqK0YD7rPkrgM057fGAxRoTqmaTNYXFaK095nMtu5vMOIDyLJQuVbPR017C3KoUqyyk+H+72CiGEEEIIIUYVGUI/gvoGqOAIUo3a2wBV77N9GLkhKZ7HfzgL/eSJvXPD61xrMEydBF4C5vLX9/TfKPvQe11dRUCCd4jkvsSJUPe+l57hNlrOwyOJ8Rheb7N/pnIM7p4aSe8xAGdg/9YQ5uIP0xz4vxyZ3mcu++TwLO6et4m4UJgUu5W0MylUuaztrudWXQFPzVWy0V+wrmXPkTIZLi+EEEIIIYQAJIAfMwxLstmSEQPWZt57ax+vftpGw+lI8ouWcXegPkSbRNUq2FHRzIsZGZQkHe87N31YtFH4VjOP5D1A/tl9vXPgl9yF0XqUrKG0aQTnwJ/vKOP1A7AkexNx6Pn2BKADoJm/dwOhehbMzQHMNDat4vXjqvnw4TO4FaC7lfYRaLsQQgghhBBi5EkAPwY4MsKbtu3wnnE+AHSTL/Qmz9M+x4t52WTW7hmZOdWfNmGqiyXqJ8s4kae8Zak7ytNbPWXoH0scwbr6vXo+73K8Z+ZwlXvPPEyelqKsEd91SnrkhRBCCCGEuEZJAD/qKMPELXWf2V87hqBX+By8N5y9AEwiOgrwOG8+gcyk45S79WRb6nrnxpdvqOCesgxeLEigfMPxQe2Joo136i7ySOK3MYDH5fGiJ7t+tpKE7y54a9sIjQAIIueScGb+3tn79l8+rWGxNhm6q/lrh/tG8dwxRclE3/hp2TA1VAghhBBCCDHaSBK7EeQxGZs94/x7Rx3BuhLQDywSgyOTe20TJtwTw/UyLIkl+tOB6jtO7rZmSMygJGmgsv1rOHoCi3tmfYekJB7RqvcXHPPijXnPcaLsOaqK8qgqyKZkSSqZSWM0gR3xTNaV8lSaMr8da4lrL7ulikaA0Byy52cx2fF+eBZpCytZEAp0l/KeZXhbLYQQQgghhBg9JIAfMRch8QFKVAGpISmVqjz78mnOnvPjvFuHPZBWlY1KoKToAe4GdNrbgNu4zxmwK8G3LmMZVUsSVEvGRZJZkMcWalX196N2D0/XgTEvm8yogYt7dfoQT1VcxJiX53F/Tdv29WnPSesFTBUVPL2tgh1vvc97AImzWJa3jBNl7svOjTbxpC1ULR+X3cqL2ZXkzU22J6crZdsR9570Ml7/oIYLwCTtJvIc26VtUoJ3zBw+usH78HlDAVVNrZxoKiUziHsmhBBCCCGEGDmamFlRNn82uPXbWj7/uzVY7blGJFBSALkbPiNzSRLLMmLQAVgvYnprn4eh8pGu5VDmg+948xDlt2dTlReDztrM0yvd5qtHJVCy6i6M2on2Ny5iqthH7uuq+h1Z5x2vrUed8+Adc+8dTNuecw5pzyx4jhcTvexeXQWzPAy7NySl8vhP5mF0jCiwNrPrrVrVWu/2ckvyKNO+77EO52fj+TNGh/jeXnMnMxes1Zj+doC/dNR721BZQm5eLnGherftNvCXPkPrVQwFVO3LQUcNT8ta8EIIIYQQQlyVJIAXo85AAXpmwXMss+4g7fXgJfQbkzJLOfFoK1n3bhjjif6EEEIIIYQQnsgQejHqlH/YjCUxw234PygjEfJ4MdF9zrwAyExNxlJzQIJ3IYQQQgghrlLSAy9Gp6gE8h+8i7sTJ/YO7+cilroTytQBX+bwX1OyKGlK410ZPi+EEEIIIcRVSwJ4IYQQQgghhBBiDJAh9EIIIYQQQgghxBggAbwQQgghhBBCCDEGSAAvhBBCCCGEEEKMARLACyGEEEIIIYQQY4AE8NeUePKLqznR1EpJ5ki3RQghhBBCCCGEP64f6QaI4WPI38ojlJAVWyZrhQshhBBCCCHEGCM98NeMeO5Lhl3bJXgXQgghhBBCiLFIAvhripkWid6FEEIIIYQQYkySAH5AUymyTR3pRgghhBBCCCGEuMZJAD+gUPQj3QQhhBBCCCGEENc8CeAHEGebzLSRboQQQgghhBBCiGueBPD9iLPFsdEWMtLNEEIIIYQQQgghZBk5T+JsKfxBHbjb5vBX2xzny1pNBSs1jldTWW2bjA7Q20KZxnl+Oq6RRiaQbkvkeVsI0EOtpo6Vmk5gKkVX5pDkrK2NX477iEomsPqKkYed7/fw2rhqXgrYXsUQpYOWgNUnhBBCCCGEEGI4SQDvQaOmmjvsAXq6LYPnOcYdmrNeSnfRCrQCdzPHPtx+AquvJIKmjjvGoQTmtlmkaz6ikrOsHHfW/pCg2x68A3Ty0rgKqmwpbKSZdZqzNAZsj+LJzM9FbyqhPGB1CiGEEEIIIYQYTtdcAH/rt7V93vv879Yh1NhJpaYTgFPEkGSDNNssUPWeV2na0HHCHqgrGjXN1NpimO5W2wzAFNDgPYuSplzYXcJTy8sCVqsQQgghhBBCiOF1Tc6B//zvVpd/gTUTHR+5DH1v1HxkHz6vdpb3NCEYbRNU78XxXzQHcNg8QBm5sSm8Si5birMCWrMQQgghhBBCiOFzTQbwwXWS32gGLgVQSRvTbFri7K/jbJMx422o/tA0FJZgNqaRGZTahRBCCCGEEEIEmwTwI0lznlpm8pgNYAJptm7e8zH4918zpy3BqlsIIYQQQgghRLBJAD+izvIbTQ9JTAW0GDXnXebJCyGEEEIIIYQQDhLAj7BGzXnO2CazOojD54UQQgghhBBCjG1/2FMmAfxgxNniSA9YbVZMRPJwUIfPCyGEEEIIIYQY6ySAH0AlbWCbzGrnO3E8RncAh7p3UqXpARk+L4QQQgghhBCiH9fcOvB+03zEL0nh+SsZPAyc0ZxknUY91D2O/VdmMs35eiZ/uDLTvu0x7tD4Miy+m9phGT6vJ9oANAzDRwkhhBBCCCGECJifZmdJAO+LSk01lV6HtzeyaFzjEGqfQBrdPi89N3j1vFMDZSuyeGd5mcTwQgghhBBCCDHGyBD6ETGVoispFNkA2yx0WBnKIwBfNRSuYhe5lDW1UiILwgshhBBCCCHEmCI98CMmhCRbBvs1x1ik6Rymz6yncHkKhcP0aUIIIYQQQgghAkcC+BFxlpXjZMk4IYQQQgghhBC+kyH0QgghhBBCCCHEGCABvBBCCCGEEKOdIYuS4iwMAMSTX1yKpDQS4tojAbwQQgghhBCjWhYlm9N417mSUD2Fy6u456AE8UJcaySAF0IIIYQQYtSKJ/9gLqfX5FDu8n4ZuTth2cECe6+8EOJaIAH8VSseXXE1C5taybb/W3iwlITMLObnZ41044Ioi4SDrWQ3VZMw7FezePtnt5LdVIrOU5HMUuf3kV18NX8PYmT8iCcra/h/x3/Hk3Ej3ZbR5DILEtspWnSGvYss7F1koch4gYemXGJd7KWRbpwYsjgytv+RdxoaaLT/e+eP21mTkUHxmoyRblwQZbDmjw00NvyRNcN+vYuzf3YDjQ3b8XiUM7Y7v4/G7Vfz9xB8mcWV3F2zisIGD38sz2GHOYct+fHD3i4hxMiQAP6qFE/CwUrizSUcjZ3Ontjp7IlNp75GT+z6TWiTZxA+0k0MmmY/y2cxP2CBdD3H751O1W4zkMztHsa06VKTAejenc6e5WUB+lwhHMx+lv8RRa/8KCgtGT0u85DxPFk9E3h5/zQW79exeL+WsvavSZ/9GXdGXEY/Ym27xLpEeYDgXQbFAwZ+caz5414eNZeSbzAQZzAQZ1jMTpOOpS+8QJJx+lXcM3nSz/K+HE9fNbL5xwYW/9YCJHGPh2ozUpMAsPx2MXErKgL0udcgQwHLjDXsKKz3WqR8eyks3Ur+1XuyCyFUJIC/CoXnbyWWUo4WltHhfLceS2GKPbi8milB9J7YFI57elLtzjCDsCC1JCza/Wl4PN8cuUhBXBNO8nJ6Mt9N+DkvN/pQPE7neaTIVUQfe5F0wnm56WbV443xHG6KYG3LTSPYMiDsMtqRbcHoZpg+4PlpWFPIUnaTv7mC3p/8Rio2/9geXF7NlCA6zvBjNvt0vRv4eA6WLtp9yE8c0Vf7j8swyVyRA7tfcRs676ZhAztMeh5ZISP7hLgWSAB/FZqg19Ndc0AVvPfqKFxFE9OZMOytGp3C70shNOC1mum2QKg+xvVtw0KmyA2NGEXifvQfTBvpRgTZ7SFf0dZ+s8exCeamiVTyL24f9lYp9Np/EDlCnz0WGO5NHjDgnKHXYTEdxFP82rA5n91EMSMYjRuDfDme/rNgsYBOP9P9w0iW693QGQpYZjTz3jvee98dyg/VgDFNEtoJcQ2QAP4q1Sd4dKrn+JpXGO5+ifDMUuZ7vKrEk1BcENgh/YZ4dJkDzwULzyxg3tJgdIm3cq7GDMY015ulmdNhdynWIHyiGN3i7n+Bovs9/WUmT76yjIBOV4+byf33zxy42P3L2PDzqYH85FErMuRrL38ZzxvHJnB4WFuj0E/p4snor4JQ82X0wRpWNIwMGU9R+AvfIsA+waNTI5vXbme4B28bMrZT7HGkehxrtj8V2CH9hjgyMgb+BfHnePrnNDUmCySlus6DnxEFv91NbRA+8VpiuC8FHWZafBlhUV6FiWTukQheiKve9SPdABF4nWYzLN3EwvxmDniaM9Xg5UmuIYuEFbnEGu1BraWGpp2vcLzcx/KYse5exRH1Z2aWkr1emfdtfUa9sTJPP1YHWEo541JnGmFAmF5PKNVU3buBDuLRFW9lrlHv8XPC86tJWwrdFj2hOsC0FouXditlVYG7cRPZTZucL63PTOeIc6xaFvObNqmGudbwQWwOFnX77fve9EDvsP0vWsyAnm8awNE1pEtNputQledjad+/eKO+d0SAxYx15yqOqPfDcXz0etiZwpGTrt9Bt6mUo8s3eBh94WP96uOUWcq8R5OV4wl0W0qpX3OK2zdvQqtz3d/etg1w/gzy+x2UuGUUvfifLHB2MZ/l8OFz6CxHuP/lP3ko/yOeXPYzHl5gD2rPfMBru37Hy297mWfqXp6zHP7dC6x8WVX+/hf4f7+eC8DhX6k3nsmTlb/h4WnAmf/B2Zq4H/HksvnoAZ1uCtP4X7LTd9DITO5/5VmeXzDV4+fEPfk79vwczpyZyrRpwOGNvO2l3UpZVeC+YB3/7/g658vDv0pm5duOVz+i6Pg6Fjj/+gG/THiWt9Xtt+/7az/zcdi+mur3oX8ezjcffdpzI0R/RlGslpVN4/sW6FK/d4l1iz7nTmz21yG8un8Sh+3z6NNDHO/fROXhCN7oUm0a1sW6OR3cqSrzcfv1aHtuYWXTzc5i+th2NkX/s3e7iM/Yu6j35cef6Nh4zsOOhF3ioZhO0iPs2/aEUHlqAm+c623/gsQzPB5ho61F4ycbVgAAIABJREFUS1nMRR6P+KezrUe1F3gy+ksiuZGPWyay0dOx8IMhYzuFOUno7L8PFstudq5t5Z5NL5Cks7D7Qbdh3YYM1izPYWmSY4NadpduZ3OF60ljWPNH9qoDzaQXaGx4wfmy9lkDy1UR+SmzBX7xAu+sOcl9mz2cgA1eTkof2+O1PBZqf5vPcvVnZmyn8YUkezvVGyvz9JfqAMtuDrrUmUoUoNPp0FHD4h9voYE4MrYXsj5J5/FzlGMEFotOOf61z1Lhpd3+Hc8MihteIKn3rzxjWEGFuv32fVd/vy0tFkBHtOp6l5GahOXQIc/H0r5/jyappvBYLNSW5rNcvR+O46PTQemPWX7K9Tuw1O4mf8UWD6MvfKxffZyCcT4P8vtVm6nXg6Xax2wHzZy2wCOpWVDuQ44dQwFV+3LQUcPTse7Z7YUQo5n0wF+FOgpX8YHJTOjSSrIPVjPfh95oDAUs3LeJKeYSquyJ76p2wpT1lZ57zh3l6S2/54FqwpZWslCdCbU8hz2xaz30OqsTvqk0NPPFoSo+PVRFlzO1VDwJB7fyzUOr2BObTpNFj3bpEy692x2FKeyJTeHAvdP5wDTQ8UmxJ/azlzWtdb7eE6sO3gHKOBLraKcjeHdtf7dpLVXuc+5PttKNnjBnx1A839TX8KnHK2QW85sqmYs66eB0qnZWE+Z+/Bua+eJQK2E6PUQXMH9zGmxfZT/+a+ky5pDWJymfH/U7ZJaStl7PuZ3pvUkQzTnM3ZfGp2vW0mSq5guXmxkfz59Bfr9+i1vG27//D8y7HuO7Ccl8NyGZ7F/9L7oFc5nmqeK4Zbz9+3UYLb8n21F+Fxh//RvPPeeO8vSW/+7P/hfdz3/D20+qegPffpbvJmz00MOrzFXP/t1Z17cbzbS+d4Tq945gwRFkz+TJymeZ/t4LfDfhMV47M5UFP/856mY1vvxzvpvwc+5PT+aXA3QnK2WVNv/yMHB4o/P1dxPUwTvAn1iZ4GinI3h3bf+ZwxvJ9nXOvbvyHJf/97z/G1zwDsow+VfbbyIy2speYzvrplzup/TNbNw/zT433hG8A4znDZPyflv7bazd3zd4L1rwD6ynJtuT5OlY+8k30EZ8SWSIe3sinGVebddA+23O14v3ewveuyha8Dnf75nAWkf9p+D7s8+zbkpvscN1k6ns0UBEJz9sm2j/jK9In9POg9zCy/unsbYF7ozuVD2UGYSM7ex9QUdN6eLepHGWpax/M5V31z7L7toa1x5Dw1O88+YLJJtLWWxPNLe4FJJf2Nunp7ph84/tdRp4phaofdb5Os7gGrwr5fN5ptaC7hd7afzjHyn2oTfan/a4lKe3fNyDNeh+sZd31qg+r2IFcYZnPfQ6qxO+qRt/kpZDh3j30CEszl+8ONb8sZDoQ/nEGRaz26Ij6RcrXHq3lWP0Y+77sf0Y9cO/41nBcoOjnY7g3bX9ltpnWew+5/7UaSzoiHLOVYgjWlfLux6HPmRQ3LCX9aiTDhpYXFqDzv34N5yk5dBpdDodRD9F8aZUKM63H/9nsSQtZW+fpHx+1O/cJEjn8yC/317xROsB8ymPU0T6qqflak9zJIQAJIC/StVjWZ5C1TOlWNGjXV9JdlM18/OzvAxVjydhcw7sTueAKvFdR3kOR3eb0a53XxJNKR9qKeXoclWivIYDnLNAaPLCIQyJr8dSXoalvIy/1ShXomnFT8CaFHtPbj1namqwPjO80wA6CkuwOnrUVSbo4dz2sr493vZjoU21B9OGhUyhlU5PlWemocVMk1s9HeVKHa7J8OqxlJ+iC9Amw9/uzeG4Y0RFQxl/220GvdsqA37VDxBPwqPJdO9epeo9r8eyfC1Wkrl9ZhnHl29QHX9/zp/h+X7vX/af8LsXXHrPG9/ewf0/+x/O6HRuQ9Zn8uSL/wm/e4z7X/4Tjc7yz1Lwu7Ms+PUL3O+h/LQz/0PBE73laTRhOgPTkoxDGBJ/krff/hNvv/0nflOrBPc/euXn8PTP7ftykj/VfsDhX/2Ot/uvKKAaX/49h5nCdLcdi9aBaYfqGIxK4zlcF8HaT77Fx3zFnbOt7F3UzrrYS16zz5ubJvAxXzPVbSj67SHw5+a+8+kXxHRAy0SX3nDzuTBWHg6nLWSoWe4v89CcDmiZzEpVIj7zuUm83HIjd86+0CcYj+y5hY32tnzacyPwDd60b2vuHurAuzjW5CRh+W2+qrexkYoVz1JLEvfMqGDzii2qYetxrNm0FH67mPtUieYaKlaQ/1sLSS94WYLMZ41UrPgxi5/dTS06kl7YS2PDHylek+FlqLq/7VHK6yy7yV+hSpTXcJAaC+iM9w5hSHwjFRUVVFRUsN2k/OLdu30FrP2x/dg2ctBUS+2zwzsNoGFzKbWOHnWVGXqoKa7oG0zaj8X/z979Bzd15of+f6eTbLvZLLu5m3azBdbHhjiJDi102u1cNlMsORjbOBXy9RK+MLvjYNYYrCzE1zYYNJvpJCMC2FwHtrIxrk08vQNNHNZCjW2MQZbpbOjcbOdLvkUiMTY6XmCT7o9mQ7LZNrnTfP+QbEvykS3Zki2Zz2smM0F6dPTR+SHrc57n+TzGvOCeUwvJ5QbX9TZuycOIRnvEdrzO4P4MK4bnw+kcQQOMJnAUWWkYG1HhdeI4qYESscpAXNuH5J7PqXl8x3kPUvD4Mh6T3nch0o4k8AvYB10HuVQY6Jm9rcHissMU9OqsT64+xRLFzy2dIikf9Fzgo8gl0Yp387gCt09EDtW+ym/cbq6d0C+gNyNKOYv6y8N63z6oL4867Dt5zvCzgUyWrA9JdtU6VtAcpWfwKr/xM5FMZy+DKIUF6TrK5f3NjMbZwzh5/8MHw35QIooUxr39R1mkwJ3hyH38Lnf0Ev54z59QSTq+w9pNMhSdtMnXQl1bxK0BgwlTxk0G+iYPUvT1vckoq1kbmsGbS3kmAwbbWiIS1yFGPJd5pW0gcQltxiYyL9rCerd9jTZ2RRvWnzR9XBhciik/ZHSBoYLvc2pmPe/zwH9rEYcGMtg4+HV++jH8xfJ/47BpcvIb8EX++f3/5C8Xh/TWL7pDCV8J73kP+tnHv68/z/7OIhqvz26oOot+x18+8Pv8n9uTt+O/fT/v8Vv++5Lwx9/7OJmz47LJUkAbjjzwQ9zQS5DUQnIVDXfv5BPF2+tGi7IEWby8ziNUFgV6Zj0aGLfa6ezWuTkQbzwWK2UKeFojh2r7GB7w0N6qX0BvRpQysvqtYb3b3gZr1GHfyePkvEchtzDkWKrVbKc1SrV7H4FR9MFk+pEsiFJYEKeD/bZWeuPcaZP3P3iHNVAiihTGvf05PJ9T5vgKIdKdzIG/G3jPcKnwTKBo24FyVvfW8WHhRPIXqMTuDx8SPf7aQG9vIGkLJFUPLs8E9IeDa/XliY1da+VfU+TWsNbvZvX2p3iw/iofENhvd/oPTt3+QDCZXp4ZTIj1igteDc7XX8GDxU/xJ3lrA/PDx+aezzryeLcfSNSXhBzzAP3EPt7zJ0ySjq+v8RSDZ/fy9pUtDHa8yYW+FlzB30g+V/j890Al9luM6P2G8mkEfpdmM7bmsmHZEuAyF3S6wF2NtskPzsboqxyfy672KbguXubFbSYMjUP4COw37WLL7DY6B3PgJ7nzRQ4NfDFQRO7PPuBZ0xf42cCiSb3qg+99iWcf+R2Z1+7DT6Bi/O33HtaP7tpX+KnpF3T+9e/z0+H7+efbixgMJvr+W1/UfU2sApXq7+Wmzo0D7tzHbWDxlz8DZnmjIGaBxCZ3uQHCblXpJ0KByueafhEub6B3VZm0rVnwOqkscgaKttnLONBdzfWiieQv3njU5QqgPxzc2WBNTMxjtHYcKbJcurPfw4HyQtQGH14C+03rPzJ1e3swmV6uBM8DveKCvuB8fQOqpRBrXm5gfvjYVPJZRx7v9ufwfI77+AaHxGc+Qkh5gSmMDbmP5z2EEOlIEvi7yAddB3ljCJ56vZw/KT4YMdc7l9XXRlgd5bWzTyIXgK5z3D5wOLjvVpCR6+dn9VO0HxrhI8r5ZvEK7kzT9sHaVp4oywXNza0Tz/GvQ1f5wBsolLck+stiFt/2r3LlhJvHD7zMquGxYfQrUGp3slhr5Zxuwp1q508fuzb4MZhN7Ni2iRdLN/Hi6E0G2+xReq9X8+IVNy9G2dpolMfvKq5LDL6wlx3mFna5ssk33uJC4yy32VXO6Xm6Qee/tYhdd+BYzgc8vWTR5Lnnt77ET//sF8HnPuOJh+/ln69F29oXOTTwx2Qu+R1PP/IBzy7/d579+A/46fWvjQ9ln52PefavP+bZKM++l4B3iJ2PhlYPZfZ6aobHhh0bsNSUY9Ta2aiboBg54PVyIMoWkzEdyus8wvrr0PNaGVbLkYi53nMfT9px9uOx24P7zkChSeN8wxTtr99Ao4x1FgPLp2mr1jio32oEzYO7tRbHdR9eb6BQXiy386YT3/ZT+3we8vvBtIxsYkngHyVLgYETMRSwE0KkNUngF5wVrGp6ilHdSuQE52aX6/SuhhZoE/rO8K/tOynIK4GhR1jiP8eVqZqP9z4/BYxETQLHquLf3r8hKVMDZrT9oXPcHihg0fazbA7+SvlooJXLNVHOq5Q8f4bwuYbY5WoJLK1WYeP7LxzH9eQhzLsjq9CHFmgT+vo43rGF00/mw7CCSbvEbPP35PuM737rd/zkrck97ADc+SL/5+MP+EvdHuwv8trw73P4G7+DO5/xlx9/if895Xvdh//WfRy6tQgWfUbOo7+m5M9+zrFv/BG73ppdL3x4Qb0UcL0fjyePrPJOfMGC5pqnnf179CqCQ3hBtEQyUOMopFe3EjnBudllOr2ryYpnIXHiOFlOZ54Fri8jV+tnqvx9ove5ELgxUWk/wlhVfI9tY1KGjs9o+ylzPk/m7bmAVrY2rMJ/VMUFmPDTNtczrIQQc07mwC84V/kNa8mIo6rOB6FLniWkfQnKAl2H9IOeC3xkKmDV+rXc6Z/uLvcZfjYAXy4rZ1G0+e+sICM3Ewb2JGle/0y2v4JVDTuhvzxQQyFYCfyNyoNoOj8g4j1/ki+fY0fzwx/yDeHaXYp5y6uQs4WqkGmNvpFboFOgLZrp2+dj1l3zPf35+t5kNGcNVfnfRruosxRfyrmPm3zCEzNcF91/+37ee/i3fHfxJ9x+L1oS/jv2fut34Q/dCRTO2zX4IDz8Id+dxbrsgaJzkwvqzR8DNYfLod8amHMerMK93noEp873gzd0ibGE8zFMLoVxbDveeKZvb8GSgDn8qcjb60Yz5lFTmIvWP1266uS8B5StZSjR5r9joNCkgMeWpHnfM9l+Kp3POrxvcFHL5Mn1068mVJyXCwPN1CesKIMQIlVJAr8AfeiHxxvqolSCf5RFkQXHuo5yTYso0BbiwdpWVoX+seo6x22mal/AV3XuAOtVO8/InV195mR4sLYu+hJm3je4peXyeJk/ypJw4T70B/r9JheEGxOYVz69FTw4ox8MM9l+oADf4gMjbL42wlO9F3iqqZU1tXUoeksSxnv+JJ0fvxKepI8LzmkP4+rgldGIAm0hDFX28G25LjHIVO3XsGx48uOBefShssk3Lp3ccJ4ZqiqIev/BN8DA6GqeKb2lWwMgFf3sY9jw53eiVIL/vyyOUiAOCPbQ/5YNy+/ln/WWdwPgXm4/ECVJD85Rj0fm43fCC+vd+gpnP44oqBfW/lezukEAJazpHWGzXoFTXYGCZUa7F5/XS093Nz0OB0011Vj0lnBzOmjXIgqihVBrHNTE8f2g1lSHFaa77oeyw9VRKsFnkxVZcCzeeJz9eJiqfR7Ldcqt61U7LzTNanHMpIjcn2G8vbg1I2VbtShLwoW77g98u04uCDcmMK98egbUGf3NmMn25/d8nt5V6k+4Ucp2M3W/SAnrTH7aHDJ8Xoi7gSTwC1CgEnl5oOK8Glo1vYQ1vYdZ1P5cRDGoq1ypaYWyszwVttTcCpSmCzzB0Yj2Z7i0382X42gf6InejTL2h01dwaqm3SzyB2J9oqlu4rk5pPW7wVQwkWCqdfxJ5vUphoJfZdTth4FzU7RZNv5/gd7paOu/w9i+wXSYNSHJ8YNqCWt6X2YJ8OXMR4FHyYjhDnyitv+h38/t9j1c3r+HqyeauQWQu5YVwSUJwxPyeM+fubCUZ051UGUOTZqzMVdtIWf0TfrCfl8O0bjvVSg9jqsqP2QJuGzMRzs4SEdEpfU+dj1/mYw42l8YhIzSUsxjjQ3ZVB0tJVO7CRmbOHi0YuK5OeS6eBly1kzcoDBUsEPRpphKMESf5yYMXkqb6Qb+j+6FB/49UHF+UWhV+d+x1/QLFg9/TbeyfMB9/OT934f3vzTN8PX/ZEPO+3w3bI35z8h5/EP+4uP7+UmU7Q++9yV4+LcTCfiiOzz9wH0R73Uf//tfHoTlP+dY2NJ3n5HzrfepilIZP2bFBSxWACWXFbWxfcdc92t4TtrYb7NxorUVN4Apl+3BJdzCExgfDXvaYWsnPWFLuxmwOLqpxxGlsnmgMBrGvIntqdVYM0fChi4HKpGXBSrOq6FV0y00ddtRTtZGbD/eeJxU2jzBNd9jax/oibZiGY/bQI3DSpYWiLXeUT3x3ByKZX+G89E7oIGnf4o2WeP/F+idjrb+O4ztG4x2mkKSY1W10NRdTy6gZGYD2RRGSZCnNrPtz9X5PGNd5ewbyKViiuuzuOkwpnh739U6zl0b4Z1rrdPcHBBCpJp7Hn0s6/N4XvBHf7iYX/wy3j6F1JHu8cekuI6n8uCqH76Zu5bFY8tpaX5un3gu+lBqtYRV1p08bhr7iejn9v6p269p2Dmxffzcbn+OS/V67VewqunliW1rbi7XlPPh+gs8kXmBq/3X+bDrDB+odTz1ejlf1nu/gT2crtS/uzw2z1vPR+0beEM3pgCl6QKrg3F9NNDKT6LVDxh/r1b+ZLg8ogjg2LZGWG2CiarZJazpfYR/LTzIB5EVt8c/zwqU2t2sKMsd/9wfDbRy1XEQLbuVpw7k8mXNzeXCcrSo2wh974Db+5cFY4xj+wT3ZWZz1H2tNI2wGp1jEcv5M8PjG59sqo7ayOQWKEvIyRjr5b7J6OCb1O2OXP4tyJBPVcUWnsmZaD/4fLSid4H2x17aErb9wQ47uxr12gdiGt/26GV+uM/GcH4HB5U3+buLGsOuPnyGClynNpGh936Dh1g5ae5+MJSqDk6X6vfmj3bswKwbU4D5aAcvBuMaHXw1+v4Zfy87O0Zs7EqXDH7JHY59A858DP/94U/4iwf+I/B4jEXmMh//FU9/9NDkInfjPuO73/o1i7kXHvi/E9vnD3jv/ftpjDb/PijnW+/z7MOB17z3/n+L3n7R7/juox+y4eGJ7f/0/w2N/zO+a/o5Gx4I/El/b3gxjfyaw8uD7d//Ohvf+y2df/ZxsP0DbPzHhwj0wB9mMW6u1ZRPe7NNremmM7MVg1U/S7M4vBzANvl51UJNZTllxrEuUg2PrXbaoc4WRzcHgq/RPO3URs53t1TTkwcn/LDOlItxvNy4hqd1iu3HG49qoelw+cT20fCcrKWyQa+9gRpH/cS2NQ/791i5XthNfaabE/0jXHc68arV9LxWpj/ywaOzD8dCCc7z1qOd3Mh63ZgCpt2fk97LgXXYGlEEcGxbXg4YATTany6iwWuhqXsZjqIjeC0OfHajzucxYKmxsn2rcfxza552TjQdwfmIgx67EUXzsL/IijPqNkLfe+wpNRhjHNsnyefzDI+vvhKar+3kxnfWTk7Si1s5t32E6sKD8S1pqNZx7vVyFNzsk7XghUgrksALEZdpigQuAFET9JDnV/invikiFqpsqo6a6JsmyV84pimCdxeKmtCEPL/dP3USKdLFNEUCF4C0Op/VEpobCjhfGJpsl9DcG/lYHIpbeWf7CCXxJv9CiHklQ+iFmFYJa3ovsKYYKN7NIn+0gnQLg9bv5iPT4Yjh8BDoyb/AalNEDQWxwOVz7GwHx8yAuZRMbWCBJ++/Y6/pffYuAZZ8yOKPvyjJewhnvwfNaI8YPgyBns9uDhgj5pyLNGOhqbubJgtgsZLlj1aQbmFIq/PZe4adNSOsayoJxrqC2qYCztfMvPe8OC8Xzf3Ggj7GQixE0gMvxHTUEta8fpjFwEcDe3gjIcO8U1xwOPwSU2bIcHc/Hw1cCAy9l7/2dw9DPsdO7SUHGB3UW4JvgVn0O/bm/IK/4HPee//rCVgCbgEKDh/ONSohw4M1NI87MFRZvh/Sl2qh6TU7RkDz2Fgf1zDvNHXXns8lNF8r4LwMnxci7UgCL4QQQgghhBBCpAEZQi+EEEIIIYQQQqQBSeDF/FNLaB6f0yXE3WwFtU2ypI8QQgghhNAnCbyYZ8GqqpVnpIiKEFylvvIc63oliRdCCCGEEJNJAi/m0Qpqe3dyYxYVVEWqWcGq3hE299ZFVLBfaD5D/fQz1E8/ofaDX3Hu/U8S2P4MO09ARW+djEoRQgghhBBh7p3vAESyLeV//tef8wwf88rvXeB/xfqazx/lmc8fCP77Yzz3vMWuez5MaGTFTWd50r2BAul6D5FP1dm9PJNxk1e2lNKYIqvXxO5RFikAy/gKLNjl9tQPPuTIR58C/4HyCfDV+xPanq5yWvJGOFL7BgX1smSfEEIIIYQIkB74Be9OnO0N/ON//TkKb/Gnv+fkT3/Pyf9zDxg/N3EsrvUKpqHWUWFy0yLJSYR4V5zO59jR/KREMivaCIm93ZNavA8+RME3/5iCb2ax76uJbw/Q5WiFspeplW54IYQQQggRJD3wC96H/K/fc8bY8w4bPs8m455/4a9Dett99/wcD3D8nsRFVWwth/YNMnR+kiEaN+TSGGtzg4KClsyAxHzxHqRloJyXrCXUV56Z72iEEEIIIUQKkB54McnopF57H7vu8ZGw0dxqHRUmPxd7pPd9tgz53yZjvoMI8y535H5CwnT1u8FUIAXthBBCCCEEIAn8XeIrbPj8KzG1W5bIYfJRqOvXouBnOI3mvhvMdo6Z9Z7JpupoBYaEvlk2ZnN2DDFVcLB0aSLfOQGu8hs/4L+eVvPf1d/+iubf6j3zGbXv35m/YnJd5xggl3WSwQshhBBCCGQI/YJl+Hwt//A5jPJAoIf2nn/hbJRZyRs+t/BiaOL+uYn/L+Tfo/cMhA2pn63szEzQLjA0XUNDBcde2kTOeBfzTQYHb6FolzA39um0z6eqYgvP5AST2tHLvNLWQaMryjtFtucmgx12djWGtDfbefuF1QAMPh/2Kag6e5xnMoDRVxmPxpBPVcUaMgFFWUIGb7J5Qws+sjEftfFizlLd9zFUdXC6FEZHl5KRAQwewhUl7kDbkMQ9Zy9vX9k7/s/B53PZ5Rr7Vz7HruwlZ/zZy/xwlQ1XaPzBz57Ionkf+d/Vf6K4lc0HcmPYgp9r31nLlXhv8nz6CbX//glZn34KX/tjdt73CbX//hu2/eY/ANC++hDVDy+aWLLwt7/inZuBEScDSx8K2dBn1P7sJts+Ae5/iJ44w0icd7mhwba8EuiSYfRCCCGEEHc7SeAXKN89F/jT4Jz1DZ9beHGKtmfvcXL2HoCv8D//y4QpwQl7uBUszwT816de991QgevUtxl4fge7gomswVzBwRc2kcGlKO03QcchNu/uw0eg1/zgC8fJJDShjWg/eIjNqwLtA48dx8UOzGPJtcvGSlcgCQ4XmKveV9XBaWPIwz4/IxdhBFi7bW9weHs2VWdt0GZn5W4CiXNpKeZGG2Nh+RpLWRmc+G4+6p7yeE1ue4iVu3VuaADQx65VfcGk/1YweQ+P/6ByirrgPkuED/1TFOLrKud0MgsffOE+hr/8BZ68eQf/l+/Q/OtPufHwH/LYw/fBp5/QfON9znAvjz0crAL/pYd47LH7aX7n/YgN3Uf9N7Po+eDnnPkoifFO6yrD8dY1FEIIIYQQC5YMoRcpyVyxCTrsYb3nPlcL5i2vMqooEUPWs6l6aRN07MDcOJGI+lw26jpukvOCHbNO+4zRV8MTV98AA6OQYTTNYkj8EC5XHy5XH8c9NwHIP1oK+0qDn2WIPs9lBp/vIPKeQjL5Gk8xyBKWRXyw5QoMtCQueR9zZ3i+6hvcR9eX7sUPmD6Cv/3mQ9R/4b7AU1+4n7/9+h/Ap/9X1lcXQgghhBBpSRJ4kZKGtZtkKJmTn/C1UNcWUSXNYMKUcZOBvslDzn19bzLKataGZvDmUp7JgMG2lojEdYgRz2VeaRtIXEKbsYnMi7awoem+Rtv4qIK508eFwaWY8kPm1hsq+D6n0nCt+dgMfG3RpFEe3i98AT75lOkrDAghhBBCCJF6ZAi9mGPBIcGZj6BC1GH0vsZTDJ7dy9tXtjDY8SYX+lpwBRNNnyt8uHigEvstRvQSUZ+GBijLsiE4696wbAlwmQs6XeCuRtuMPlVUo69yfC672qfguniZF7eZMDQOBaYY5H8b7WLL3AaR7DnwC87YlJP5jkMIIYQQQqQCSeDFnBvy+8G0jGyiJ/DQx64NfgxmEzu2beLF0k28OHqTwTZ7lN7r1bx4Jfrc8dFEBJ7uXJcYfGEvO8wt7HJlk2+8xYWYF5xPkGTPgV9wHiVLgYETUsBOCCGEEEJIAi/mgbfnAlrZWpZP1QUPwBA+1xC7XC2BpdUqbHz/heO4njyEeVLRtsshBdqEvj6Od2zh9JP5MKxg0i6RjPz9g/q1emUGxUwUF2DCT9tcz7gQQgghhBApSebAi7nnfYOLWiZPrl8RpUE+x47mhz/kG8K1uxTzllchZwtVIcXYfCO3QKdAWzTTt8/HrLvme/rz9b3JaM4aqvK/jXYxWuV6kSqK83JhoJn6u34qgRBCCCGEAEngxby4Sv0JN0rZbop1n/fjV8KT9HHBOe1hXB28MhpRoC2Eocoevi3XJQaZqv0alg1Pfjwwjz5UNvlKKWzkAAAgAElEQVTGpZMbzjNDVQVR7z/4BhgYXc0zpbd0awDMXglrekfY3FvHg8nYfBJlfvpZxCOfsf6j/5iXWAJKWGfy0+aQ4fNCCCGEECJAEngxSQaLkv8mXeXsG8ilojZaL/xSnjnVQZU5NGnOxly1hZzRN+kLK1g3ROO+V6H0OK6q/JAl4LIxH+3gIB0Rldb72PX8ZTLiaH9hEDJKSzGPNTZkU3W0lEztJmRs4uDRionn5pDr4mXIWTNxg8JQwQ5Fm2IqwRB9npsweCk50w2KC1isAMpaMtJmrbb7Of9VUP7tQ4o/DT706WfUvv8hWV/4A/jkVxx5/87Ec3OkuOkwJul9F0IIIYQQIe559LGsz+N5wR/94WJ+8cvbyYon6dI9/lgZPl/LP3z+gO5zo/cM8Nf3fBjamn/8r2wy9Brf8y/86T03kxEiUELztZ3c+M7aiCQlm6qjNjK5BcoScjLGerlvMjr4JnW7I5d/CzLkU1WxhWdyJtoPPh+t6F2g/bGXtoRtf7DDzq5GvfaBmMa3PXqZH+6zMZzfwUHlTf7uosawqw+foQLXqU36+3LwECsnzd0PhlLVwelS/d780Y4dmHVjCjAf7eDFYFyjg69G3z/j72Vnx4iNXUnrgT/MYlo5V3iQD5LxFlP57a945+adiX9/9WEee/h+AIrfv8FLv5l4amBpFju/NPavz6h9/5ds+02wx/3+Rex7+CGGfvtzjvznA7R8+V6GvnT/eMmGyG2FCXlPZtie4lbObR+huvDg1GUihBBCCCHEXUUSeDG/1BKaGwo4X1iOFCefC9lUHTXRN02SL+ZTCc29ck0IIYQQQojJZAi9mF/eM+ysGWFdUwlpM+I67eRz7GwHx8yAuZRMbUCS95S1gtqmAs7XSPIuhBBCCCEmkx54IRY6Qz7HTu0lBxgd1FuCTwghhBBCCJEOZB14IRY6Xx+7VknSLoQQQgghRLqTIfRCCCHmnFrcSnPUVSiEuLsUN12gWX9dVSGEECKMJPBCCCHmVnErR7aP8Lf1V+c7EiFSQldlM2y/QK0UgxFCCDENSeCFEELMHbWOc9uhRZbIEyLEGXbWXODJ1yWJF0IIMTVJ4IUQQsyREppfL8d/QqrsCzGJ9yDV7bCtoU5WZRFCCBGVJPBCCCHmRHHTYUwDe9gp2btYaNQSmseXQ11BbVMrM5nS7q1/jjbKOSL1IYQQQkQhCbwQQojkU+uoMPlpc5yZ70iESLASmhsKOF95Jjgt5Cr1ledY1zuTJP4q9SfcKGUvy1B6IYQQuiSBF0LMKVU1oNY4qLHMdyQBqmpAtThoqjHMdygLWrG1HEW7QI9MfBcLygpqe3dyoyZyWsgZdp6Ait4ZDIfvOkqblsk2a0nCohRCCLFwSAIvRErJp+qsm7evdFC1EPNJi4P6w510bjWSNd+xAKjVWA930mk3osTYvsfrxRfyX1NcNyIs1HR78Xm7qbmbetfUOipMMHAiXQvX3aXHLVEsjrBrJvy/bnoclrSd813cdJYn3c9Rr3did5XT4p/JcPir9Lj9YCqY0TB8IYQQC5sk8EKkFH+c7fM5djQ/KZEkhdPK+iIbnvmOY4z3CJVFG2nXYm+/Xg2219rZqKpUOuN5w6H4Y4yLhSZHigxtCKGuX4uCnxvJ/vhJc3cet9hNE7/TikENXvceGwZVnfjv6VY0xU6n18H87YEZ7n+1jgqTm5YplkPscrTCDIbDe3suoJHLOsnghRBCRJAEXoiUMkTjhlxWriql0RdDc4MSW8+xSBE+GopUDGoRDcnoilaXpeT5kJ2ZCWk9fP7uPG4xiyN+zR9xM8TrpLLIhgcjB+brJsYM93+xtRzaj069ooL3IC0DMxgO772OH8hcLsXshBBChJMEXog0Zsj/NhnzHYRIGWphbgomgitYngn4r6fp8PnkS83jFrvZx+/kvAcw5s1LL/yM4g8WZbzYE733fUxXv3sGw+Hf5YYGSuaj8UYmhBBigZMEXogYGMx2jpn1nsmm6mgFCZ2ubsjGbM6OIaYKDpYuTeQ7i7mgGrBYEl/gQLVUU781FdPAR8lKxbDiddcdt9gkKv7r/ljnsSTWTOMfmxYyHMtdqa5zDMx0OHzmI2lbH0AIIURy3DvfAQgRlaGCYy9tIme8i/kmg4O3ULRLmBv7dNrnU1WxhWdygknt6GVeaeug0RVl/mpke24y2GFnV2NIe7Odt19YDcDg86Evzqbq7HGeyQBGX2U8GkM+VRVryAQUZQkZvMnmDS34yMZ81MaLOUt138dQ1cHpUhgdXUpGBjB4CFeUuANtQxL3nL28fWXv+D8Hn89ll2vsX/kcu7KXnPFnL/PDVTZcofEHP/srW2Icth+NaqGmspwy49iPYQ3PyVoqG6bYqGqh6XA5RiXwGs3TTq31iH5PbeT2NQ/trQ4anFG2P5N4xl5a001nyI967eRG1sfwuqm3B5qmoCiAx4YzWtzjL6qm6XAZ4+Gj4fFoKP5+1jdMTLyPjBWjHZ/XPv5Pjy3KPP1Y9qdqoaYyjyxFgdYiKq+Hv2bK4zVTMcVVTVNlFozHFbqvNDRPK7VWZ5TzKGK/TnEexXzcZrCfZnzc4qRaHNSXG1HGdqfWzok9I6w7bMeoaLQ/HTEtIMbrLNHxP5KpADpJfCzHa2z/A4qioOBmY9ERvBiwOOo5YAxsO/T6n238Y9NCYquOEOhN35ZXAl1JXEZRrePc6+UouNn3eGRVfCGEEAuF9MCL1GSowHXq2/jbdrByVS4rV+Wy+fk3UXJWk6HXWWKowHVqLybtFJvH2reB6YXj+j3nY+2ZaL9yy5sopcdxVYX0frtsrFx1iMFJGwjMVd/ccTP8YZ+fkYuXuHDxEhpjSXY2VWdtLLtoZ+WqHbwyupSc0lJCw/I1lrJyVSnmDbn8cPKbhb9FY+n4PvnhIDB4aPzfK1eFJu8AfexaNRbnWPIeHv/o4CE2xzrnPhq1mp7X7OTSysbx4lRulK2d9ERbnm15NT2H8zi/pzbY3oZbKaNTbx7s2Pb9E9vf2Aq59k79KvAziSeEt6GIjSc18NjYqKqzSt7HtmdQi1hfpLI/lgp+ajU9r+Vyo3XjeLGvjTY3itGIkqm37UCb/R4mFQnTT95j3J/eIYb7b6AoCiyvpulwHjRNHC/NGOV4zVTMx7mX834m4qqE83smiqK5FTud3dWTey4tDnyv5ULofp3iPIr5uM1gP83ouMXL4qDTruAe/7wbOaGVceC1PM7vsdHucYf3IMdxnSU2fgvrjICnn7CXxXq8vEMM9/dzvr8fbXwwvIGa7nqW99diUDfSrikYt1rHh+jPLv54p4VcZTje+qRCCCFEFJLAi5RkrtgEHfaw3nOfqwXzllcZVZSIIevZVL20CTp2YG7swzfe3kZdx01yXrBj1mmfMfoqdbsn2uMbYGAUMoymWQyJH8Ll6sPl6uO4J5Dc5x8thX2lwc8yRJ/nMoPPd+CaekMJ5Ws8xSBLWBbxwZYrMNASsg9mxEDN4TIUrT2819Pbi1sDxVSoOwTUaILaIitOb/DdvU56BzRQlkW0D2yfkxtZ3zCxfa/TSu1JDaM9snr1zOIJo1ZjzWxlY7Re3CSzVJbBydqwXkav8wjrn25Hm7R/4hXP/vThdI6gEThejiIrDSHHy3FS73hFCvQ+JjQurw9nQ/9EXNYjOCdeQMOedjSlDGvYiWGhyW7EYyuiMmy/Wllv82C0z2aJuETsp0QzUFNuRAs7j3w4rYGCcesecdJgPRKSMMd7nSWGaqmmqduOEQ/7raFZczzHy4fT6cTpdOIYCJxshQ4r7CkKfnYfvQMePDYHibgvMqfiqR3hPUjB48t4THrfhRBiQZMEXqSkYe0mGZFdjQC+FuraIrIBgwlTxk0G+iYPZvT1vckoq1kbmsGbS3kmAwbbWiIS1yFGPJd5pW1glgltiIxNZF60hfVu+xpt7Io2rD9p+rgwuBRTfsjoAkMF3+fU7HreASxWyhTwtEYOpfYxPOChvbVX9wfo5PbgHdZAyeKR0AfVQnIVDXfv5EC9vW40jKwLzSxmGM/E+1XTcxgc85S8Q2A+sJKpUwfBe4Ta1pHZbTze/RkU8/GaJNj7ON1c3gTGNXazxpg38QK1phwjHs7rZXBOB+2aQm7h7Oe4z3w/JVo2WQpow5H7cyhQHG15xGed4f6Pl7K1M2wd+E57LopmY6NqDUuuZ3W8lDKy+q1hUwO8DdawGwGpL1A7QvO/O9+BCCGESDGSwIuU5Gs8xaCyl7evdHCsqgJzyO80nyu8xzhQif0WI3q/zXwaGqAsm0iGDMuWAJe5oNMF7mq0RZ8zPxOjr3J8Lrvap+C6eDlsdIEh/9toF3VqCcRJXa5AlB/azgZr9DnqsW6/MBcFTb9YlDfQ6xmajMwqHrWantfKULSRea2Y7m1oxaPY8Xm7aaqpxhKS+Xqds7uxEO/+TIQhvx+UtayfIoNPbFw+hgMXfvCmgYFCkzJ5iHZE+5hGZ6SNKIl6lMR+rs4L7eTGsKHqBrWI9ZNuls3yeGntOJLa1R7jTalxwSH38VAfIRPwD09f5V4IIcTdRYrYiRTVx64NfgxmEzu2beLF0k28OHqTwTZ7lN7r1bx4xc2LUbY2msxQ04XrEoMv7GWHuYVdrmzyjbe40DjfQcXKyAGvlwNRnk1I/epMKz2H4cRJDwe22mmyOBMzD3lGnFQWDaFaCrGWl3FgaxkHNA1Pa22CehHnYH+G8PZcQCsrJysbpr77MLdxLWw+Glo9lNnrqRkeG0ZvwFJTjlFrZ6PuuS37P1ZDfj+YljHtKQ2M9aYPnIi9gF2gyr2bFhkLL4QQIoIk8CKFDeFzDbHL1RJYWq3CxvdfOI7ryUOYd0f2HIcWaBP6+jjesYXTT+bDsIJJu0Ta5O942B8xxDbRFOVGsHI1kOnlgN2BxZnc95yaD6/TR6XzSGAJs8p6tts76cmzsd4626iSvz/DeN/golYeQxXuOY5robvej8eTR1Z5J75ggXXN087+PdFWDpD9H6vATam1LFeZPoMvLsCEn7aYB3etYH1uJgw0y1x2IYQQk8gQepGC8jl2ND/8Id8Qrt2lmLe8CjlbqAodUj9yC3QKtEUzfft8zLprvqc/X9+bjOasoSpBw+chOL8XJfBDVpcFyyzmzk6//cTEow1MzI0fK/R1YIYV1tUaxywKolloinxfrw+ntYj1T7eDsXwW245/fybGVepPuMG0k9oo75vYuAwsV4DxqRC+KAUSw9uHngPpz0DN4XLot1JZNDFkfX1owb8Q83NeRJMGx8v7Bhe1TJ5cv2LapsV5uTDQTH2swRbvZpvip82RxCXnhBBCpC1J4EUK8uNXwpP0ccE57WFcHbwyGlGgLYShyh6+LdclBpmq/RqWDU9+PHQefUA2+calkxvOM0NVBVHvP/gGGBhdzTOlt3RrAASUsKZ3hM29reit2DeJsx8P0QtKqTV5LL8ey4aibX/qglWTkuWExOOk0uYBo11/mbopWbCa0J9LHJMhbihRkvTgXOR4qDXV4dXD492fidJVzr6BTLZZS/Sfn2FcuvOyxwoZ9k/0JXt73TqV6UPb6xdwmy+Tjlu812VwnrjRHigW19PdTY/DEaipYNHZZwk+LybHH5/5Pl7Txx+4KaWU7aZ4ynYlrDPFk4yvoHZ7nAm/EEKIu4ok8CJFLeWZUx1UmUOT5mzMVVvIGX2TvrDfbUM07nsVSo/jqsoPWQIuG/PRDg7SEVFpvY9dz18mI472FwYho7R0opieIZuqo6VkajchYxMHj4YX2psrrouXIWfNxA0KQwU7FG2KqQRD9HluwuCl6G2KC1isAEouK2qn710aS3YDa6xbQnrMDFgc3dTjCKsGHT8fDXvaIebtJygep5X9HgLLZ8WauKiWwJJYWrTiW7FSKHutm5qwRGts/rKb3ijxO/s9YMybSLTUaqyZIxGxxLs/E6ercg8DpsM062Y8M4zLZKUppL1qqabHbkTz2MJrGHiPBJdD66YpZL+OtffYapP2uacT03GL+7oMrGbgOWljv83GidZW3ACmXLbbO/F5I5fNm/l5Edt5F6c5PF4zjr+rnH0DuVRMcTyKmw5jiiMZV2tfZpviZl/lDHrf1TrOXRvhnWut09xUEEIIkc7uefSxrM/jecEf/eFifvHL28mKJ+nSPf67QzZVR21kcguUJeRkjPVy32R08E3qdkcu/xZkyKeqYgvP5Ey0H3w+WtG7QPtjL20J2/5gh51djXrtAzGNb3v0Mj/cZ2M4v4ODypv83UWNYVcfPkMFrlObyNB7v8FDrJw0dz8YSlUHp0v1e/NHO3Zg1o0pwHy0gxeDcY0Ovhp9/4y/l50dIzZ2TdkDf5jFuLlWU86VWH8kqxaaDpdjVMb6BzU8J2upbAiJxuLAZzdO/NtjwxCcz21xeDkQ9pQanoCpFmoqyykzhmzfNkVRt1jiGas6P/ZvrX18Hrxa003n1om+To9NpZKI+KPQTm5kfcj7RG5rqrZgoMZRTxYaKEpY/JrHTa012vzlAIujmwPBfaR52qO3j2V/zuZ4RVPcyjsHYF+0tapjPs4Wmrx2sKk4cFBvNwaP49TnhWqpxlpexsTmPbS3OnRXJ4j5uCVgP01/3OK7LtWabjozW8fjmPx+Xg5gm/x8vNdZDPFP3o+xz7WP6XhFXsehPDqfMc74p1ZC87Wd3PjO2slJenEr57aPUF14MLZtqXWce30tF/W2FfPry1FwR7++hBBCpD1J4IW4q2RTddRE3zRJvhDJpBa3ciSexEbXRAI/f6sFpK6oCXrI89v9kTePxIyoJTQ3FHC+MDRpLqG5N/KxqZTQ3LsTTqxl52wy7+JW3tk+Qsmsri0hhBCpTIbQC7Hg5XPsbAfHzIC5lExtQJJ3Ma+8XeVUn1jGszEOBZ9SgtesXyic/R40oz1iODwEpmJ0c8CYWnP+05r3DDtrRljXVBLc1yuobSrgfE3sveDFTQlI3gkUzNPcb0jyLoQQC5j0wAux0BnyOXZqLznA6KDeEnxCpJnIIeuy/Jm+4HD4XKMSMrw8MBXjRJN+NXqRzkpovlbAeRk+L4QQC5ok8EIIIYQQQgghRBqQIfRCCCGEEEIIIUQakAReCJGS1OJWmhMxR1oIIYRII8VNF6IstymEEJLACyFSUbBK+d/WX53vSIQQQog51VXZDNsvUKtO31YIcfeRBF4IkVrUOs5thxZZBkkIIcRd6Qw7ay7w5OuSxAshJpMEXgiRQkpofr0c/wmpoiyEEOIu5j1IdTtsa6hDcnghRChJ4IWYLbWE5rD1f1uRqWszU9x0GNPAnlmvhSyEmIZ8bwmRPAm6vrz1z9FGOUekHowQIoQk8ELMSgnNDQWcrzwTHO59lfrKc6zrlR/DcVPrqDD5aXOcme9IhFjg5HtLiORJ5PV1lfoTbpSyl2UovRBinCTw4i5lQFUNqKqFmhoHPQ7LDLaxgtrendyoiRzufYadJ6CiNxnD3rIxGLIxV9mpMid844llyMZgyKfqaAWxhFpsLUfRLtAjE9/FbIxd145qYrqq422f9ubje0uIu0USrq+uo7RpmWyzliQsSiFEert3vgMQdwMDNd2dlClRntba2Vh0ZE4Llqk1VupNCqCgKICnP+5tFDed5Un3Bgr0Au8qpyVvhCO1b1CQwErqhqpSDpauJgMYfH4mW8in6uxensm4yStbSmn0JSy0Se9z7KUt5GQsBS7zw+maq3VUmGBgf7oWrrNQ022nTNFof7qIhvT8ECnEQpPXjtFjw2B1xve6w+UYAxc1+xPePv3Nx/fWwiPX+6xYHPjsxihPamieVmqtzrT8W5Cc6+sqPW4/28oKKOaM1IcRQkgPvJgtC03T9l77aChSMagqBnUj7RqBpF0NPjbHyTuAt8HK+qIi1hep7PfMYANqHRUmNy1T/BHucrRCgoe9+RptmFcdYnDGW/AnLpgp9bFrQykrn78cU2t1/VoU/NwYSnJYSZPswGO5zlJZnPGry1AAjHlx9oo7qSwqwmCL9aKOt32am6fvrYVHrvepTRO/04pBteEB8NiCvw2C/z3diqbY6fQ65nFEzAz3fxKvL2/PBTRyWSdzXIQQSAIvZmvsh/ZdpthaDu1Hp74T7j1Iy0CqDXsbonFDLitXJbP3PX7ZmZmQ1sPnx25SJak3Lt2vszjjVwtz0U62o6GwXBLJhEnf761UI9f7lOKIX/NH3AzxOqkssuHByIH5uokxw/2f1OvLex0/kLlcitkJISSBF7OkFuam9w+NmQgWW7vYM/0QuK5+N5gKpDDUlFawPBPwX0/LIZNzId2vs/jiN1Bo0jjf0ItbU8gtNCQxsruIfG+ljbvretfj5LyHGYzASYwZxZ/06+tdbmigZD4ab2RCiAVIEngxY6qlmvqtyfiZYUBN4V63seHew7Fkm13nGEi1YW+GbMzm7PmOIsSjZKXzr9UxqgGLJfHJZvKus7kRf/zZZGn9OPExrIGSmUrnavpK+++tVCPXu65ExX/dryUgmvjNNP45u74yH5Eik0IISeAXMtXioKfbi88b+K+nuxqLaqGp24vP201N5F8B1UKNo3u8va/bQY3ODxS1JtCm014WnKdqn3iN10vTLG6ZWxxefN5O6gsNWMZjCcSq1jjoCf67qSYYl1pNk8NBU3d34H3V6uDnC7TrcVgS/scuMNx7JMZZkIG75qa8JA1HNeRz7GwHb19x8/YVN66jFej9pDRUdfD2lQ5cZ928feo4Lz6ZGXV7VUftHDvbwTHz2L+n3/5ELO6QtvnR285GLOfpbM6LsLbRrwMYuxa6A9fZa50cyIuSbKoWasLiCf8MPY7qSfEk8zoLDy3FvicseSjBYbXOfs/0vXDjsY7ty2mu+Vjajx0vh4Oe7m583WPHJ/x7afx7aAb7Z6J9xPnm7Q68b02UTx1v+6CU+t6Kh1zvC/t6j+KRzChJdCzHawbX72zjT8nrS63j3LUR3rkmy0MKsdBIAr9QWRx02hXcrRvHi8ed0Mo48Foe5/fYaPe4w+8Uq9X0vGYn1986XlxuYyvk2jsn/eHyNhSNF5zZ72FSEZrKeIpGR3Bag0XuTFbW9dcG30Oh7HA3VvqpVVU2ngTjVmvwR30v5/2gKAosr6apEs7vmSiG41bsdHZP/rE0c/EO977KcLLqxi2rwPXSGi7sK2XlqlxWbjnEgLKJ02cnJ9m+xlJWrirFvCGXH05VAc/nZ+Tiz1AylsKyCo69tAZa7OPb13I2cfpo/uTXme24Tu2Fth2Btqt2UKet4eC21Yn8xHGcpzM8LywOfK/lwvh1E/06gLFrIYZiiN4hhvtvTMRzOA+aaoPx2NCMZXRGzPdM5nUW+nlT7XtCXa7g7g0WaLh+Y+p58BYHPa/ZQ47XRmr9edSXR6lwHWt77xDD/f2c7+9HGx9Ma6Cmu57l/bXBYpxKyPdQ/Ptnon0uN0LPN5sbxWhE0bvHFm/7cSn0vRUPud4X/PUeJVDWGQFPP2Evi/V4zeD6nV38aXp9CSHSliTwC5KBmnIj2slaGpxjlcp8OK2BwjDrHnHSYD0S8ofRQM3hMji5kfUNE0u3eJ1Wak9qGO1zXw1W0fqpDMYeGErnxhGMzTscMrTO68PZ0I8GGE3gsB7BOfEBaNjTjqaUYU3ngr5R5Bi/yd9tsOEaP8R9NLZdhoxN7JjxGvFDuFwaGpBjhOMbbDT6hsa3f7zjJihKxA2CfI69sJqMwUPscg2Nb8fXaMPcFksV+kBvxPTiOE9ndF5YaLIb8diKxs+9se2vt3kw2nV6p2Lmw+kcmYinyEqD1zcej+OkBsqyOR4amYrfE4H57+NJhHeqefCB46V4bCHHyxdYYaJVL7uKp70Pp9OJ0+nEMRA4OQsdVthTFNxXPnoHPHhsjlntH0tlGYTtf/A6j7D+6XY0nfMh3vbpTa73xErF630y1VJNU7cdIx72hy0hGc/xmsn1mybiqRXjPUjB48t47PHINemFEOlOEvgFKZssBbThyDLjQ4EiKMsjh5sVkqtoE71eIby9bjSMrJvjBHhSZdoYeFp1lqPz9uLWwJi38DL4UU8HrsgHXZcYBJRls583PNjWQuQZ4Ru5BRnfZHnog+Y15HCTV1r6ZvhOwd6I6eb2zfA8jfW8UGvKMeLhvN4vOqeD9gQVVNOLxzusgZLFI7PeejxS8XtibP77mCnmwVvyMKLR3hTjT/B424dSysjqt4ZVHPc2WMMSiZnsn+t+Tf+zeY9Q2zoy6eF426c1ud4TLBWvd1C2doYNVe+056JoNjaq1rDkelbHK5brN+UFasVo/nfnOxAhRAqQBH5BivIHOcof8EDFVU2/+Io30IsweVvpIpAAJK63I8Zkc1xwaF0SaCN6Nzn8+EchY+rxtAllWLYEuMXILH4LDfn9oKxl/RQ7NbHnaeR5YaDQpEweshnRXjEVLqBezhT8nrDkYYyYe3rAiO48eHW5AtHi0RFv+zBaO45p8v6Z7B9vQysexR6cj1uNJeTk8jqdkxO/ONtPSJ3vrVjJ9Z5oKXi9A9rJjWFD1Q1qEeutkefyLI9XDNfv7MzB9aU+QibgH56+yr0QYuG7d74DEMngo6HVQ5m9nprhseFyBiw15Ri1djbq/iEzcsDr5UCULc5PPdjUNOT3g2kZ2RDDULbAXfOBE2eSH1ga8/ZcQCsrJ2vanSrnaeKk3veEulyh/Wk1fG1tiwOfPTgPPuXXGYx3/zipLBpCtRRiLS/jwNYyDmgantbaKL2D8bafkJ7fW3K9J07qXe8LSbKvr0CVezctMhZeCIEk8AvX9X48njyyyjvx2QMPaZ529u/RGV4IgIf9EUPWhL5Asrk2toSiuAATftrinxFwd/G+wUWtnG15JdA11Y8aOU8TKqW+J4Lz3xsiHnb247HbyS00TMwjTlkz2T8+vE4flc4jgaXJKuvZbu+kJ8/GeqveluJtH5Ce31tyvSdUStFL1KIAACAASURBVF3vC0tyr68VrM/NhIFmmcsuhABkCP0CZaDmcDn0W6ksmhiatj60sE+IQFG4KSo9pzUDgZGzI4nrvPO+wUUtkyfXr5i2aXFeLgw0Uz9nPYeZZGbAqDZ3JW59I7eAJSyb1WjKq9SfcINpJ7VRzsPEnqeR54WP3oGpCksF2msDvanfCRyzFPueUAvJ1fSGyAaH/kbM/Y43nmTHH//2LTQ5Ikt5+3Bai1j/dDsYyyOKqMXbPjLAVP7emkyu90RLses9LmlwvJJ5fRXvZpvip80x3yNihBCpQhL4BSkwH8xoH1vntZsehyMwZ1JvfdtpCsCoNY64qvGqNdVzXrUeoszHs1gpU8DTn8g+hECyqZTtnmZt1RLWmWL5o1vCmt4RNve2EmXlW126heqCBeUG+uaw68x1iUGWYsqPjCebqniWkesqZ99AJtusUdbGneF5Gut54e11R1+xwGKlLEpBp/ky+TqL9zxKse+JR7JAt3hl8Md75Dx4Zz8e9OIJVNueHH+c7eMV9/4Z4oYSJekOzjEOF2/7SAn+3lJLaL42wju9rVFvus2KXO9hFtz1Hqf5Pl7Tx5/o3wVjVlC7ff5vqAkhUosk8AvUdb+G56SN/TYbJ1pbcQOYctlu78TnjVwex0fDnnbY2klPjSXkDrcBi6Obehzhc1JDOPs9YMyb2J5ajTVzZH6G3JmsNIXEr1qq6bEb0Ty2xKyhG6qrnH0DuVTURr/bXtx0GFMsf3SLC1isAEouK6bYXribYLRxzDyRNBvMFbheWM1oh53GOf3dGVheLqPURtV4PNmYj9rI1C4Dq/n+UTtVMfTQd1XuYcB0mGbdX0AzPE9jPS+8R4LLI3XTFPKDdqy9x1Yb9TpItpiusxmcR6n0PWHJmy6JNrIuLNEILMelbK2nZvxxAxZHPVmaBzCy3RGaZMTbPl4z2T8KZa91h8QTbF9TjlFz0zvr9hES+b2VXYAJQMmNftNtVuR6X8jXe9zm8HjNOP5EXl9jb137MtsUN/sqZ9D7rtZx7toI71xrneamghAi3dzz6GNZn8fzgj/6w8X84pe3kxVP0qV7/LFQa7rpzGzFEGU+pMXh5QC2yc+rFmoqyykzjt3P1/DYpi+OZHF0cyD4Gs3TTq01cj6dgZruTsqidRNo7WwsOoI3op12ciO11NO5NfiAx4ahPw+ffeyH/tj8PAtNXjvYVBw4qLcbgz0S0eO3OILVrfV4dPaNrhKar+3kxnfWTv5jXNzKue0jVBcejGFIXwlreg+zGDfXasq5Mu0L8jl2FHbt9mOuKuX7pavJABi9yWCbPWQt9gmGqg5Oly7V3dpoxw7MjcHXmO28/UJIr/ngIVbuDiwPZz7q5sWckKeez2VXyDp2BrOdg9tWk5ERiOWVNjuNlOLaBgNtl+gb7sMXy42F4lbeOQD7oq1dG/N5Gv95Edh8NdbyMiY276G91RG29vZ425ruifMzgnZyI+sbgq+xOELOW8LOschz0WNTdW84TX+dxXcepc73RMT3Q8T1F7mPw/YroFoc1JcbURRA02hvraUBKz3l4G7tp/e6E2/IvoipPdX0vFam37M53fdDzPvHQI2jniw0UBSMykR7zePW/x6Nq300ifreArW4jiMHyqF9AwX1SaqOLdf7Arve9fZj7HPtYzpe6iyu3xjin1riri/UOs69vpaLetuK+fXlKLij/z0VQqSdfzh9RhL4hSjqH+KQ57f7w38Ep7eJH24J72mfjlpCc0MB5wtD/ziW0Nwb+ZiIh1rcypF4fujomsfzIg3cfd8TYlzCvrdWUNt7lqwTy9g57192cr1PRa73OZSQ66uE5t6dcGLt7K6t4lbe2T5Cyaz+lgohUsk/nD4jQ+gXIme/B81ojxj2BoGhlt0cMKbW3L6EmY+16r1n2FkzwrqmkuC+XkFtUwHnayR5nw1vVznVJ5bxbMxTCqYwH+dFGrhrvydEwr631OLdPOnfkwLJewi53nXJ9T6HEnB9FTclIHknUDBPc78hybsQC4z0wC9UwWFvuUYlZBhZYKjliSb9qrNpKXKooix7I0DOi1jdLd8TIuHU2laOZJ6juvLM/CcHcr3HRq73u0wJzdcKOC/D54VYcCSBF0IIIYQQQggh0oAMoRdCCCGEEEIIIdKAJPBCCCGEEEIIIUQakAReiNlSS2gOK1Yja66mtLDjJRJLzn8hhBBCiGSSBF6IWQkuFzNeyOkq9ZXnWNcrSUxqijxeIrHk/BdCCCGESCZJ4MVdyoCqGlBVCzU1DnoclhlsYwW1vTu5MWlpmDPsPAEVvXVJ7OXNxmDIxmDIp6rKjutoftLeaeHQO17fQM36BsXf20ytcYqXziE16xuoxs00f+8bcbwq8DnUrFXUfm8z5+pWJS2+6c3F+S+EEEIIcXe6d74DEHcDAzXdnZQpUZ7W2tlYdGROe0TVGiv1JgVQUBTA0x/3NoqbzvKkewMFeoF3ldOSN8KR2jcoqL8623AnMVSVctC4BFhKRgYweCnGV+ZTdXYvz2Tc5JUtpTTeRcv+6h0v9XtGjlgeRQEGfjRvoU3IyuPZ557AtBg0pyfml6nfM3LkWw8BX0NZDLx1LWkhxiTJ578QQgghxN1KeuDFLFlomrb32kdDkYpBVTGoG2nXCCTtavCxOU7eAbwNVtYXFbG+SGV/7HnSBLWOCpOblimSky5HK5S9TG0SuiF9jTbMG0oxb8jlh4PxvNKf+GDC5HMsFUcDRDle3r8/TUGJk4F5CmuSG/3s3NVCW5wrXXr//jQFu35Ewa6/Yd9byQktXsk8/4UQQggh7laSwIvZUZcRrWN9ISu2lkP70Yih8xG8B2kZyGSbtWSuworBEI0bclm5Kkm97wYlJc+HmI6XSKyUPP+FEEIIIdKbJPBiVtTC3JRM2JJKraPC5Odiz/RDg7v63WAquGsKehnyv03GfAcRKY7jJRLrbjv/hRBCCCGSTRJ4MWOqpZr6rclI3w2oKTzsVl2/FgU/w7GM++86xwC5rEulDMaQjdmcnfjNmis4WLo04dudrbiOl0isVDz/hRBCCCHSmBSxW8BUi4P6cmOgSBugae2c2DPCusN2jIpG+9NFNHjDXkBNZTllxrEXeGhvddDgDB9rrdZ00xmauBvt+Lz28X96bCqVzpnFbHF4OWAE7eRGTlTWc8CoAIFYewsd1G81oqDhOVlLZYMP1GqaKrNAUaC1iMrr1TQdLiPwETQ0Tyu1VmdC59hnZ2aCdoGhmFq/yw0NtuWVQNeZBEYRH0NVB6dLYXR0rOjdIVyuaT6BoYJjL20iZ7xL/SaDg7dQtEuYG/sith2SuOfs5e0re8f/Ofh8LrtcetvPp6piC8/kBF87eplX2jpoDI3LkE9VxRoylSXQVsqu4fDXjA6+St3uFqaaDRDX8cpaRfNzf4Vp8dcA0N76CdUH+3XOn29QXPcdKr71tYkRKLd/zcCPX2en572o2659+q/Y9q2vBR/4NQPO19n591Hah1C/9wPOWL42/m/N2UJBDK+bUlYezcGCeYH436Xtxx7qo8SvGjdz5H88GiiSB2i3f0LLy79k3XMWTIt/TVvtj6i/EfmqOM9/tY5zr5ej4Gbf45GrOwghhBBCCOmBX6gsDjrtCu7WjePF405oZRx4LY/ze2y0e9zhPZJqNT2v2cn1t44Xl9vYCrn2TpoiatR5G4qC2wwWgPPYxv9tUGeevAM4rcEidyYr6/prg++hUHa4Gyv91KoqG0+CcauVQFi9nPeDoiiwvJqmSji/JxjL0624FTud3dUJXM5qBcszAf/1GG8KXGU42XXjYuBrLGXlqjiK3hkqcJ36Nv62HaxclcvKVblsfv5NlJzVZEQMughsO9Dmh4PA4KHxf69cFS15r8B1ai8m7RSbx7bfBqYXjnPMHLpxPyMXf4aSsRSWVXDspTXQYg9se8shtJxNnJ6yaF4cx2tpHueee5zzL/+Ix0r+hsdqnVz84yc4cywv4vxZRfOZCl7in6gu+ZtA25K/oeTH75D5gwqa9Zajy8rjXL2FJ/knSsZeU/sOmZYKzsWwXJz3739EifPX8JaTkpK/mX3ybtzMO/WPwY9bQuKHJ6PFb9zMmR88xMXx9i20/PwJXqp/nPMvO2l76x2GJyXvkCrnvxBCCCHEQiEJ/IJkoKbciHayNqT33IfTasODkXWPOGmwHsEZ2v5wGZzcyPqGid5qr9NK7UkNo93BTFZJnw1F66cyGPt1vwa4cQRj8w5rEw29PpwN/WiA0QQO6xGcEx+Ahj3taEoZ1rn+AGnOXLEJOuxhveE+VwvmLa8yqigYZrX1bKpe2gQdOzA39o33nvtcNuo6bpLzgp2JHH4Il0tDA3KMcHyDjUZfMCZfH8c7bsKs4wkwfeshWnadpmssEb1xhfofvwuLn+DZ0KTW+Dgmfk3ba1fCbgp4PVe5eBsyl0Ym5N+g9rknUG7/hOqDIa+5EWivfGvF9DeYsvJ4dvE/UXLwSgJGk6yi+QePMvCjH4WNFvB6TlPwo3cx/eAH1GZFxP8/HkVzvh7SO/8eXQedDPAo6755hfqD/YnpLfcepODxZTwmve9CCCGEELokgV+QsslSQBuOHFg8xA0NlOUR6Y5aSK6i4e6dPBDZ2+tGw8i6OU6ANX9sA9RDeVp1lqPz9uLWwJgnGXw8hrWbZCiZk5/wtVDXpk1+PB4GE6aMmwz0TT7Gvr43GWU1a82TXzbYNnmovG/kFmR8k+WziwgA7S3P5KTRc40BIpJyj4d9P/onenR7nHUYjWxbDAM/jhyK/x7Db71L24+vTp2UZ+Vx7jn424Qk76B+768w8S7n9ZZP9Hhou/01nnwi9CbE18laDP6bkb3+/8YN3RsWQgghhBAiWSSBX5CiJOpREvtAJXlNv8iXdwQNvW2lCx/DGqAsS9Aw+uCQ4MxHYtxecAh3mvE1nmJQ2cvbVzo4VlWBOeTw+1x9U845n06gUv0tRvQ24gv0tivLElVkL/bjNTlBhbEkVVn89ZDH3qPLcwUv30A15tFc9wPOHfsb3jlTwbbFk7egLn0IoiTMXX9/OuqccyA49P4JlJ//MkF1HL7B+m99Dd66FqWH+z2Gfx45KiBaoh4tsQ+Vnue/EEIIIUSqkiJ2C5KPhlYPZfZ6aobHhtEbsNSUY9Ta2ag7R93IAa/3/2fv/oOiuvN8/z/bujdbhYDioKiANpBR6caELcZJea1Fm8GEeDHKJdcdrZqY60iM5hsTE0mIqWxtjRXHSDJJ3A1MJPHG3CrNZsOihlFmNA3xluvNeqnVSIOaQRqB+IsRFaVqvVX2949umqbpRhoaGtrXo4ra6XM+55x3n9Om9n0+n8/7wzY/Zxxin2tYOd/UBJYUZsEAkqrZJBuhelfoCtgNzh/ZuKwJ01MWnv/137J19d+ytbmFbz99m433K343IPPZesrKVj97m4NwhW6BPa+BMf9qJe8tnw1t5/jmX77iHy9ewnZhGoU71/GLIF2D+EVUvQwf7z/Hb5cvp3TRKdb76jUfdpco/pdz/PrFpyls6R5GP428X/0Nlrbj5Pcb01j9/YuIiIiMTkrgw9UPR6ipWUxywT9T7yoQb6/ZzZbXfAwzB6CGLeYXGEL9uQeG7dBR7GuyedjM/TPCvBwsNPFpMHLeEXee+oPn2XjwY+fSc+veZO1vfs/BX7zDUy/98f6H9+sEb6W/ia/6dsEW0PMagO6K8NX/8LH/ivNBYJzeTv5G17D7+L/nty+uJK9mX2jmhl9soPpkKsn/bR1nX3Rusp88zhsf+KrQ72FM//5FRERERh8NoQ9LJjbvKIAjL7Dhv/ZUh1/iWeDNg7MonNGZ4IQdEw8bAXtj8JaSs1XyjT2JXyxJu2/TvMVZUF1K8Zhag/wJdnpXdq8/z8GXVvPUqn+ChavYNIQZFfWNrUACKSM1KyOA59WXc5i4ve2K63P3EPT9A07ebS3tQCwPJ/trkU6ej8rv9pM9c+O7C8b9tig9sPD7uMShk3+B6ZP9TCmYxsPTe1/bWYTvb+D/7GP9xp6q+znbj/QU/PNjbP7+RUREREYvJfBhyTnve9HbNuptNg794Q8c+ugjSja/yvLlPrKm/R+x224k60nfGZV580dsDiC5N29+dcSr1oOfefrLX2CNEWqOBHNsQR3Fu6wY17xEXr/t8nnc0sSnH91v+HA+mYcbWXm4DON9Wo6MJpqMfpJ01xz1QJg2raNXTbqDe/isORHLE77nuZs2vT2kFwR9Dex5+SzG5qo4/83x7mTdmdDf3zTM3Ql7TQPVeBeG62H+VSoPX7zf+U6x/h/Owbzlvpd5C4Dt+Fns3pX1uy1axK/jPb8vdM+Lt7z495wt/3uqdr5IVdFKSn+1mLxF/RWwG+jvX0REREQGSgl8mPqhyU7N/3yTLW++ya6yMqwAliyee/ufqbf9wSshr+fd13bD//hnDm1e7tEzZ2L5R3+gmI94108P2v4jNbBocc/5zK/yQlJjaIbiW16gxCN+8/JXOfT2Iuw1bw5pbXqfKgp4ozqLdYX+e3XzSnZgGUjvY14O8UbAmEVaP+cbWYk8u3cPm57yTLJn8dSmVSxs/lf+6KeK3cFvTsDCzJ4E3LSO5412r6Hy53n/jX+C1b/n4KYnPJaAm8VTH+5hO3t4fyhV8ny57/P6C8x7mlKPhNS8aDFVL7qWT3P3NJ/iTydxJdIebZPTKd35NL+gu+BdHEvcCbsz+TYuX0fVr9I9/n1NI6/oRd6jxuP8/ajZxxsnwfLiSvL89uYPwIUjvLr/L1hefNHn963+h6/6xHO+rZ3q/ft54x/28/G//G++AZg3h3UvruNsufeyc04D/v17MhdR1dDI2Yay+7wcExEREXkwGWbPSXYEcsCUyfFcvdY2XPEMu7Ee/0CYN/+Bf04qw/SC76x1+Uc2tvFm3/3m5WzeUMCaRd39wHZq3ix0r8fuz/KP/sA21zH2mt0UvuA9z97E5j/8M2v8dS/bd/Pf/+t72Lza2f/nf6eQYv75f7g21LyJ6chi6t/u7jrsnre/nBLb2/CmmY/4iOK3F7l6sv3Hv/wjG9v89WTW+Lg3PuVT2rCeC09n901S8sqoeq6RV5/cPoCh+/lkHt5BPFYaNhdwagAJz1MfWtm60M/Ob9/hUa856qZNe9i3OtFn8+Y9z/PU+56TlGex6cM3SaIVjAksnNl9XAvN3/4rRS/1Xc6td2x72LrQeUzzt//kv73pCTatW8WzC3vO/+3feRXJe+ptTv9mvs/v5n0Pvv27LDb2O6ne3/NKp7QI1m+/Qt6vFrFu+Wzn76ftL1T/y1c+hspP690O53zwj788QsWMlVS9OBtj2zne2Og1Xz05ndKX/wZL/E9cG/5C9f6vWP+/PM7fXXW++3Pbcfc8+O65992q/+Hv3UXt8or+nt/O8/O1T+5nzvZTfTabFy3m//tvC7B0jyhoO8en/1LTpyq++VcvUh7/v32ew31tvK4R0O/f82JFVH1VgBErb2gteBEREZE+lMCHIb8Jusf+55r+O0veDXY3Z6j0JPBB72m/H3M+pe/m8KcnPZONfEoPe2+TUcHn85L++EzQvfava/uYHPeLiCH+/vPKOPtcI/mBJv8iIiIiDwANoQ9D+4/UYF/0ttdweHAuJfcHti2yYz0cLsm7h1CsVW8rZ/3mRh4vyXfd6zQKS3L402YliKNSn+cl91Pxf85hn7fca/g/OEcivMhv53nOmR/67z9vcRZ2a6WSdxEREREf1AMfrlzD4bMWGT0Ko9mx11jZVeK7Gv2YtPwjjyH1oOXwRIZBcjqFK/6GX8z7icd/T/6C/eRZ59SBgczhH5B8Shty+JOGz4uIiIj4pAReREREREREZAzQEHoRERERERGRMUAJvIiIiIiIiMgYoAReREREREREZAxQAh92EoiMTyBuyVqSM0IdS5DFJxAZP4/k1UuJC3UsIiIiIiIiI+w/hToACa7IJTmYFpqJANq/DHU0wTSPtFWLiY2dDNhoCHU4IiIiIiIiI0w98GHm9qFP+LfX99Ie6kCC7iR1xduo+XKsrX+XQubllFAHISIiIiIiYUAJvMhwujuR6FDHICIiIiIiYUEJvMgwirmTSFSogxARERERkbCgBF4GJTJjLWk+i+QlkLx6KZEjHdAoFHMngwVXhqf/PeaOhcw7vvZMIv1yBjHDclUREREREQklFbELd/Gexd+gq95K/Z6vue2z7VLSVmURG+v63G7jorWKC7WtPW0y1rJohdm5u1eRvASSC19lRizQbuWqx/WTsx8lYsoUsG6j7vI8krMXM8M0kHjmkbZqlTuervq91NcN4h54yitj5basATRsouHpbE4NYsp9TMdycjwT9xsLWHljgftjW+LnHBvv+nA3hfTrM4gGou9OIIoWqmbU0sEkjJczmX8jGrhFW9wxjsVchzsWVrYkus7jedVJpF/MJbULiLDR7CuwuymkX59L6g1XbBEtNPzkNKfGX/f/ZcxFVH1VgBErb6QWUBHozRARERERkaBRAh/O4pby86w4mvduo64NZzK9ahU/K4T/W+yVNGesZdGKKbR/+R41roQ9MmMtphWvEsEm6mpd7Wo/oaZ2HmnvrPK6WCsXijdxdckWfmb22Nx2iTt1U4ldYaYrbilpWXF07f2cmj2tzgR94yp+tvoyNXtO9j5dxlp+vsJMlzueBGeF/SwzMIRCdhUF7BvmLLQjZj/7XF3gxsvPMJ/j7Jva6LvxQx3ciIIbwIy/LHANt59E+sVM+Mkx9k3FmZhfeRRjTDX28dXsm5NC5tkFXie6zqkZn9PcsZycTh/XuZtB7gUzxB2nak4jHTh78Re05BLt+UJBRERERERGLQ2hD2Ox5jiaiz/hSptrQ9tJLlhtEJuFsdfw93mkrTDT/uU26jx622/XfsK/fWkjdsUWkuMHG0UrV2ov0wXEmsFe/AkX2lrd8di/vQZTpnoNuXfGE1G/1yOeVmeFfetYq0J/P9exj2/EPr6RM1G3AJh5+VGYut/VM36d5qgW2hJPYx/0NSaRftkMcZVUxjiTd4CO8dUcj7tFfIsFo79DbdvJSU1hjnrfRURERERCTgl8GOuyVXHFe2PtadqBiLgE96bIJYuJxca1Wu/GQG0VF9snE/togo+dgWm39h0qf/vKVYiNo1cHcMajxHKNi0e9euUfBF1moqOqOfVQz6aOmGqO9TfM/X7uJpHQdYtWH+foGN9CJ4nM8DmfXkRERERERhMNoQ9jXVdafWy9RFc7xE6eBjiHpk8xT4b6I32TfQBauXMVZpj/mshDrb7nqgdZZNwU4Cp32u7bNHAjMAd+SCJsnAnycHZnJfyb3HjIx86HbnALiL47CYbykkBERERERIadEnh5sIzAHPjRKZH5Z59hvp+9vqbNi4iIiIjI6KIEXuSB0MKJOdVDmEcvIiIiIiKhpjnwD5xpRMRC17VLrs+tXLX5KiTXLYHxU6DL9u8jMnweXPPimcL4QRfOE08dD90EJjDxbqgjERERERGRoVACH8Y8C9W5uQrEtZ/2qDZ/+gxdfSrTd7fPYUZs7/b+z++aTz9Utadpx1fhvASSs8w+DxlLYjoy/Fd9D0D03UleWyYxszO6b8Pxp2mIiCbhjnf77ngspCu5FxEREREZ9ZTAh61rYH6GtAyPavMZS51rq3/7ORc8C8S1fU39t9eIXbHFZ/v2L73ac5Jr9RCxMIe47l7y+ASSV+cQcfUaxGZhWr20Z1/AnMvLRSx8hmR3PAnErX6GiKs2wMzM1WuHsLTdyLFHtcCNGT0J8t0M5v7HjSEOZW/k4kSIuvIoRvd5J5F++VGiH7oFXWYWXM7o2cd1Tk21wZVccjtSiHGfZxLGy8tZwOleVe97MRdR1dDI2YYy8oYUs4iIiIiIDJVh9pxkRyAHTJkcz9Vrw1EefGSM9fgHZh5pq6FuzyXiluQwc6GZCID2a7RbP++11runyIylGLOyiI11bWi3cdFaxQWf7RNIXv0MM0yT3W0b9n7CnUe3YJp8hua6y9ypPcntjLUsWuHRa16/l5o9zuXh4la/T6qpZ1f7l5uo81jKLjJjLaYsMxGxztgvWj/nAjn8PAvarae5evkkt8fAozReXs78G86e8c6JNo5PrXWvxc7dDHIvmInydeDE4+yb2ujnrJNIv5xJquu8RLRwYmo1N+8sZ8F/tFAXdYOb43vWfHdeK4X063N7juEWbYnH+l+izlxE1VcFGLHyhtaCFxEREREJKSXwItK/vDLOPtdI/pPbGelV9UREREREpIeG0ItIv/IWZ2G3Vip5FxEREREJMS0jJyL9yOdxi5WPN9SFOhARERERkQeeEngR6Uc561PLQx2EiIiIiIigIfQiIiIiIiIiY4ISeF/yyjjb0EhVSRFjf9XxMcCcT2lJvu61yKiTRmFJqJYQTKOw5ChnGxop1RqGIiIiIoASeN8qCpiTuoyPm7J5rzAt1NGEuXxK383hTxvKVSRNZNSpo3hDFY8fHvkk3lz4Ab+mlPzUFNZr/UIRERERQAl8P+qoOHQUsnLVM+zFxARMjsd4JaAFCH1Jo/Dwei5s1vriIqNXOet3wbrDIzkiKY0lWfDpR3qxJyIiIuJJRez6Y/uBJn4a6ihGF8djvOOYxkygxjC0U+WVHOAX1mXk+Pz/0NMwlnxAmiWJKNeWTruV1l1VRD8Mx4rDtbBaPumHd5BqbKLh6WxOjXT2klfGym1Z92lk5URqAfYRCWi0C/HzGikVBXy8uJH3CivJKR6pFQma+HO43k8RERGRQVIPfNhLZKcjMXinM3zH0nG11Az1POYi1lmsfOwzGUgj/fAB0ppKOZ6awr7UFPalLqPOmkTqth3EZ/2UmKFef9Q6F2D7fDJL8oN3+YoC9qW+RhvQuXuZ6973/FVtsdJJFjPCdk5yoPcz0Oc1dlV8VAZrPqBQQ5JEREREQkYJfNiLIinUIfiQ90IB7P7QQghehAAAIABJREFU59D5mMIPSKWM48XldLi31mEvzqZqd9PIBRkSdZx6MoV9qQPszTX/lOhhj6lHR0UBlVusRC8O4kuD0STg+xng8xrLbNv5uDqJX78Qps9eREREZAxQAh/mTI7pzAx1EN7MRayzNPHNId9DcSckJdFprfRI3nt0FL9MAylMGN4Ix4yYJdnuKQYjpqKAuibCchRESO7nGFJxxAqWnBBVpRcRERERJfBhzOQw8Y4jMtRh9GFeko3xPvNbo5Jm+9lTx6nNH474/OuYvDIyfWYtaaSXFAU3mTWnYcy7/+oHMXlFLFgzkuMr0ogxO+Oy9xodER4GfT8H+LzCQkUV1WTxuDJ4ERERkZBQEbv7MaYwC4apEnIirzhm86w7yb5NjeEkGw03fbSdwDLHPNY6Ij161H23Nzmy+cIzcXdk8L0jw/2xxrCfjT4L0AUST88xO+/NZhHOY5oN53ndUE99P0fMSkoC+1HO+9l/s6kJ1uwgt/Aclb7myNv8FNEy55P+wnpSLa4kzG6lYdeHnKoYYHuaaNv9Msc8r+lR1K1ti+fBznn6qUbAXkZzr3PmEA1EJyURxVGqntxOh6so33xLks/rxBQeJWcNdNqTiDIC1a9h9xO3s61HomnZwcqGHe6PbVtSOOaem5BPZsMO4t17uwvQecTv+u73L8I2m7kvwLENvePyjqdz9zIqi2f3uq5zm9f3Gcj976+9r+drLiLzhRRISoJd2Rw7X0TmuwXEG53n76wu5fiG3i8fArufnscM7Hn1is0di7/4Xb8fd/y9v3NndRnHN2wPzssT0xNsWreKZxe6amQ0n+CzT/fw/kF//zIBznHBDr9enA8Vw1lIcjbJRvjzMF5BREREZCxSD3y/yvnH3UmsK8kfhuWTTHx9LwML5/jluP08Mm4/j4z7kSSHha8d3gPEE9l5z8JWzvG6u+1+fmlwtt/ptZxbveGou81bBsBQ6/78yDh/yXsg8XgeM51vxp10ta+l2jGLL/otmpfGw0lA0w9+X4p0FL/MieomotYcYOXho2QOpHfTXETuVztIaCqlqrvg2i5I2HbAd895d3t62u97+ijRaw6QW+hxPY+ibr055z73mZNvO8eNI1VcPFLFLXf1gTTSD3/AxCMvsy91GQ32JOLXvITR47CO4mz2pWZT+WQKJ6r7/6rOts6YT1QD1a/1KjTXO9ks51hqd5ye1eN74u+sfo2qAczhjsnL8XgR4BXP02V04ozFmaiXcyx1GQ12KyeeTvGRvA/w/nu3v+/zreRiE0Qbk+DhIjJfgIubu89fSmvSDnIO9x4xEdj99DxmYM8LcL4I+iobdvUUBvQZv+0cN4409sT/bg589LIr/te4ZSkgJxhFC03rOLj3dSz2vaxMz+LR9CxWfgqW3/yenU/1d2Adfx72MhRp5BWuJ6m6SstLioiIiHh5IBP4KZPje/31x1b8Mh835fBeQ1kQ531O4JV7s5jJeV43tHj0VrdRDcx0xGPybO6YziJu81mvtlBvcLZPGvKM8ADjcVnkgNfHfccBunvoW6gy3AZHlM/2A1eHfUM2VVvKaCOJ+G0HWNlwlMzCfD9D1dNIf7cAdi+j0mNod0dFAcd3NxG/raxXstzdPspe1rs31lZJqx2isnKHMCS+DntFOfaKcs5YnZnOzJKXYHO2q6e1jmarlbYtIzsNoKO4lDaSmOj1JmpCErR+5Hs4fNSaA6xsaHT/5fS3vJxtO8d3N4FlPemua8QUfkD0rgLsfV4MBHr/A3i+tjrsxVXcAuKz4MyG7T3Xt5VzanMZncYC5o7oEPB8Mrdl0bYlm2Meve3dBQHjtx113zPn7+eHnvifLOBU94gTWzlndjdB0lBXYZjFpt/+Lex5nqfe/6P733v9wTcp2tPCwt+8Tb85/LDKp7ThAx6nlFc3hOtSkSIiIiKD90Am8FevtfX6609eyQHWUcWrqQXB6w1yzOFZoKbPUPObNBou8Zmhrfd2w1neMpyjKljXH2o8Ln3bQz2dQBQ/DUJYHRXbOfaks+exzQ7xa3aQc9g7GQfMuSQYm2j1URSv49DRvsue5b1EqhHadnkPRa7jhtVKwy7fBfQGxVhA9JGCXr3bHcUFvRK5kVHOxeokEpZ49G6bi0ij1G/Pu/cycvdbAaCj+GUa7EmkvpBPjLmIuUmlPnuvA77/gT5fl77nx/2SIH4Eq+jHFK4nHisXfd2Lig9psHs9Fxdf8Xf8uQmMQyziaLJgmdlC9R/7DpWv/+O/0sx8skOWwZezPjWbf2Q97wVzeUQRERGRMPFAJvADl8/jFisfF5cHdQ68iSjgEt/4GMp+wPAdv+sz5/wmBwwt1DMBk8PETkc2X99bzvf3LDwbkniGwjUEN+mnA5+WYCvn2JPOHvlOYxbzvYZAOyuHN3HD10OyOXszox/uSZBiHk4CPwmVvbjA/5z5wbCXcWaUjAO2H7H26t2OWZLNrSMD7+V09uL3p87Zw23ZQc67KVz004Ma6P0P9Pn2r44brt/fyFTRT2NmVhJUV/kZceGMZ2ijPgJjeuK/MJNWGn29lau3YweMKbP8HO2aAjPMbMWlNKnavYiIiEgfKmJ3P/ZGv8XWRpLJ8RjvOKYBl6g2nOT3425SzwReuWfBEurgAnS+qQksgRcH7KjYTuV5yP2qgLl52716d7OY39DIfD/Hdg462jBSUUXbth2ue5fGzKwmLhYHcoJz3Lrf/GfbduqqC5gf9B+lnm9wzWfrKStb/ext9rO9u7hc9a7hHt5+jgv2nGG+hoiIiMjYowR+DOiuKl9jqL5PRfixwXboKPY12TxsxkcGn0Z6SS7N/ipt2ypptReQ8HAa4NlT61mgTXwr58zu9eQszofzPyWhqYpTAR1fx6n7Jfx5ZaQ1vUZD0g7ml+RjD9o8Zj3f4DrBW+lvcjDQw/JysNDEp6PhraaIiIjIA0hD6EOge554it8WiSxzV5afQI4jEgy1w5a8BxZPENgq+caexC98zPuFOm6QzcwAyv53OMfk9ynQNvj2+RjDdOxux6GjdFpySA9w+Ly3mMIyj8Jr3fLJXNzI8eJy91B6XysABHr/A32+/UtjomsVhJFZx76OZmt/heec8XRag1h34T7qG1uBBFIGUWkyb3EWVJdSPDzraoqIiIjIfSiBDwXDj9QQicXP8mwmx3RS3PPRo/sWbfNpwoArv5scJpYNOp5gqKN4lxXjmpd8znG92QSp7xb5SXhmE+1d0KyfQmDgI9msqKKN/trnMNFHD2Pfedau+c2jTExhkf/fjK2SVnsWqWuafBdVG5B85mY10uyVxBlLcrj1kWvkhKsqffxzPp5joPc/0Ofr4nNefHcBvQBeXvR7Pweg49BR/5Xv814i1U+BvmFzcA+fNSdiecL3PHfTprfZ5PM/Jvk8bmni049UHV5EREQkVJTAh0QLGw2XmOmw8LUj0SPxnsAyRzbvcJbfebT9xgA4MtjpkWCbSGTnvXlYgJlEA9Hk+EjAD3AJHNN5xePI5+nkwKDjCZKKAt6ozmKdjzW/nZW2C5wV582eVdPzyTy8g+jdL3tVTncWT2PNAXJ7LTWXhrHkKAv40Kt9Oce2WIkKoP3Faoha8xLG7kTRnEZ6yUtENzljXVBS1LNvBNmPWMGS05PAmouYm/RDP0PNXT3Cfouq9S8mr4jchh3Ee/VgxxQeZT5VXtX2S2kzFrCgxHv5v0Dvf6DP1yXrpV5LD8bkFZG7LYvO6td8V8dnMPdzALpfZmw7SmaeRzFFVzxtW7x/z8PtPO+/8U+w+vcc3PSEx7/3WTz14R62s4f3fRS4yyvZgUW97yIiIiIhZZg9JzmgwdFTJsffd+m10Syg+M1FVL0Lrz65PahV6HsksvPebBYR6fp8mxrDSR9D5SewzDGHtY5pzHRtaTac5xNDPQccj/G1YxozucRb477zSsydljmy2eqIdB/3uo/l3wYcj+MxvndM6/lsqOURQ4vrOsvZ6vFrqjHsZ2O/Pff5lDas58LT2b2TgrwichdDXRPMyMom3ujq5bY30bbrZf9LsJnzSX9hPamW7l7xJtq29N8+8931PeenibbdL3Os2Ff7NNJLPug5t93Kic0F3FxylAVJR6k78gM3K8rpMBeR+1UBUb6uV/0a+/xVZi88Ss4a3735nbuXUekzJidjyVHmu+LqrC7juL/6Ae5rlTH3zwV+lngrY2V/6727tG1JcR7v9X3dsfa5Dz7msAd0/wng+eaT2bADtqRwhjIWbMtyxXGf34PLQO7nYJ5XTF4Rc58rIL67O99upWHXh72r7nvff4/fjLGksVdxQPczGCzTE2xat4pnFya6NrTw7d+9zcaDPoaf5JVR9VzjMP630FsahYc/gM3ZemEgIiIi4uGBTOA9+f8uac414JuWkdNP8iRDZM6n9N0c/vRkAaNktbUwd58igWGhJ4EfUoIrLvmUHh75f6PmwqOUJ5WSvyG4y3iKiIiIjGUP5BD6q9fa3H8+5ZVxtuEA6yjjVSXvw8tWzvrNjTxekj/wdeElQPlkHj7qLCiX9xLRTSNXMC2kBrw2vPiXRmFJDn/aPPIv2GzFL/Mp6ylvaKQ0TItKioiIiATqgeyBH8vxiwTMnE/mVzuIBzqrX6MyaEu7jUJ9pgBo+TkRERERCR9K4EVERERERETGgAdyCL2IiIiIiIjIWKMEXkRERERERGQMUAIvIiIiIiIiMgYogQ87CUTGJxC3ZC3JGaGOJcjiE4iMn0fy6qXEhTqWkJtEzN1JxNxNIb3DQu7llFAHJCIiIiIiw+w/hToACa7IJTmYFpqJANq/DHU0wTSPtFWLiY2dDNhoCHU4gbibQvr1uaTeiHZtuEVb3DGOxVwf9CljOh5lQecEIJqoLmDixWBEKiIiIiIio5gS+DBz+9An/NuheaS9syrUoQTZSeqKT0LGWhatCHUsAbibQe4FM7cSK9k31Zmwx3QsJ+dKLpkPfc6x8YM7bUdMNZUxzv9tvPwM84MUroiIiIiIjF5K4EWGkfG6maiJx6kc39Pb3jG+hbaJcGaQybuIiIiIiDyYlMCLDLPOv+roveGhWo5NDU0sIiIiIiIydqmInQxKZMZa0nwWyUsgefVSIkc6oFFpEhPvhjoGEREREREJF+qBD3fxnsXfoKveSv2er7nts+1S0lZlERvr+txu46K1igu1rT1tMtayaIXZubtXkbwEkgtfZUYs0G7lqsf1k7MfJWLKFLBuo+7yPJKzFzPDNJB45pG2apU7nq76vdTXDeIeeMorY+W2rAE0bKLh6WxO2QK/hPHyM8y/4bGhK5eVV3o+dsZVUtmngN0kjJczSbsRTVT3pohbtP3kGMfGD77YXS93M8i8bCa+q3vDLdom3iT6ry5SGdPoo71X8b2IFhp+cppT/cVjLqLqqwKMWHkjtYCK4EQuIiIiIiIogQ9vcUv5eVYczXu3UdeGM5letYqfFcL/LfZKmjPWsmjFFNq/fI8aV8IembEW04pXiWATdbWudrWfUFPrq0heKxeKN3F1yRZ+ZvbY3HaJO3VTiV1hpituKWlZcXTt/ZyaPa3OBH3jKn62+jI1e072Pl3GWn6+wkyXO54EZ4X9LDMwiKy6W0UB+4Y5q7RP/Rz7VIBJpF/MJSHKV8LuKYXMswuIn3icqjmNdA+4j7mTwYKWXDITB1/szu1uBrkXEmlNrOTYjOse5zcT5auCvav4HnE9McXcsbCgJZfoYMQjIiIiIiIB0xD6MBZrjqO5+BOutLk2tJ3kgtUGsVkYew1/n0faCjPtX26jzqO3/XbtJ/zblzZiV2whOX6wUbRypfYyXUCsGezFn3ChrdUdj/3bazBlqteQe2c8EfV7PeJpdVbYtw4heR+t7swgnls0TOpJ3gE6xjfRGgHRdycN+RLG62aIO9ar97xjfC2VyTY6704kplfrSaRfNkNcJZUxPTF1jK/meNwt4lssGP1dyLadnNQU5qj3XUREREQk6JTAh7EuWxVXvDfWnqYdiIhLcG+KXLKYWGxcq/VuDNRWcbF9MrGPJvjYGZh2a9+h8revXIXYOHp16GY8SizXuHjUq1c+XI0/zYnEMzQ/NHyXuPlXt4j6j5i+Ox6q5fhPbvTedjeJhK5btPoYKt8xvoVOEplxZ5gCFRERERERvzSEPox1XWn1sfUSXe0QO3ka4ByaPsU8GeqP9E32AWjlzlWYYf5rIg+1+p6rHmSRcVOAq9xpu2/TwI3AHPjAXcc+/jowiZg7ScztTCT6bjRRrrnqnVH9HjwgHTFnaLu4gJVn59IW18LF8bXYXS8MOsb3nv8ecyeRKG5yw9cLhYducAvXqIBgzc0XEREREZEBUQIvD5YRmAM/GDEdFhZcSYSIFlp/cowz//k6HQ+55tAH5QqNHJvR4XxB8Bcz86+Ymd9vkbxE5p99hvl+ztYZlJhERERERCQQSuBFQiymYzk5V6JpS6wMXsV5n67TMf46x8bXwt1JGK9nktaSS+7E41RO9a5C38KJOdXYhzEaEREREREJjObAP3CmERELXdcuuT63ctXmq5BctwTGT4Eu27+PyPB5cM2LZwrjB104byyZxMzOaJh4fBiT9xQyL6f03vTQdexT91OZbIMbc0n3WK++46GbwAStYS8iIiIiMsoogQ9jnoXq3FwF4tpPe1SbP32Grj6V6bvb5zAjtnd7/+d3zacfqtrTtOOrcF4CyVlmn4eMXTFEd92/FUwiZtAJdQe37vZO0t1cc9p7GX+ahohoEu74rn4f02HxfS4RERERERlWSuDD1jUwP0Nahke1+YylzrXVv/2cC54F4tq+pv7ba8Su2OKzffuXXu05ybV6iFiYQ1x3L3l8Asmrc4i4eg1iszCtXtqzL2DO5eUiFj5DsjueBOJWP0PEVRtgZubqtUNY2m5k+az+7tbIxYnAjQVkeiTMMXdTyLyYSYL7+Bhm+kmoByaa1AvLSe91jkkYO+YSH9HiVQH/Oqem2uBKLrkdKR5LzE3CeHk5CzjNKX8V881FVDU0crahjLwhRCsiIiIiIn0ZZs9JdgRywJTJ8Vy9NhzlwUfGWI9/YOaRthrq9lwibkkOMxeaiQBov0a79fNea717isxYijEri9hY14Z2GxetVVzw2T6B5NXPMMM02d22Ye8n3Hl0C6bJZ2iuu8yd2pPczljLohUeveb1e6nZ41weLm71+6Saena1f7mJOo+l7CIz1mLKMhMR64z9ovVzLpDDz7Og3Xqaq5dPcns0Psq7GeReMOOzePzE4+zrM998EsaOR0m7kug+pnOijbpJtdj/n4XclkSiIlo4MaNnTrrx8jPM91r9zf81JpF+OZNobsLdCcR3Rbu236JzYgvHp9b2Wn++53ukkH59Lqk3etq3JforeudiLqLqqwKMWHlDa8GLiIiIiASVEngRCa68Ms4+10j+k9sZkVX4REREREQeAF/sK9cQehEJrrzFWditlUreRURERESCTMvIiUgQ5fO4xcrHG+pCHYiIiIiISNhRAi8iQVTO+tTyUAchIiIiIhKWNIReREREREREZAxQAi8iIiIiIiIyBiiBFxERERERERkDlMALJiZgcjzGKwEtKCgiIiIiIiIjSUXsHnSOx3jHMY2ZQI0h1MGIiIiIiIiIP+qBD3uJ7HQk+t9t+I6l42qpGbmAREREREREZBCUwIe9KJJCHYKIiIiIiIgMmRL4MGdyTGdmqIMQERERERGRIVMCH8ZMDhPvOCJDHYaIiIiIiIgEgYrYhSGTI5svPBN3RwbfOzLcH2sM+9not2BdIjvvzWYRzuObDed53VBPvcf+VxzTMQJJjihm8iO/HFdPPRNY5pjHVkckcJsaw0k2Gm56R8bOe7NY5P58ic8MZ/mdu90EXrln4VnXp2ZDNZ9gYauj5/NS5vC9Y5qrxXnXtQfJ9ASb1q3i2YWuGgHNJ/js0z28f/C8/2PMRVR9VYARK2+kFlAx2GuLiIiIiIgESD3wYajecJRHxu3nkXH7ecsAGGrdnx8Z11/ybuLre9P5ZtxJV9taqh2z+KJXEbxbNPIj3/AjTXS/JJjAK/fmkcJJHhlXzWdEssgxh2Wep3Y8xvf3poOh2h3HLw1gcVjY6V6+7ia/G1fNZzhjXmq4yQFDz3dYargJhu94ZNx5mg21Q0ze13Fw7+tY7HtZmZ7Fo+lZrPwULL/5PTufGuxJRUREREREho8SeHFb5IDXx33HAbp7xFuoMtwGRxQmd6ubHDC0cMDQwu8NtwHIccyBcUddPek3qTJcosZwlgPuYxLZ6ZhGjeFor175esN3LDVcYpEjm1c8zl/lOm+3A1zqHYMjiiZaBp+8M4tNv/1b2PM8T73/R/d56g++SdGeFhb+5m385vC27eSkpjBHve8iIiIiIjLClMCLW42hb492PZ1AFD/1e9QsjHzH7zyPMXzXK1E3OWaziEt846vn33CWz4jE4pjQ+5qO6e4e/GVMA6aT4/6M73MNlMmCZWYL1X/sO1S+/o//SjPzyVYvvIiIiIiIjDJK4GWIzvP7fpPpCeQ4IsHwo0ePvKebNBpgpiO+p4fd8CM1RJHiOj7FARCJ0QGQyC/o5IchRGx64r8wk1YafXXh19uxA8aUWUO4goiIiIiISPCpiJ2MQrewu3rlf2eIx8J5PjPM4lkSwTGdJM4OYfh8t/lsPWVlq5+9zUM+v4iIiIiISHApgZdRyDkP/lmiMTmmg+EkVUznWcd0XjFE0YR3dfvBOMFb6W9yMAhnEhERERERGQkaQi/D7KaPQnienEPkmw1tvXrVu+fBPw9UG25Sb/iRZqbxrKNzaPPfgfrGViCBFN8BiYiIiIiIjEpK4B9AJoep9xJvw8yZfM/ieYePnY45PMttqr3XjDf8SA3TWOT4kSoAOmly/d+hzH8H4OAePmtOxPKE73nupk1vs0nJvYiIiIiIjDJK4MOccwm26R7LtJl4nk4/BeWGSz2vG26zyJHNTo9q8yaHia8d06gxnOxVxd7pFnYAQ6erZ9752bunfnDO8/4b/wSrf8/BTU94jAyYxVMf7mE7e3jf30XMRVQ1NHK2oYy8IcchIiIiIiIycJoDH+4M3/EW2Wy9t5xngWbDeV43tPTsdzzG945prv+9nO+p5RHX/mWO5Wx19ZpvvbecXxj2s9Fg4ut7s5jpPsEsvrjn6sk29Bzrrd5wlF9i4nmHhe/dPfGX+MxQ7Vo/3ptz6L2RFq/PwZj/DtR/zFOr7Gxat4p9p153bWzh2797m6cO9l1eTkREREREJNQMs+ck+xrY7NeUyfFcvdY2XPEMu7Eev4wCeWWcfa6R/Ce3Ywt1LCIiIiIi8kD4Yl+5htCLBCpvcRZ2a6WSdxERERERGVEaQi8SkHwet1j5eENdqAMREREREZEHjBJ4kYCUsz61PNRBiIiIiIjIA0hD6EVERERERETGACXwvuSVcbahkaqSIsyhjuVBYM6ntCRf91pCII3CklAtCZhGYclRzjY0Uqo1CUVERERkAJTA+1JRwJzUZXzclM17hWmhjibM5VP6bg5/2lCuonASAnUUb6ji8cMjn8SbCz/g15SSn5rC+ooRvriIiIiIjElK4P2qo+LQUcjKVc+wFxMTMDke45WAFiD0JY3Cw+u5sLkA5S8SOuWs3wXrDo/kiJs0lmTBpx/pxZWIiIiIDMwvV+ariF2/bD/QxE9DHcXo4niMdxzTmAnUGIZ2qrySA/zCuoycPhlMGumHD5Bq9HOgvYyqJ7fT4b3dnE/mu+uJNya52llp2FzAKc/z55WxclvWfSKzciK1APsAv0d4yyf98A5SjU00PJ3d+16Gk4oCPl7cyHuFleQUj9QKA038OVzvp4iIiIgMC/XAh71EdjoSg3c6w3csHVdLzVDPYy5incXKxz6TpTpOPZnCvtQU9qUuo8GOM2lPdW3zmbwXkfvVDqKbSt3tqnZBwleNZHqOja4oYF/qa7QBnbuXua7R81e1xUonWcwI2znJ+WSW5AfQ/tywRTLaVHxUBms+oFBDbkRERERklFICH/aiSAp1CD7kvVAAuz8M0tD5NNLfLSCq+jUqN5S7k/uOigKO724iflsZ/jrzvXVUFFC5xUr04kCS3DHE/FOiAzqg+2VKGPe+d7Nt5+PqJH79Qpg+exEREREZ85TAhzmTYzozQx2EN3MR6yxNfHMoSEOV814i1QhtR/quz95RXEobWaQFUoywooC6JogJTnSjSsySbKJCHcQoVnHECpacEFWlFxERERHpnxL4MGZymHjHERnqMPowL8nGGMT5v8bFWYCViz67889xyw5RWbkDSMjTiDE7E317cXnfYfpjXExeEQvWDGI8hjkNY94DshpDRRXVZPG4MngRERERGYVUxO5+jCnMgmGqFJ3IK47ZPOtOsm9TYzjJRsNNH20nsMwxj7WOSI8edd/tTY5svvBM3B0ZfO/IcH+sMexno88CdIHE03PMznuzWYTzmGbDeV431FPfzxGzkpLAfpTz/bQZuHxmWAB7I76jrONGE2DJZqZ5Ox39PsjZzH0Bjm3oPTIgpvAoOR6Jb+fuZVQWzyazYQfxvbZ5jSgw55P+wnpSLd3HNtG2+2WO+SuS5t3ebqVh14ecqvBoby4i84UUSEqCXdkcO19E5rsFxBud5++sLuX4ht4vH7zjx7KDlQ073B/btqRwzOvlh/MY6LQnEWUEql/DXnGfERNmz1j8xZ9P+gs5RLvj7/2dO6vLOL7BR42DwTA9waZ1q3h2oasGRPMJPvt0D+8f7O+Xd44Ldvj14nyo6DuiI3hmk2yEPw/jFUREREQk/KgHvl/l/OPuJNaV5A/D8lImvr6XgYVz/HLcfh4Zt59Hxv1IksPC144JXm0T2XnPwlbO8bq77X5+aXC23+m1nFu94ai7zVsGwFDr/vzIOH/JeyDxeB4znW/GnXS1r6XaMYsv+i2al8bDSUDTD8F9KdL0g9+k72ZT04BOEZM5duEQAAAaAUlEQVSX407IPXUUZ7Pv6TI6AapfcyXq5RxLXUaD3cqJp1N8JO/OonoJ9BTV2/f0UaLXHCDX13D+7vbeRfi2HehdhI9KLjZBtDEJHi4i8wW4uLn7/KW0Ju0g53BRr9EGHcXZ7iJ9J6qd38GzcJ938t5zTDaVT7qOuZ+8MlZ+lQ27egoD+ozfdo4bRxp74n83Bz562RX/a9yyFJATUJE9P0zrOLj3dSz2vaxMz+LR9CxWfgqW3/yenU/1d2Adfx7Yz2UI0sgrXE9SdZWWTxQRERGRgDyQCfyUyfG9/vpjK36Zj5tyeK+hLIjzYifwyr1ZzOQ8rxtaPHqr26gGZjriMXk2d0xnEbf5rFdbqDc42yfhL8EepnhcFjng9XHfccDd991CleE2OKJ8th8WAy7KlkT0rN5botYcYGVDo/svp7/l5WzbOb67CSzrSXe9zYkp/IDoXQXYfS2D924BUfay3r3htkpafQ7nd7Zn9zIqi+9ThM9Wh724iltAfBac2bC95/q2ck5tLqPTWMDcER0Cnk/mtizatmRzzKO3vbsgYPy2o+57BnXYK37oif/JAk7Z6tzxn9ndBEk/HWL9gVls+u3fwp7neer9P7p/z/UH36RoTwsLf/M2/ebwwyqf0oYPeJxSXt0wnD38IiIiIhKOHsgE/uq1tl5//ckrOcA6qng1tSB4vWWOOTwL1PQZan6TRsMlPjO09d5uOMtbhnNUBev6Q43HpW97qKcTiOKnwxRqMHkvI1e1u/+u147il2mwJ5H6Qj4x5iLmJpX67L12F9Xb5T0UvI4bVisNuyp7bzfnkmBsotVHUb+OQ0f9LmvX9/y4XxLEj2AV/ZjC9cT7q0FQ8SEN9iQSlvQddeAr/o4/N4ExZWivpEwWLDNbqP5j36Hy9X/8V5qZT3bIMvhy1qdm84+s571gjDQQERERkQeK5sD3K5/HLVY+3lAe1OHeJqKAS3zjYyj7AcN3Po64yQHDTWACJkc8zzOdJI+58M0jHs9QuIYoJ/0UM0GoLWBz9ubev7J6E7fuM+m+o7iUtpL+WtRxanMZCV/tICfJyoknt/tsFfNwEv6K6tmLC/q2X5JNFE3c8HUzXN8v+uE0YCBV+11z/l292MNfiC+NmVlJUF2KvZ94UrNyiSmuG5HCgKYn/gszaaXR11unejt2wJgyC3xWYeie4jGsIWIrLqWpIYc8yjWMXkREREQGTAn8/dgbg1RsbWhMjsd4xzENuES14SS/H3eTeibwyj0LllAHF6DzTU1gCVZxQGeV+fh+EtYJSQPNyM5x637NbNupqy5gftBvehbzGxqZ72dvZ7AvF/bms/WUla1+9vp/6eUsLle9a7iHt5/jgj1nmK8hIiIiIuFGCfwY0F1VvsZQfZ+K8GOD7dBR7GuyeTgoXfDdVeadw677JvBpTEwC7Edpvu+16jhVfJ8meWWkNb1GQ9IO5pfkYw/aPGYrJ1IL/PRiS+BO8Fb6mxwM9LC8HCw08eloeGsnIiIiIuLlgZwDH2rd88RT/LZIZJm7svwEchyRYKgdtuQ9sHiCwFbJN/YkfuFjXvRg2I9Ywc88cZhNtBE6rZUBDd+OKSzzKLzWLZ/MxY0cL3YVi7Ps8KoQ79ThnCPARL9LF+RjzAukfSBcLyz6qcofXHU0W/srPOeMJ9D7PxT1ja1AAimDqKSYtzgLqkspHp51I0VEREREhkQJfCgYfqSGSCx+lmczOaaT4p6PHt1TgbxfEwZc+d3kMLFs0PEEQx3Fu6wY17wUnMr+FR/SYIf454r6JJHdBdbq/K297lM+c7Ma+/TYG0tyuPWRq/Caqyq9r2tSUUUbvgu3OWPKYaJnD28/hd6c7X29TOieF++lu4DekYGPDIgpLBrgb8y3jkNH/Ve+z3uJVD8F+obNwT181pyI5YlZPnebNr3NJp//WPJ53NLEpx+pOryIiIiIjE5K4EOihY2GS8x0WPjakeiReE9gmSObdzjL7zzafmMAHBns9EiwTSSy8948LMBMooFocnwk4Ae4BI7pvOJx5PN0cmDQ8QRJRQFvVGexztea6AGr49STr9FmLGBBSb47oY7JKyNnDbRtGfjQ9Ji8InIbdhDv1YMdU3iU+VRxyiOp7ygu7XNNp3KObbESteYAuYWe+9IwlhxlAR/2Ok93cTwG3N4l6yUyCz2/bxG527LorH7Nd3V8XKMVLDk9LwTMRcxN+mFoQ/e7X2ZsO0pmXs/z7I6nbcvLvuMfNud5/41/gtW/5+CmJzx+z7N46sM9bGcP7/socJdXsgOLet9FREREZBQzzJ6THNDg6CmT4++79NpoFlD85iKq3oVXn9we1Cr0PRLZeW82i4h0fb5NjeGkj6HyE1jmmMNax7SeyvOG83xiqOeA4zG+dkxjJpd4a9x3Xom50zJHNlsdke7jXvex/NuA43E8xveOaT2fDbU8YmhxXWc5Wz1+TTWG/Wzst+c+n9KG9Vx4OtsraUoj/fABUv11C9vLqHrSxxJqpJFe8gGpliRXOysnNnut055Xxsr+1nt3aduS4kyCzUXkflXgrnLfuXsZlcV1fbb7nMNuzifz3fXEG13x0ETb7pc55m80gDmf9BfW98RPE21bXu61trpTPpkNO2BLCmcoY8G2LFcc/tr3Ziw5ynzXNTqryzi+oe+9jCk8Ss6apL4He94D72Pyipj7XAHx3c/NbqVh14ec8ozH+/5Xv8Y+Vx0BY0ljr+KA7mcwWKYn2LRuFc8uTHRtaOHbv3ubjQd9THDPK6PqucZh/LfuLY3Cwx/AZu/fvoiIiIiIfw9kAu/J/3dJc64B37SMnICGX0tAzPmUvpvDn54s0HJaA9aTwA8pwRWXfEoPj/xv0Fx4lPKkUvKDvEyliIiIiISvB3II/dVrbe4/n/LKONtwgHWU8aqS9+FlK2f95kYeL8knKDXcHiS+5sBLgNIoLMnhT5tH/gWSrfhlPmU95Q2NlAalGISIiIiIhLsHsgd+LMcvD7g+UwC0/JyIiIiIyINC68CLjCUVBezTsHkRERERkQfSAzmEXkRERERERGQs+WJfuRJ4ERERERERkbFACbyIiIiIiIjIGKAEPuwkEBmfQNyStSRnhDqWIItPIDJ+HsmrlxIX6lhCbhIxdycRczeF9A4LuZdTQh2QiIiIiIgMMxWxCzORS3IwLTQTAbR/GepogmkeaasWExs7GbDREOpwAnE3hfTrc0m9Ee3acIu2uGMci7k+6FPGdDzKgs4JQDRRXcDEi8GIVERERERERjEl8GHm9qFP+LdD80h7Z1WoQwmyk9QVn4SMtSxaEepYAnA3g9wLZm4lVrJvqjNhj+lYTs6VXDIf+pxj4wd32o6YaipjnP/bePkZ5gcpXBERERERGb2UwIsMI+N1M1ETj1M5vqe3vWN8C20T4cwgk3cREREREXkwKYEXGWadf9XRe8NDtRybGppYRERERERkbPrlynwVsZPBicxYS5rPInkJJK9eSuRIBzQqTWLi3VDHICIiIiIi4UI98OEu3rP4G3TVW6nf8zW3fbZdStqqLGJjXZ/bbVy0VnGhtrWnTcZaFq0wO3f3KpKXQHLhq8yIBdqtXPW4fnL2o0RMmQLWbdRdnkdy9mJmmAYSzzzSVq1yx9NVv5f6ukHcA095ZazcljWAhk00PJ3NKVvglzBefob5Nzw2dOWy8krPx864Sir7FLCbhPFyJmk3oonq3hRxi7afHOPY+MEXu+vlbgaZl83Ed3VvuEXbxJtE/9VFKmMafbT3Kr4X0ULDT05zqr94zEVUfVWAEStvpBZQEZzIRUREREQEJfDhLW4pP8+Ko3nvNuracCbTq1bxs0L4v8VeSXPGWhatmEL7l+9R40rYIzPWYlrxKhFsoq7W1a72E2pqfRXJa+VC8SauLtnCz8wem9sucaduKrErzHTFLSUtK46uvZ9Ts6fVmaBvXMXPVl+mZs/J3qfLWMvPV5jpcseT4Kywn2UGBpFVd6soYN8wZ5X2qZ9jnwowifSLuSRE+UrYPaWQeXYB8ROPUzWnke4B9zF3MljQkktm4uCL3bndzSD3QiKtiZUcm3Hd4/xmonxVsHcV3yOuJ6aYOxYWtOQSHYx4REREREQkYBpCH8ZizXE0F3/ClTbXhraTXLDaIDYLY6/h7/NIW2Gm/ctt1Hn0tt+u/YR/+9JG7IotJMcPNopWrtRepguINYO9+BMutLW647F/ew2mTPUacu+MJ6J+r0c8rc4K+9YhJO+j1Z0ZxHOLhkk9yTtAx/gmWiMg+u6kIV/CeN0Mccd69Z53jK+lMtlG592JxPRqPYn0y2aIq6QypiemjvHVHI+7RXyLBaO/C9m2k5Oawhz1vouIiIiIBJ0S+DDWZaviivfG2tO0AxFxCe5NkUsWE4uNa7XejYHaKi62Tyb20QQfOwPTbu07VP72lasQG0evDt2MR4nlGhePevXKh6vxpzmReIbmh4bvEjf/6hZR/xHTd8dDtRz/yY3e2+4mkdB1i1YfQ+U7xrfQSSIz7gxToCIiIiIi4tMX+8o1hD6cdV1p9bH1El3tEDt5GuAcmj7FPBnqj/RN9gFo5c5VmGH+ayIPtfqeqx5kkXFTgKvcabtv08CNwBz4wF3HPv46MImYO0nM7Uwk+m40Ua656p1R/R48IB0xZ2i7uICVZ+fSFtfCxfG12F0vDDrG957/HnMnkShucsPXC4WHbnAL16iAYM3NFxERERGRAVECLw+WEZgDPxgxHRYWXEmEiBZaf3KMM//5Oh0PuebQB+UKjRyb0eF8QfAXM/OvmJnfb5G8ROaffYb5fs7WGZSYREREREQkEErgRUIspmM5OVeiaUusDF7FeZ+u0zH+OsfG18LdSRivZ5LWkkvuxONUTvWuQt/CiTnV2IcxGhERERERCYzmwD9wphERC13XLrk+t3LV5quQXLcExk+BLtu/j8jweXDNi2cK4wddOG8smcTMzmiYeHwYk/cUMi+n9N700HXsU/dTmWyDG3NJ91ivvuOhm8AErWEvIiIiIjLKKIEPY56F6txcBeLaT3tUmz99hq4+lem72+cwI7Z3e//nd82nH6ra07Tjq3BeAslZZp+HjF0xRHfdvxVMImbQCXUHt+72TtLdXHPaexl/moaIaBLu+K5+H9Nh8X0uEREREREZVkrgw9Y1MD9DWoZHtfmMpc611b/9nAueBeLavqb+22vErtjis337l17tOcm1eohYmENcdy95fALJq3OIuHoNYrMwrV7asy9gzuXlIhY+Q7I7ngTiVj9DxFUbYGbm6rVDWNpuZPms/u7WyMWJwI0FZHokzDF3U8i8mEmC+/gYZvpJqAcmmtQLy0nvdY5JGDvmEh/R4lUB/zqnptrgSi65HSkeS8xNwnh5OQs4zSl/FfPNRVQ1NHK2oYy8IUQrIiIiIiJ9GWbPSXYEcsCUyfFcvTYc5cFHxliPf2DmkbYa6vZcIm5JDjMXmokAaL9Gu/XzXmu9e4rMWIoxK4vYWNeGdhsXrVVc8Nk+geTVzzDDNNndtmHvJ9x5dAumyWdorrvMndqT3M5Yy6IVHr3m9Xup2eNcHi5u9fukmnp2tX+5iTqPpewiM9ZiyjITEeuM/aL1cy6Qw8+zoN16mquXT3J7ND7KuxnkXjDjs3j8xOPs6zPffBLGjkdJu5LoPqZzoo26SbXY/5+F3JZEoiJaODGjZ0668fIzzPda/c3/NSaRfjmTaG7C3QnEd0W7tt+ic2ILx6fW9lp/vud7pJB+fS6pN3ratyX6K3rnYi6i6qsCjFh5Q2vBi4iIiIgEzRf7ypXAi0iQ5ZVx9rlG8p/czoiswiciIiIi8gD4Yl+5htCLSHDlLc7Cbq1U8i4iIiIiEmRaRk5Egiifxy1WPt5QF+pARERERETCjhJ4EQmictanloc6CBERERGRsKQh9CIiIiIiIiJjgBJ4ERERERERkTFACbyIiIiIiIjIGKAEXjAxAZPjMV4JaEFBERERERERGUkqYvegczzGO45pzARqDKEORkRERERERPxRD3zYS2SnI9H/bsN3LB1XS83IBSQiIiIiIiKDoAQ+7EWRFOoQREREREREZMiUwIc5k2M6M0MdhIiIiIiIiAyZEvgwZnKYeMcRGeowREREREREJAhUxC4MmRzZfOGZuDsy+N6R4f5YY9jPRr8F6xLZeW82i3Ae32w4z+uGeuo99r/imI4RSHJEMZMf+eW4euqZwDLHPLY6IoHb1BhOstFw0zsydt6bxSL350t8ZjjL79ztJvDKPQvPuj41G6r5BAtbHT2flzKH7x3TXC3Ou649SKYn2LRuFc8udNUIaD7BZ5/u4f2D5/0fYy6i6qsCjFh5I7WAisFeW0REREREJEDqgQ9D9YajPDJuP4+M289bBv7/9u4nNOv7jgP4+yc96npqwThRF5rGR3G9jNJdZqxrHbRqyGFtL/OSKS2MWik6SneotCuILZMihrCil9YdJIsdJQVr3GVDRBhiYkgJiaQqtKdUz/52SIyJTbQ1Pn3y+LxelzxPnuf3/X5yfOfz/ZMU56ffb1hyt/BeyWc3m/LlknNT3z2f/rIlx2cdgvddRnI1X+ZqRnPrnwSP5o2bv0pzzmXDkv4czdJsLFuzbebQ5dO5cLMpKfqn63ipSNrKthyavr5uIh8s6c/RTNb8YjGR3uL23/BiMZEUZ7NhyXAuF+cXGN535uQne9M29klefmpTfvnUprz896TtnSM5tPV+BwUAAKgeAZ5pG8tk75Kz6c2tjvh4+oobSbkslelvTaS3GE9vMZ4jxY0kyZayNVlyaqqTPpG+4lrOFEPpnX5mZQ6Vy3OmODWrKz9YnM2LxbVsLDfnjRnj902Ne0tvrs2uoVyW0Yzff3hPS3b/9ffJsV3Z+uEX0+MMnnwr+46N5zfvvJt5M/zA+9mytjmtuu8AAMBPTIBn2pni+x3twVxPsixPzPtUS1bnbD6Y+UxxdlZQr5RPZmOu5cu5Ov/FUI5madrKR2fPWTZNd/C3ZXmSpmyZfp+5x/qhKm1pWzWe/i++v1R+8Iv/5HKeyWZdeAAAYJER4Fmg4Ry5a5h+NFvKpUlxdUZHfqaJjBTJqnLF7Q57cTVnsizNU883l0myNKvLJFmZZ3M9Xy2g4srzv86qfJ2RuVr4g2MZS7K6uWUBMwAAADx4DrFjEfouY1Nd+Q+KFWnLcI4WLdmRlUnZlDUZWsDy+Vueyf7/nc7+eT69vODxAQAAHiwBnkVoch/8jvwslbIpKc6lL03ZUTbljWJZRnPn6fb34795+6m3cvIBjAQAAPBTsISeKpuY4yC8mSaXyF8urszqqt/aB78rSX8xkcHiai5neXaU1xe2/z3J4MjXSX6e5rkLAgAAWJQE+AZUKSuzr3irssnw3ZJd5Rwflq3ZkRvpv/PO+OJqzmR5NpZX05ckuZ7RqZ8L2f+eJDl5LEcvr0zb83Pvc6/sfje7hXsAAGCREeAfcpNXsDXNuKatkl25Ps+BctUymL3FjWwsN+fQjNPmK2Uln5XLc6Y4N+sU+0nfZSxJiutTnfnJ93d26u/PcD788z+SPxzJyd3Pz1gZ0JKtfzuW93MsH843ybp96bs0kqFL3WlfcB0AAAA/nD3wD7vibN7O5uy/uT07klwuhrO3GL/9efl0LpTLp15vz4Wcz4apz7eV27N/qmu+/+b2PFv8M38qKvnsZktWTQ/QkuM3pzrZxe1n7zRYnMpLqWRX2ZYL0534azla9E/dH3+nyaX3qzN+x/sHsf89yWBXtr4ylt07X8mn/9s79cvx/Psv72brye9fLwcAAFBrxZOtv5hrYfO8Hn9sRb759kq16qm6eq+fRaC9O0N/HEnH797PQK1rAQAAGsLxT09YQg8/VvtvN2Xs9L+EdwAA4CdlCT38KB15ru10ul69WOtCAACABmMJPQAAANQBS+gBAACgDgjwc2nvztClkfQd3pd1ta4FAAAAIsDPraczrWu3pWt0cw6+ub7W1QAAAIAAP7+L6fn8VLLpBV14AAAAak6Av5uBrzJa6xoAAABoeO6BBwAAgDohwAMAAEAdEOABAACgDgjwAAAAUAcE+HtZ3ZyWWtcAAABAwxPg7+pEPvp4TXYe7nCVHAAAADUlwN/DwIHX0zW6JQcvdae91sUAAADQsAT4e2g/3Jud6cuetZ3pqXUxAAAANKxHal3A4taR59pOp+vVExmodSkAAAA0NB34exkbyXCtawAAAKDhCfAAAABQBwR4AAAAqAMCPAAAANQBAR4AAADqgAB/N+ueyJpa1wAAAABp0GvkHn9sxfTrb769Ms+31qf9tc7k9DZXyAEAAFBzDRfg5w/sM7R3Z+i9TRnr786eAxerXxQAAADcQ8MF+B+kpzOtPbUuAgAAAG6zBx4AAADqgAAPAAAAdaA6Ab69O0OXRtJ3eF/WVWUCAAAAaBwvvdxRpQDf05nWtdvSNbo5B99cX5UpAAAAoJFUcQn9xfR8firZ9IIuPAAAACxQdffAD3yV0apOAAAAAI3BIXYAAABQBwR4AAAAqAMCPAAAANQBAR4AAADqQPUD/OrmtFR9EgAAAHi4VTnAn8hHH6/JzsMdrpIDAACABah6B37gwOvpGt2Sg5e6017tyQAAAOAhVfUA3364NzvTlz1rO9NT7ckAAADgIfVIdYfvyHNtp9P16okMVHciAAAAeKhV/xC7sZEMV30SAAAAeLi5Rg4AAADqgAAPAAAAdUCABwAAgDogwAMAAMAid/zTE1UO8OueyJqqTgAAAACN4b6ukXv8sRXTr7/59so831qf9tc6k9PbXCEHAAAAC/SjA/z8gX2G9u4MvbcpY/3d2XPg4v3UBQAAAMxwXx34e+rpTGtPVUYGAACAhuQQOwAAAKgDAjwAAADUAQEeAAAA6oAADwAAAHXg/1UO9djbKcSbAAAAAElFTkSuQmCC;" vertex="1" parent="1">
          <mxGeometry x="588" y="200" width="536.41" height="240" as="geometry" />
        </mxCell>
      </root>
    </mxGraphModel>
  </diagram>
</mxfile>
